<?xml version="1.0" encoding="UTF-8"?>
<svg width="168px" height="167px" viewBox="0 0 168 167" version="1.1" xmlns="http://www.w3.org/2000/svg" xmlns:xlink="http://www.w3.org/1999/xlink">
    <!-- Generator: Sketch 48.2 (47327) - http://www.bohemiancoding.com/sketch -->
    <title>icon_find_friends</title>
    <desc>Created with Sketch.</desc>
    <defs>
        <linearGradient x1="50%" y1="0%" x2="50%" y2="100%" id="linearGradient-1">
            <stop stop-color="#FFDA64" offset="0%"></stop>
            <stop stop-color="#FFA341" offset="100%"></stop>
        </linearGradient>
    </defs>
    <g id="icon_find_friends" stroke="none" stroke-width="1" fill="none" fill-rule="evenodd">
        <g transform="translate(0.250000, 0.000000)">
            <rect id="bg" fill="url(#linearGradient-1)" x="0" y="0" width="167" height="167" rx="36"></rect>
            <path d="M27.2217666,60 L139.461568,60 C141.524959,60 142.935076,62.2093189 142.933333,64.175 C142.931591,66.1406811 141.519081,68.35 139.454167,68.35 L121.3625,68.35 C118.64108,68.35 117.883333,69.8228705 117.883333,72.525 C117.781386,78.8461598 117.781386,82.3253265 117.883333,82.9625 C120.473202,96.9374129 123.256536,110.85408 126.233333,124.7125 C126.695355,127.242267 124.161493,129.248386 121.697055,129.248778 C119.123162,129.253069 117.363159,128.390912 116.491667,125.408333 L109.533333,94.7916667 C109.098166,93.0164722 108.1875,92.7052322 106.841667,92.7052322 C105.495835,92.7052322 104.585169,93.0164722 104.150002,94.7916667 L97.1916683,125.408333 C96.3201761,128.390912 94.5601733,129.253069 91.98628,129.248778 C89.5218415,129.248386 86.9879801,127.242267 87.4500016,124.7125 C90.4267993,110.85408 93.2101326,96.9374129 95.8000016,82.9625 C95.9019494,82.3253265 95.9019494,78.8461598 95.8000016,72.525 C95.8000016,69.8228705 95.0422548,68.35 92.3208349,68.35 L74.3625,68.35 C71.6410802,68.35 70.8833333,69.8228705 70.8833333,72.525 C70.7813856,78.8461598 70.7813856,82.3253265 70.8833333,82.9625 C73.4732024,96.9374129 76.2565357,110.85408 79.2333333,124.7125 C79.6953548,127.242267 77.1614934,129.248386 74.697055,129.248778 C72.1231616,129.253069 70.3631588,128.390912 69.4916667,125.408333 L62.5333333,94.7916667 C62.0981664,93.0164722 61.1875004,92.7052322 59.8416675,92.7052322 C58.4958345,92.7052322 57.5851686,93.0164722 57.1500016,94.7916667 L50.1916683,125.408333 C49.3201761,128.390912 47.5601733,129.253069 44.98628,129.248778 C42.5218415,129.248386 39.9879801,127.242267 40.4500016,124.7125 C43.4267993,110.85408 46.2101326,96.9374129 48.8000016,82.9625 C48.9019494,82.3253265 48.9019494,78.8461598 48.8000016,72.525 C48.8000016,69.8228705 48.0422548,68.35 45.3208349,68.35 L27.2291683,68.35 C25.1642535,68.35 23.751744,66.1406811 23.7500016,64.175 C23.7482592,62.2093189 25.1583764,60 27.2217666,60 Z M59.8416667,55.6666667 C54.4614927,55.6666667 50.1,51.3051739 50.1,45.925 C50.1,40.5448261 54.4614927,36.1833333 59.8416667,36.1833333 C65.2218406,36.1833333 69.5833333,40.5448261 69.5833333,45.925 C69.5833333,51.3051739 65.2218406,55.6666667 59.8416667,55.6666667 Z M107.158333,55.6666667 C101.778159,55.6666667 97.4166667,51.3051739 97.4166667,45.925 C97.4166667,40.5448261 101.778159,36.1833333 107.158333,36.1833333 C112.538507,36.1833333 116.9,40.5448261 116.9,45.925 C116.9,51.3051739 112.538507,55.6666667 107.158333,55.6666667 Z" id="find_friends" fill="#FFFFFF"></path>
        </g>
    </g>
</svg>