<?xml version="1.0" encoding="UTF-8"?>
<svg width="58px" height="58px" viewBox="0 0 58 58" version="1.1" xmlns="http://www.w3.org/2000/svg" xmlns:xlink="http://www.w3.org/1999/xlink">
    <!-- Generator: Sketch 48.2 (47327) - http://www.bohemiancoding.com/sketch -->
    <title>icon_sm-siri</title>
    <desc>Created with Sketch.</desc>
    <defs></defs>
    <g id="settings" stroke="none" stroke-width="1" fill="none" fill-rule="evenodd">
        <g id="icon_sm-siri">
            <rect fill="#1A2743" x="0" y="0" width="58" height="58" rx="13"></rect>
            <g id="siri" transform="translate(3.000000, 3.000000)">
                <path d="M25.7458238,0.397693222 C11.9366635,0.397693222 0.397685707,11.933302 0.397685707,25.7458313 C0.397685707,39.5560343 11.9356207,51.0939693 25.7458238,51.0939693 C39.556468,51.0939693 51.0939618,39.5568365 51.0939618,25.7458313 C51.0939618,11.9317378 39.5572702,0.397693222 25.7458238,0.397693222" id="Fill-1" fill="#C6FFF2"></path>
                <path d="M25.7458238,2.00000376 C12.8095703,2.00000376 1.99999624,12.8064218 1.99999624,25.7458313 C1.99999624,38.6830616 12.8085935,49.4916588 25.7458238,49.4916588 C38.6834674,49.4916588 49.4916513,38.683813 49.4916513,25.7458313 C49.4916513,12.8049564 38.6842188,2.00000376 25.7458238,2.00000376" id="Fill-1" fill="#301D48"></path>
                <path d="M28.7074207,11.6556997 C28.7074207,11.6556997 28.8742426,11.9058951 29.1219206,12.4174448 C30.8187328,9.92063869 32.8215731,7.79549985 35.957112,7.40944229 C34.7408522,6.74106487 27.7923797,2.92260806 20.3990111,5.38139081 C20.398936,5.38142838 20.3988608,5.38142838 20.3987857,5.38146596 C24.0334753,6.37082534 27.0865801,9.20567136 28.7074207,11.6556997" id="Fill-4" fill="#CC2B83"></path>
                <path d="M31.2164341,23.9464236 C31.5732227,24.3248539 31.9558987,24.7369116 32.3657397,25.1857529 C33.8471111,25.0918216 36.6633963,24.8746525 42.5450349,24.3261689 C38.6883293,24.3516431 35.0092665,23.1863692 31.2082433,22.7332447 C31.2169977,23.1266665 31.2199659,23.5309092 31.2164341,23.9464236" id="Fill-6" fill="#ACFEED"></path>
                <path d="M9.6178606,16.6852238 C9.73444811,16.2615937 9.87083633,15.8357093 10.0290542,15.4090734 C9.49687712,14.6211779 9.11224731,13.9089909 8.8790723,13.2473014 C7.30192854,15.0866261 5.82784618,17.4524921 4.95203093,20.418391 C4.95203093,20.418391 4.95199336,20.4184661 4.95199336,20.4184661 C6.30772231,18.9458491 7.83346687,17.6158198 9.6178606,16.6852238" id="Fill-8" fill="#3F2584"></path>
                <path d="M8.45276707,34.7829184 C8.85685943,33.7616975 9.88266415,31.4212682 11.845114,29.066937 C9.69472645,29.2329324 6.35640877,29.756881 4.39016407,28.4450744 C4.81108892,31.3067471 5.82637334,33.8087383 6.89707721,35.7844137 C7.33923053,35.5264408 7.84458082,35.2323608 8.40362222,34.9085233 C8.41981598,34.8667802 8.43612245,34.824962 8.45276707,34.7829184" id="Fill-10" fill="#0C74BC"></path>
                <path d="M19.1579046,28.1020561 C19.1578295,28.1020561 19.1577543,28.1020937 19.1576792,28.1020937 C18.6253518,28.707462 18.0472612,29.3034372 17.3570541,29.9262391 C18.6487219,29.2807058 19.9379475,28.637502 21.1451523,27.8391988 C21.137976,27.8316092 21.1308748,27.8240571 21.123736,27.8164674 C20.4788414,27.904312 19.8245537,27.9988068 19.1579046,28.1020561" id="Fill-12" fill="#FFFCFF"></path>
                <path d="M20.829532,28.9812679 C16.9064733,32.156333 12.5992357,35.0266475 8.41899314,37.8559704 C8.4403719,37.8614184 8.46163794,37.8669415 8.48309184,37.872352 C15.1171576,39.5481612 21.6265952,39.592121 28.3279533,38.3401298 C27.6733274,35.728765 27.514809,35.1190759 27.3654207,34.5538726 C25.7727219,32.7808258 23.5816809,30.4314542 21.6154738,28.3393415 C21.3641137,28.5453141 21.1035107,28.7595149 20.829532,28.9812679" id="Fill-14" fill="#3756AC"></path>
                <path d="M6.89706594,35.784425 C6.80426184,35.8385669 6.71435082,35.8910933 6.62718259,35.9420041 C7.17048111,35.7538034 7.70900792,35.5524523 8.24276303,35.3380635 C8.2937865,35.1967909 8.34740247,35.0535269 8.40361095,34.9085346 C7.84456955,35.232372 7.33921926,35.5264145 6.89706594,35.784425" id="Fill-16" fill="#8EF4FF"></path>
                <path d="M20.829532,28.9812679 C21.1035107,28.7595149 21.3641137,28.5453141 21.6154738,28.3393415 C21.4571056,28.1708288 21.3001653,28.0039317 21.1451411,27.8392138 C19.9379363,28.637517 18.6487107,29.2806833 17.3570428,29.9262166 C15.1026546,31.9604675 12.4876829,33.4458216 9.73872762,34.6975123 C9.2859037,35.4807489 8.74985668,36.4212264 8.08365847,37.5908212 C8.06633754,37.6211797 8.04942991,37.650862 8.03271014,37.6802062 C8.05254843,37.7103017 8.07238671,37.7403973 8.09211228,37.7700796 C8.19971996,37.7992734 8.30894325,37.8278661 8.41899314,37.8559704 C12.5988599,35.0269105 16.9073375,32.1556192 20.829532,28.9812679" id="Fill-18" fill="#8AF9FD"></path>
                <path d="M10.2295148,33.8550727 C9.62038923,34.2053612 9.01175211,34.5565139 8.40364101,34.9085308 C8.34739496,35.0535231 8.29377898,35.1967871 8.24275551,35.3380598 C8.70335694,35.1530903 9.20498754,34.940505 9.73870507,34.697486 C9.91394327,34.3944261 10.0766322,34.1149618 10.2295148,33.8550727" id="Fill-20" fill="#9DF8FB"></path>
                <path d="M42.5450349,24.326184 C36.6633963,24.8746299 33.8471111,25.0918366 32.3657397,25.1857679 C32.7515718,25.6083459 33.0845394,25.9793745 33.3753131,26.3085097 C33.6778845,26.3615997 34.1337894,26.4448979 34.6878712,26.5596068 C35.4015611,26.7073795 35.6511177,26.7774147 36.0797825,26.8606378 C36.9723175,27.033847 37.6068045,27.063379 37.969755,27.0942261 C39.1146645,27.1915389 40.6933112,27.568842 41.8628684,28.1616987 C42.563483,28.5168341 43.9878193,29.3905829 45.1579401,31.4400507 C45.6890651,30.3913643 46.2953352,28.9179582 46.6449098,27.080963 C47.1005517,24.6864292 46.9331286,22.6563864 46.7142687,21.3238397 C46.5531202,23.573306 44.5046668,24.3132215 42.5450349,24.326184" id="Fill-22" fill="#244F56"></path>
                <path d="M33.7762155,26.7664548 C34.6086345,26.7699114 35.3483997,26.8035012 36.0797862,26.8606115 C35.125745,26.64224 34.2235539,26.4603515 33.3753168,26.308521 C33.5188814,26.4710597 33.6521135,26.6233035 33.7762155,26.7664548" id="Fill-24" fill="#1EA07D"></path>
                <path d="M10.2295148,33.8550727 C11.2534033,32.1141879 12.4181136,30.5194602 13.625356,28.901663 C13.6253936,28.9015879 13.6254687,28.9015127 13.6254687,28.9015127 C13.0633839,28.9627184 12.4726313,29.0185135 11.8451328,29.0669445 C10.3984784,30.802494 9.22061771,32.8015019 8.40364101,34.9085308 C9.01175211,34.5565139 9.62038923,34.2053612 10.2295148,33.8550727" id="Fill-26" fill="#3AB4DC"></path>
                <path d="M10.2295148,33.8550727 C10.0766322,34.1149618 9.91394327,34.3944261 9.73870507,34.697486 C12.4876603,33.4457953 15.1026696,31.9604788 17.3570579,29.9262279 C14.9305123,31.1389183 12.5796003,32.5026126 10.2295148,33.8550727" id="Fill-28" fill="#B8FCFA"></path>
                <path d="M6.92564735,35.8371354 C7.17907394,36.3021704 7.43531847,36.7378237 7.68724217,37.1415779 C7.82776336,36.5939585 8.00848714,35.9867867 8.24275176,35.3380598 C7.75299406,35.5347519 7.309939,35.7002212 6.92564735,35.8371354" id="Fill-30" fill="#4FCCF4"></path>
                <path d="M19.1576679,28.1020937 C17.4186618,28.3713759 15.7194449,28.6734964 13.6254913,28.9014864 C13.6254537,28.901524 13.6254161,28.9015992 13.6253785,28.9016367 C12.4193761,30.5177808 11.2519605,32.116679 10.2294998,33.855084 C12.5798107,32.5025111 14.9304222,31.1390047 17.3570428,29.9262391 C18.0472499,29.3034372 18.6253781,28.707462 19.1576679,28.1020937" id="Fill-32" fill="#43BEE1"></path>
                <path d="M10.0290579,15.4090622 C9.87084008,15.835698 9.73445187,16.2615824 9.61786436,16.6852125 C9.93016708,16.5223733 10.2600162,16.3656583 10.6069607,16.2184116 C10.3984709,15.939849 10.2054233,15.6701535 10.0290579,15.4090622" id="Fill-34" fill="#5E258B"></path>
                <path d="M9.73872386,34.697501 C9.20500633,34.94052 8.70333815,35.1530677 8.2427743,35.3380372 C8.00847211,35.9868018 7.82774833,36.5939736 7.68722714,37.1415929 C7.80358921,37.3280277 7.91893682,37.5075116 8.03270638,37.6802325 C8.04942615,37.6508508 8.06633378,37.6211685 8.08365471,37.5908099 C8.74985292,36.4212152 9.28589995,35.4807752 9.73872386,34.697501" id="Fill-36" fill="#61DBF4"></path>
                <path d="M28.3279458,38.3401448 C28.6595608,39.6629226 29.1287663,41.5404586 29.6988165,43.8415496 C29.3702073,41.7159223 29.4620721,39.5957054 29.6930679,37.4644423 C28.5193778,35.8467953 27.5659377,34.7771059 27.3654132,34.5538876 C27.5148015,35.1190909 27.6733199,35.7287801 28.3279458,38.3401448" id="Fill-38" fill="#ED8DEA"></path>
                <path d="M35.9105183,29.3383007 C35.3173986,28.6697354 34.9661332,28.1387231 33.7762118,26.7664623 C32.9887671,26.7631559 32.118212,26.7868266 31.0931211,26.8431102 C31.0546093,27.3553362 31.0065541,27.8812763 30.9481288,28.4210054 C34.1861279,30.1509566 37.4200315,31.8886477 40.6786204,33.5796737 C38.9236083,32.5164092 37.2657964,30.865999 35.9105183,29.3383007" id="Fill-40" fill="#C6FFF2"></path>
                <path d="M6.92564735,35.8371354 C6.82198479,35.8740692 6.72207948,35.9091619 6.62717132,35.9420379 C6.42221326,36.0617815 6.2328478,36.1726204 6.0607657,36.2734274 C5.2645666,36.9460505 7.54048394,37.6107083 7.57080495,37.6200263 C7.60623583,37.466242 7.64486037,37.3066715 7.68724217,37.1415779 C7.43531847,36.7378237 7.17907394,36.3021704 6.92564735,35.8371354" id="Fill-42" fill="#2898D8"></path>
                <path d="M7.99651278,37.8572354 C8.07955131,37.8817022 8.16278637,37.9060644 8.24651278,37.9302174 C8.1949208,37.8477206 8.14303401,37.763969 8.09124549,37.6802174 C8.05920933,37.740025 8.02766451,37.7989962 7.99651278,37.8572354" id="Fill-44" fill="#ED8DEA"></path>
                <path d="M7.5708012,37.6200112 C7.49186135,37.9627853 7.42915283,38.276403 7.37891838,38.5548153 C7.46375711,38.4982311 7.54803225,38.4419099 7.63185653,38.3857766 C7.71722127,38.2352235 7.84308919,38.0133954 7.99649776,37.7438127 C7.85094184,37.7035725 7.70861717,37.6622427 7.5708012,37.6200112" id="Fill-46" fill="#249DD0"></path>
                <path d="M8.07080871,37.6802249 C7.94761854,37.5075041 7.82276088,37.3280202 7.6968458,37.1415854 C7.65096976,37.306679 7.60912008,37.4662495 7.57080871,37.6199962 C7.71998717,37.6622277 7.87404606,37.7035575 8.03160259,37.7438352 C8.04449506,37.7229073 8.05755021,37.7017164 8.07080871,37.6802249" id="Fill-48" fill="#40BDE2"></path>
                <path d="M28.3279458,38.3401448 C21.6265877,39.592136 15.11715,39.5481762 8.48308433,37.8723294 C8.461668,37.866919 8.44036438,37.8614334 8.41898562,37.8559854 C8.35766728,37.897503 8.2958605,37.9392461 8.233941,37.9810267 C13.0071153,45.0086269 21.8895577,48.558027 30.0470385,45.3696236 C29.8883698,44.8821203 29.7780945,44.3543016 29.6988165,43.8415496 C29.1287663,41.5404586 28.6595608,39.6629226 28.3279458,38.3401448" id="Fill-50" fill="#204B9C"></path>
                <path d="M8.09210101,37.7700646 C8.06008923,37.7613853 8.02826531,37.7526309 7.99651654,37.743839 C7.84310798,38.0133842 7.71720249,38.2352123 7.63183774,38.3858029 C7.89465746,38.2098133 8.15706388,38.0332225 8.41898187,37.8559929 C8.30893198,37.8278887 8.19974626,37.7992584 8.09210101,37.7700646" id="Fill-52" fill="#6FF0FE"></path>
                <path d="M21.123721,27.8699992 C21.1492038,27.9204992 21.1745525,27.9707492 21.2001695,28.0212492 C21.2582435,27.9497492 21.3164517,27.8782492 21.373721,27.8069992 C21.2902982,27.8282492 21.2072779,27.8487492 21.123721,27.8699992" id="Fill-54" fill="#ED8DEA"></path>
                <path d="M31.2164341,23.9464236 C31.2199659,23.5309092 31.2169977,23.1266665 31.2082433,22.7332447 C30.7631969,22.6801548 30.3341564,22.6374724 29.9224368,22.6036571 C30.3084192,22.9945616 30.7390753,23.440134 31.2164341,23.9464236" id="Fill-56" fill="#F7FFFF"></path>
                <path d="M21.1451373,27.8392138 C21.3001615,28.0039317 21.4571019,28.1708288 21.61547,28.3393415 C21.9155992,28.0933919 22.2023527,27.8596157 22.4816291,27.6398165 C22.0565337,27.6925683 21.6273429,27.7482132 21.1937561,27.8070142 C21.1776751,27.8176848 21.1614062,27.8284681 21.1451373,27.8392138" id="Fill-58" fill="#FDFDFF"></path>
                <path d="M43.9665871,14.9938558 C43.0992633,13.6518033 40.6803074,10.0050529 35.9571045,7.40946859 C32.8215656,7.79552615 30.8187253,9.92062742 29.1219131,12.4174711 C30.6454033,15.5643569 31.1314789,19.280128 31.2082395,22.7332297 C34.4581491,23.1206399 46.2932649,27.201428 46.7142649,21.3238096 C46.1874983,18.4719433 44.9514754,16.5178345 43.9665871,14.9938558" id="Fill-60" fill="#AF4473"></path>
                <path d="M30.1354166,15.1291582 C29.7766742,13.8882133 29.3988075,12.9894037 29.1218981,12.4174749 C27.76275,14.4174597 26.746902,16.6074487 25.5582205,18.7073012 C27.0973408,19.9164222 28.5471889,21.210908 29.9224556,22.6036834 C30.3341376,22.6374611 30.7631781,22.6801811 31.2082245,22.7332335 C31.1351835,19.4472543 30.6555329,16.9283931 30.1354166,15.1291582" id="Fill-62" fill="#C376C1"></path>
                <path d="M15.3799322,8.08293708 C16.0288846,7.57319081 17.8327033,6.23489551 20.3987932,5.38147347 C16.1442322,4.22337594 6.77019108,7.26295458 8.8790986,13.2472788 C11.5543366,10.127295 14.526435,8.52324934 15.3799322,8.08293708" id="Fill-64" fill="#4B0E62"></path>
                <path d="M29.5011963,41.9431646 C29.5384683,42.448064 29.588853,43.1302681 29.6988277,43.8415533 C29.6990532,43.8424926 29.6992786,43.8434319 29.6995416,43.8444088 C29.6992786,43.8434319 29.6990532,43.8424926 29.6988277,43.8415533 C29.7781057,44.3543054 29.8883811,44.882124 30.0470498,45.3696274 C31.0828488,44.9647836 32.0842314,44.4550373 33.0208014,43.8557933 C32.399352,41.4689995 31.1275977,39.4415867 29.6930792,37.464446 C29.5324942,38.9459302 29.391184,40.4528133 29.5011963,41.9431646" id="Fill-66" fill="#BE489E"></path>
                <path d="M28.7074207,11.6556997 C27.0865801,9.20567136 24.0334753,6.37082534 20.3987857,5.38146596 C15.6773111,6.95173395 11.7615415,10.7375402 10.029073,15.4090434 C10.2054008,15.6701348 10.3984859,15.9398302 10.6069382,16.2184304 C15.6614931,14.0731527 21.3561333,15.4061879 25.5582054,18.7073088 C26.7475633,16.6062915 27.761683,14.4190453 29.1219206,12.4174448 C28.8742426,11.9058951 28.7074207,11.6556997 28.7074207,11.6556997" id="Fill-68" fill="#BA2392"></path>
                <path d="M30.0470423,45.3696349 C31.2784813,49.1532996 33.8361174,46.9874697 33.0207939,43.8558008 C32.0842239,44.4550448 31.0828413,44.9647911 30.0470423,45.3696349" id="Fill-70" fill="#7C2765"></path>
                <path d="M21.6154738,28.3393453 C23.5816809,30.4314579 25.7727219,32.7808295 27.3654207,34.5538763 C26.7273267,32.1395419 26.0611661,29.7358029 25.498405,27.3020434 C24.5111497,27.4013851 23.5077006,27.5125622 22.4816329,27.6398203 C22.2023564,27.8596195 21.915603,28.0933956 21.6154738,28.3393453" id="Fill-72" fill="#F2CAF3"></path>
                <path d="M10.5119624,14.2535985 C12.2085116,10.6209377 14.9866607,8.39183573 15.3799322,8.08295211 C14.526435,8.52326437 11.5543366,10.1272725 8.8790986,13.2472939 C9.11227361,13.9089834 9.49686584,14.6212079 10.0290429,15.4090659 C10.1718184,15.0241731 10.3321404,14.6386791 10.5119624,14.2535985" id="Fill-74" fill="#52166E"></path>
                <path d="M28.2308021,27.049387 C29.5825483,27.6913885 30.577243,28.2228517 30.9481589,28.4210092 C31.0065841,27.88128 31.0546018,27.35534 31.0931136,26.8431139 C30.2552842,26.8890651 29.3143182,26.9568084 28.2308021,27.049387" id="Fill-76" fill="#F2FFFC"></path>
                <path d="M25.49842,27.3020472 C26.0612187,29.7359569 26.7273418,32.1395456 27.3653982,34.5538801 C27.5659602,34.7770984 28.5193627,35.8467878 29.6930529,37.4644347 C29.7418595,37.0143536 29.7953628,36.6050387 29.8539008,36.2034637 C28.8173503,33.8062247 26.2378847,27.8455335 25.9820158,27.2542925 C25.8211679,27.2699602 25.6600946,27.2857783 25.49842,27.3020472" id="Fill-78" fill="#F59FE9"></path>
                <path d="M25.9820196,27.2542737 C26.2378884,27.8455148 28.8173541,33.8062435 29.8539045,36.2034449 C30.0506718,34.8536524 30.3042487,33.5895252 30.6259445,31.1443062 C30.6259445,31.1443062 30.7804802,29.9696391 30.9481288,28.4210129 C30.5772505,28.2228555 29.5825183,27.6913923 28.2308096,27.0493908 C27.4875126,27.1129259 26.7389554,27.1805189 25.9820196,27.2542737" id="Fill-80" fill="#B6A4CE"></path>
                <path d="M19.1576679,28.1020937 C19.1577431,28.1020937 19.1578182,28.1020937 19.1578933,28.1020561 C19.8245424,27.9988068 20.4788677,27.904312 21.1237247,27.8164674 C20.8591767,27.5353499 20.6001142,27.2603567 20.3488293,26.9938173 C20.2224353,27.0448783 20.0914951,27.0973671 19.9555578,27.1512085 C19.6956687,27.4740691 19.4326611,27.7893777 19.1576679,28.1020937" id="Fill-82" fill="#FEFFFD"></path>
                <path d="M10.6953012,29.168488 C10.195399,27.9983297 9.69545911,26.5216548 9.39104662,24.7763365 C8.80048188,21.3906774 9.21362922,18.5309584 9.64124198,16.7077147 C7.85763727,17.6378974 6.33061524,18.9689036 4.97537473,20.4409946 C4.12815216,23.3100692 4.05353315,26.0202496 4.41351539,28.4675728 C4.64898232,28.6107992 4.99273323,28.7973091 5.42996455,28.9577438 C5.99302622,29.164355 6.64968101,29.2588874 7.64366181,29.3006305 C8.52146841,29.353758 9.48956175,29.2650118 10.6953012,29.168488" id="Fill-84" fill="#255AB2"></path>
                <path d="M41.8628496,28.1616837 C40.0184525,27.4130138 38.0583697,27.0150458 36.0798013,26.8606227 C36.0798013,26.8606227 36.0798388,26.8606227 36.0798388,26.8606227 C36.0798388,26.8606227 36.0798013,26.8606227 36.0798013,26.8606227 C35.3483772,26.8035125 34.6086496,26.7699227 33.7762306,26.766466 C35.877323,29.1895549 37.8875275,31.888689 40.6786016,33.5796775 C41.0841968,33.7901587 41.4491762,33.9788478 41.7683923,34.1434154 C47.5621112,36.6670859 45.9643777,29.8265968 41.8628496,28.1616837" id="Fill-88" fill="#1EA07D"></path>
                <path d="M17.8562049,24.3521804 C17.6927269,24.178633 17.5466826,24.0233833 17.4213031,23.8896252 C17.314522,24.0242475 16.9915112,24.4436319 16.5238837,25.0570783 C16.94819,24.8076344 17.3918463,24.5715287 17.8562049,24.3521804" id="Fill-90" fill="#8493DB"></path>
                <path d="M20.455569,27.0870928 C20.3936124,27.0041415 20.3321813,26.9217332 20.2709412,26.8398076 C20.1659923,27.0078819 20.0609479,27.1745083 19.955569,27.3398076 C20.1283502,27.2533573 20.2948735,27.1690788 20.455569,27.0870928" id="Fill-92" fill="#D5FEFD"></path>
                <path d="M15.5996262,28.6533162 C16.8539845,28.4761618 17.997053,28.2818368 19.1576679,28.1020899 C19.4326611,27.7893739 19.6956687,27.4740654 19.9555578,27.1512048 C18.5269757,27.7172347 17.0734831,28.2183017 15.5996262,28.6533162" id="Fill-94" fill="#D5FEFD"></path>
                <path d="M17.8562049,24.3521804 C17.3918463,24.5715287 16.94819,24.8076344 16.5238837,25.0570783 C15.8103065,25.9931223 14.7598167,27.3813515 13.625465,28.9014977 C14.321909,28.8256764 14.974506,28.7416267 15.5996374,28.6533313 C17.0734568,28.2183167 18.526987,27.7172497 19.955569,27.1512198 C20.038454,27.0482336 20.121076,26.9444583 20.2036603,26.8397813 C19.2666395,25.846101 18.4457552,24.9779882 17.8562049,24.3521804" id="Fill-96" fill="#84C4EC"></path>
                <path d="M4.95200087,20.4184774 C3.12650281,22.4014043 1.4798499,26.5034209 4.39014153,28.4450556 C4.03015929,25.99777 4.1047783,23.2875896 4.95200087,20.4184774" id="Fill-98" fill="#1D2488"></path>
                <path d="M31.1509377,25.9583527 C31.8443008,26.052284 32.5862077,26.1672934 33.3753055,26.3084909 C33.0845319,25.9793557 32.7515643,25.6083272 32.3657322,25.1857867 C32.2092802,25.1957058 31.7899334,25.2218563 31.1841142,25.2660416 C31.1750217,25.4937686 31.1639754,25.7245765 31.1509377,25.9583527" id="Fill-100" fill="#9FF4E9"></path>
                <path d="M16.5238762,25.0570896 C16.9915412,24.4436432 17.3145145,24.0242588 17.4212956,23.8896365 C14.383558,20.6497588 12.0909961,18.2013836 10.606957,16.2184191 C10.2600124,16.3656658 9.93016332,16.5223808 9.6178606,16.68522 C7.98499681,22.6185584 10.2555413,28.1370962 10.69529,29.1684993 C10.9832081,29.1421234 11.4677808,29.096097 11.8451215,29.0669408 C13.036095,27.6381333 14.572172,26.2044038 16.5238762,25.0570896" id="Fill-102" fill="#5B4AB7"></path>
                <path d="M31.1509377,25.9583527 C31.1347439,26.2487131 31.1156571,26.5434318 31.0931136,26.8431102 C32.1182044,26.7868266 32.9887595,26.7631559 33.7762043,26.7664623 C33.6521022,26.623311 33.5188701,26.4710672 33.3753055,26.3084909 C32.5862077,26.1672934 31.8443008,26.052284 31.1509377,25.9583527" id="Fill-104" fill="#C4FDF0"></path>
                <path d="M16.5238762,25.0570896 C14.572172,26.2044038 13.036095,27.6381333 11.8451215,29.0669408 C12.4726201,29.0185098 13.0633727,28.9627146 13.6254574,28.901509 C14.7598091,27.3813627 15.810299,25.9931336 16.5238762,25.0570896" id="Fill-106" fill="#50AAE0"></path>
                <path d="M21.2321064,25.5047097 C21.9447067,24.5688536 22.5574768,23.6854111 23.1189228,22.8166595 C21.6808725,23.0353315 19.8652936,23.4031288 17.8562162,24.3521729 C18.4457289,24.9779806 19.2666132,25.8460935 20.203634,26.8398113 C20.5397202,26.4138893 20.8758063,25.9726002 21.2321064,25.5047097" id="Fill-108" fill="#F0F4FA"></path>
                <path d="M17.4212843,23.8896252 C17.5467014,24.0233833 17.6927082,24.178633 17.8561862,24.3521804 C19.8653011,23.4031363 21.68088,23.035339 23.1189303,22.8166294 C23.9927542,21.4646201 24.7420253,20.1483799 25.5473545,18.7265233 C25.5510366,18.7200233 25.5545684,18.7137863 25.5582129,18.7072862 C25.2089013,18.4328942 24.87274,18.1820225 24.5321076,17.9474197 C21.4125371,19.885485 18.8119557,22.1358155 17.4212843,23.8896252" id="Fill-110" fill="#9254C9"></path>
                <path d="M24.5321039,17.9474272 C20.4941109,15.1662348 15.1938693,14.2716333 10.606942,16.2184154 C12.090981,18.2013799 14.3835806,20.649755 17.4212806,23.8896327 C18.811952,22.135823 21.4125334,19.8854926 24.5321039,17.9474272" id="Fill-112" fill="#854DB8"></path>
                <path d="M24.5878465,25.6365253 C24.5788666,25.6374271 24.5701498,25.6385918 24.5612451,25.6396063 C24.5159327,25.645693 24.4707705,25.6520804 24.4256459,25.6587307 C24.4256084,25.6587307 24.4255708,25.6587307 24.4255332,25.6587307 C23.4203182,25.8305122 23.0345988,26.5810983 21.1937336,27.8070142 C21.627358,27.7482132 22.0565112,27.6925683 22.4816442,27.6398165 C23.5251455,26.8186693 24.4666,26.1942517 25.6273652,25.8719547 C25.1553417,25.6921702 24.8232383,25.6122159 24.5878465,25.6365253" id="Fill-114" fill="#FFFFFF"></path>
                <path d="M22.4816291,27.6398315 C23.5076969,27.5125359 24.5111459,27.4013964 25.4984013,27.3020547 C25.4974619,27.2979217 25.4964851,27.293676 25.4955458,27.2895806 C25.4964851,27.293676 25.4974619,27.2979217 25.4984013,27.3020547 C25.6600758,27.2857858 25.8211491,27.2699302 25.9820346,27.2542624 C25.9802687,27.2502422 25.9782398,27.245508 25.9766993,27.2420138 C25.9782398,27.245508 25.9802687,27.2502422 25.9820346,27.2542624 C26.7389705,27.1805076 27.4875276,27.1129146 28.230787,27.0493795 C27.0709236,26.4985289 26.2336953,26.1028904 25.6273501,25.8719321 C24.4666225,26.1942667 23.5251305,26.8186843 22.4816291,27.6398315" id="Fill-116" fill="#FEFEFE"></path>
                <path d="M31.1841142,25.2660303 C31.7899334,25.221845 32.2092802,25.1956946 32.3657322,25.1857754 C31.9558912,24.7368966 31.5732152,24.3248389 31.2164266,23.9464085 C31.2127821,24.3744722 31.202149,24.8143711 31.1841142,25.2660303" id="Fill-118" fill="#FEFEFE"></path>
                <path d="M29.9224368,22.6036647 C28.5487106,21.2124673 27.0955186,19.9150133 25.5582017,18.7072825 C25.5545571,18.7137825 25.5510253,18.7200195 25.5473808,18.7265196 C24.742014,20.1483761 23.992743,21.464654 23.1189566,22.8166257 C25.3768392,22.473288 27.6426495,22.4165535 29.9224368,22.6036647" id="Fill-120" fill="#BBD2ED"></path>
                <path d="M31.1841142,25.2660303 C31.202149,24.8143711 31.2127821,24.3744722 31.2164266,23.9464085 C30.7390678,23.4401189 30.3084117,22.9945465 29.9224293,22.6036797 C27.6463617,22.4168692 25.3751785,22.4735285 23.1189491,22.8166407 C22.2203273,24.2070491 21.2287512,25.5406854 20.2036228,26.8397925 C20.2517532,26.8908536 20.300109,26.9421401 20.3488405,26.9938023 C22.029459,26.3148294 22.9224824,25.8805663 24.4255332,25.6587382 C24.4695306,25.6512237 24.5147304,25.6448739 24.5612451,25.6395762 C25.2357093,25.5487635 25.9552605,25.5206216 27.3534839,25.5957291 L27.3535215,25.5957291 C28.6276054,25.4670057 29.9066488,25.3591726 31.1841142,25.2660303" id="Fill-122" fill="#EAFEFC"></path>
                <path d="M24.5612564,25.6888092 C24.5701235,25.687221 24.5788779,25.6854563 24.5878577,25.6839857 C24.8232495,25.6459274 25.155353,25.7711022 25.6273389,26.0525692 C26.193782,25.8242192 26.7691675,25.6800446 27.3535328,25.620163 L27.3534952,25.620163 C25.9552342,25.5025763 25.2357206,25.5466345 24.5612564,25.6888092" id="Fill-124" fill="#F4FDFC"></path>
                <path d="M29.2193762,25.4243008 C28.5359322,25.4845671 27.8885202,25.5416773 27.3535253,25.5957066 C28.376249,25.6506376 29.6492809,25.7549389 31.1509415,25.9583564 C31.1639791,25.7245803 31.1750254,25.4937723 31.184118,25.2660453 C30.6547213,25.3046323 29.9829624,25.3569708 29.2193762,25.4243008" id="Fill-126" fill="#C6EEEE"></path>
                <path d="M27.3535177,25.5957253 C26.7691525,25.6340117 26.193767,25.7260644 25.6273614,25.8719584 C26.2337066,26.1028791 27.0709349,26.4985177 28.2307983,27.0493683 C29.3143144,26.9567896 30.2552804,26.8890839 31.0931474,26.8430952 C31.1156534,26.5434168 31.1347402,26.248698 31.1509339,25.9583377 C29.6492734,25.7549201 28.3762415,25.6506188 27.3535177,25.5957253" id="Fill-128" fill="#EDFFFA"></path>
                <path d="M21.1937449,27.8069992 C23.0346101,26.5810833 23.4202919,25.8304972 24.4255445,25.6587532 C22.9224937,25.8805813 22.0294327,26.3148444 20.3488518,26.9938173 C20.6000992,27.2603567 20.8591617,27.5353499 21.1237097,27.8164674 C21.1471174,27.8132738 21.1703748,27.8101553 21.1937449,27.8069992" id="Fill-130" fill="#FFFFFF"></path>
                <path d="M29.8539045,36.2034486 C29.8002886,36.6237723 29.7466726,37.0441336 29.6930566,37.4644573 C30.5412185,38.6025662 31.3143856,39.8117624 31.9919307,41.0598461 C31.3447442,39.415147 30.6299272,37.7914133 29.8539045,36.2034486" id="Fill-134" fill="#FB9FF0"></path>
                <path d="M42.8203963,34.5246261 C41.8211929,36.1677848 40.2635493,38.3222678 37.9256373,40.4088572 C36.1659287,41.9794258 34.4418764,43.0852224 33.0207713,43.855797 C32.3381539,41.8647169 31.5612671,39.9059492 30.6935675,37.9882106 C31.9610762,37.8659121 33.8637106,37.5338462 35.9740083,36.5656026 C38.0941125,35.5928878 39.5915274,34.3599834 40.5117157,33.4758646 C41.2812759,33.8254768 42.0508361,34.1750515 42.8203963,34.5246261" id="Fill-136" fill="#2E3762"></path>
                <path d="M30.9481401,28.4210204 C30.6657826,31.0254342 30.3006905,33.6221081 29.8539158,36.2034524 C30.1423975,36.7943177 30.4223128,37.3892409 30.6935863,37.9882219 C34.3548397,37.6422542 37.8665921,36.0329859 40.511697,33.4758759 C37.3238572,31.7909366 34.1359798,30.1059597 30.9481401,28.4210204" id="Fill-138" fill="#252C4F"></path>
            </g>
        </g>
    </g>
</svg>