<?xml version="1.0" encoding="UTF-8"?>
<svg width="58px" height="59px" viewBox="0 0 58 59" version="1.1" xmlns="http://www.w3.org/2000/svg" xmlns:xlink="http://www.w3.org/1999/xlink">
    <!-- Generator: Sketch 48.2 (47327) - http://www.bohemiancoding.com/sketch -->
    <title>icon_sm-dnd</title>
    <desc>Created with Sketch.</desc>
    <defs></defs>
    <g id="settings" stroke="none" stroke-width="1" fill="none" fill-rule="evenodd">
        <path d="M13,0.0463363167 L45,0.0463363167 C52.1797017,0.0463363167 58,5.86663457 58,13.0463363 L58,45.0463363 C58,52.2260381 52.1797017,58.0463363 45,58.0463363 L13,58.0463363 C5.82029825,58.0463363 2.29133111e-15,52.2260381 -1.77635684e-15,45.0463363 L-1.77635684e-15,13.0463363 C-2.65561672e-15,5.86663457 5.82029825,0.0463363167 13,0.0463363167 Z M30.5200651,42.824882 C37.2908733,42.824882 43.0515843,38.5565913 45.1905298,32.5975864 C43.0144826,33.9985876 40.4152527,34.8128293 37.6233307,34.8128293 C29.9640908,34.8128293 23.7550497,28.6848358 23.7550497,21.1255726 C23.7550497,17.8792122 24.9001912,14.8968226 26.8135502,12.5504073 C20.0097723,14.1913667 14.9605303,20.2479472 14.9605303,27.4684477 C14.9605303,35.9495722 21.9267712,42.824882 30.5200651,42.824882 Z" id="icon_sm-dnd" fill="#5856D6"></path>
    </g>
</svg>