<?xml version="1.0" encoding="UTF-8"?>
<svg width="32px" height="32px" viewBox="0 0 32 32" version="1.1" xmlns="http://www.w3.org/2000/svg" xmlns:xlink="http://www.w3.org/1999/xlink">
    <!-- Generator: Sketch 48.2 (47327) - http://www.bohemiancoding.com/sketch -->
    <title>icon_close</title>
    <desc>Created with Sketch.</desc>
    <defs></defs>
    <g id="search" stroke="none" stroke-width="1" fill="none" fill-rule="evenodd">
        <g transform="translate(-1169.000000, -20.000000)" fill="#FFFFFF" id="icon_close">
            <path d="M1182.87868,36 L1178.43934,40.4393398 C1177.85355,41.0251263 1177.85355,41.9748737 1178.43934,42.5606602 C1179.02513,43.1464466 1179.97487,43.1464466 1180.56066,42.5606602 L1185,38.1213203 L1189.43934,42.5606602 C1190.02513,43.1464466 1190.97487,43.1464466 1191.56066,42.5606602 C1192.14645,41.9748737 1192.14645,41.0251263 1191.56066,40.4393398 L1187.12132,36 L1191.56066,31.5606602 C1192.14645,30.9748737 1192.14645,30.0251263 1191.56066,29.4393398 C1190.97487,28.8535534 1190.02513,28.8535534 1189.43934,29.4393398 L1185,33.8786797 L1180.56066,29.4393398 C1179.97487,28.8535534 1179.02513,28.8535534 1178.43934,29.4393398 C1177.85355,30.0251263 1177.85355,30.9748737 1178.43934,31.5606602 L1182.87868,36 Z M1185,52 C1176.16344,52 1169,44.836556 1169,36 C1169,27.163444 1176.16344,20 1185,20 C1193.83656,20 1201,27.163444 1201,36 C1201,44.836556 1193.83656,52 1185,52 Z"></path>
        </g>
    </g>
</svg>