<?xml version="1.0" encoding="UTF-8"?>
<svg width="167px" height="167px" viewBox="0 0 167 167" version="1.1" xmlns="http://www.w3.org/2000/svg" xmlns:xlink="http://www.w3.org/1999/xlink">
    <!-- Generator: Sketch 48.2 (47327) - http://www.bohemiancoding.com/sketch -->
    <title>icon_calendar</title>
    <desc>Created with Sketch.</desc>
    <defs></defs>
    <g id="icon_calendar" stroke="none" stroke-width="1" fill="none" fill-rule="evenodd">
        <g>
            <rect id="bg" fill="#FFFFFF" x="0" y="0" width="167" height="167" rx="36"></rect>
            <path d="M67.2035228,30.6630275 L62.7674705,45.8661972 L59.7239653,45.8661972 L54.1394204,25.1502634 L57.4844049,25.1502634 L61.2887864,41.0138163 L61.4897726,41.0138163 L65.8109757,25.1502634 L68.7970562,25.1502634 L73.1469716,41.0138163 L73.3479578,41.0138163 L77.1379831,25.1502634 L80.4829676,25.1502634 L74.8840665,45.8661972 L71.8549175,45.8661972 L67.404509,30.6630275 L67.2035228,30.6630275 Z M88.0580797,32.5580401 C85.7754508,32.5580401 84.1819174,34.1659297 84.0096436,36.6064763 L91.9055296,36.6064763 C91.8337488,34.1515735 90.3407086,32.5580401 88.0580797,32.5580401 Z M91.8911735,41.6454872 L94.8628978,41.6454872 C94.1594462,44.4449377 91.661475,46.1676765 88.086792,46.1676765 C83.6076712,46.1676765 80.8656453,43.095459 80.8656453,38.0995165 C80.8656453,33.1035741 83.6650958,29.9308635 88.0724358,29.9308635 C92.4223512,29.9308635 95.0495279,32.9025879 95.0495279,37.8123934 L95.0495279,38.8891051 L84.0096436,38.8891051 L84.0096436,39.061379 C84.1101366,41.8034049 85.70367,43.5404998 88.1729289,43.5404998 C90.0392293,43.5404998 91.3169272,42.8657605 91.8911735,41.6454872 Z M103.643927,46.124608 C99.6672718,46.124608 97.1549444,42.9949659 97.1549444,38.0420919 C97.1549444,33.1035741 99.6959841,29.973932 103.643927,29.973932 C105.782994,29.973932 107.59187,30.9932191 108.438883,32.7159579 L108.668582,32.7159579 L108.668582,24.1309763 L111.755156,24.1309763 L111.755156,45.8661972 L108.797787,45.8661972 L108.797787,43.3969383 L108.553733,43.3969383 C107.620582,45.1053209 105.797351,46.124608 103.643927,46.124608 Z M104.519653,32.7446702 C101.921188,32.7446702 100.342011,34.7545321 100.342011,38.0420919 C100.342011,41.3583641 101.906832,43.3538698 104.519653,43.3538698 C107.118117,43.3538698 108.726006,41.3296517 108.726006,38.0564481 C108.726006,34.7976005 107.103761,32.7446702 104.519653,32.7446702 Z" id="Wed" fill="#FF3D32"></path>
            <path d="M52.7749539,135.246479 L52.7749539,68.5764882 L52.1030858,68.5764882 C50.2425279,69.6101315 35.2030184,80.3083393 32.6705924,81.9621685 L32.6705924,74.4682548 C34.2727395,73.4346116 49.7257063,62.477993 52.7749539,60.6691172 L59.8037281,60.6691172 L59.8037281,135.246479 L52.7749539,135.246479 Z M107.14459,136.796944 C90.5546153,136.796944 80.7866864,122.37762 80.7866864,97.931957 C80.7866864,73.6413402 90.6579796,59.1186523 107.14459,59.1186523 C123.527835,59.1186523 133.347446,73.6930224 133.347446,98.0353213 C133.347446,122.429302 123.6312,136.796944 107.14459,136.796944 Z M107.14459,130.595084 C119.238216,130.595084 126.26699,118.604822 126.26699,97.931957 C126.26699,77.362456 119.186534,65.3721941 107.14459,65.3721941 C95.0509635,65.3721941 87.918825,77.4658203 87.918825,97.931957 C87.918825,118.604822 94.9992813,130.595084 107.14459,130.595084 Z" id="10" fill="#000000"></path>
        </g>
    </g>
</svg>