<?xml version="1.0" encoding="UTF-8"?>
<svg width="58px" height="58px" viewBox="0 0 58 58" version="1.1" xmlns="http://www.w3.org/2000/svg" xmlns:xlink="http://www.w3.org/1999/xlink">
    <!-- Generator: Sketch 48.2 (47327) - http://www.bohemiancoding.com/sketch -->
    <title>icon_sm-sounds</title>
    <desc>Created with Sketch.</desc>
    <defs></defs>
    <g id="settings" stroke="none" stroke-width="1" fill="none" fill-rule="evenodd">
        <path d="M13,0 L45,-1.77635684e-15 C52.1797017,-3.09524665e-15 58,5.82029825 58,13 L58,45 C58,52.1797017 52.1797017,58 45,58 L13,58 C5.82029825,58 2.29133111e-15,52.1797017 -1.77635684e-15,45 L-1.77635684e-15,13 C-2.65561672e-15,5.82029825 5.82029825,-4.57467025e-16 13,-1.77635684e-15 Z M19,24.5 L27,17.5 L27,40.5 L19,34.5 L12,34.5 L12,24.5 L19,24.5 Z M31.9599371,23.6933752 C31.5769966,23.1189644 31.7322139,22.3428777 32.3066248,21.9599371 C32.8810356,21.5769966 33.6571223,21.7322139 34.0400629,22.3066248 C35.5042662,24.5029297 36.25,26.7401312 36.25,29 C36.25,31.2598688 35.5042662,33.4970703 34.0400629,35.6933752 C33.6571223,36.2677861 32.8810356,36.4230034 32.3066248,36.0400629 C31.7322139,35.6571223 31.5769966,34.8810356 31.9599371,34.3066248 C33.1624005,32.5029297 33.75,30.7401312 33.75,29 C33.75,27.2598688 33.1624005,25.4970703 31.9599371,23.6933752 Z M36.0351273,19.7946827 C35.5962361,19.2617982 35.6724328,18.4740184 36.2053173,18.0351273 C36.7382018,17.5962361 37.5259816,17.6724328 37.9648727,18.2053173 C40.8835312,21.7490384 42.3680702,25.353977 42.3680702,29 C42.3680702,32.646023 40.8835312,36.2509616 37.9648727,39.7946827 C37.5259816,40.3275672 36.7382018,40.4037639 36.2053173,39.9648727 C35.6724328,39.5259816 35.5962361,38.7382018 36.0351273,38.2053173 C38.6072291,35.0823717 39.8680702,32.0206437 39.8680702,29 C39.8680702,25.9793563 38.6072291,22.9176283 36.0351273,19.7946827 Z M40.9792743,15.7215393 C40.5807791,15.157808 40.7147294,14.3777694 41.2784607,13.9792743 C41.842192,13.5807791 42.6222306,13.7147294 43.0207257,14.2784607 C46.4615356,19.1460031 48.1982196,24.059604 48.1982196,29 C48.1982196,33.940396 46.4615356,38.8539969 43.0207257,43.7215393 C42.6222306,44.2852706 41.842192,44.4192209 41.2784607,44.0207257 C40.7147294,43.6222306 40.5807791,42.842192 40.9792743,42.2784607 C44.1360906,37.8126698 45.6982196,33.3929374 45.6982196,29 C45.6982196,24.6070626 44.1360906,20.1873302 40.9792743,15.7215393 Z" id="icon_sm-sounds" fill="#FF2D55"></path>
    </g>
</svg>