<?xml version="1.0" encoding="UTF-8"?>
<svg width="58px" height="59px" viewBox="0 0 58 59" version="1.1" xmlns="http://www.w3.org/2000/svg" xmlns:xlink="http://www.w3.org/1999/xlink">
    <!-- Generator: Sketch 48.2 (47327) - http://www.bohemiancoding.com/sketch -->
    <title>icon_sm-settings</title>
    <desc>Created with Sketch.</desc>
    <defs></defs>
    <g id="settings" stroke="none" stroke-width="1" fill="none" fill-rule="evenodd">
        <path d="M13,0.67911534 L45,0.67911534 C52.1797017,0.67911534 58,6.49941359 58,13.6791153 L58,45.6791153 C58,52.8588171 52.1797017,58.6791153 45,58.6791153 L13,58.6791153 C5.82029825,58.6791153 2.29133111e-15,52.8588171 -1.77635684e-15,45.6791153 L-1.77635684e-15,13.6791153 C-2.65561672e-15,6.49941359 5.82029825,0.67911534 13,0.67911534 Z M21.532101,46.0616836 C22.1004033,46.3211597 22.9864462,46.6437106 24.1902298,47.0293365 L24.1691351,51.1470474 C24.8344987,51.2961239 25.5112498,51.4150593 26.1978798,51.5023451 L27.5868586,47.6244601 C28.0531471,47.6606715 28.5244196,47.6791153 29,47.6791153 C29.4755804,47.6791153 29.9468529,47.6606715 30.4131414,47.6244601 L31.8021202,51.5023451 C32.4887502,51.4150593 33.1655013,51.2961239 33.8308649,51.1470474 L33.8097702,47.0293365 C34.7273175,46.7755337 35.6154455,46.4508977 36.467899,46.0616836 L39.0985473,49.2295856 C39.7100901,48.9130596 40.3048868,48.5686824 40.8812586,48.1981328 L39.452697,44.3348861 C40.2212666,43.7857499 40.9448273,43.1776626 41.6167738,42.5172294 L45.1722346,44.5943335 C45.6379166,44.0896577 46.080274,43.5631346 46.4975955,43.0164754 L43.835073,39.8762166 C44.3682724,39.1019796 44.8424303,38.2839341 45.2510469,37.4285801 L49.303892,38.1646333 C49.5677122,37.5341121 49.8030186,36.8886955 50.008199,36.2299956 L46.4304407,34.1887419 C46.6633647,33.2858502 46.8279861,32.355509 46.9184662,31.4035572 L50.9762988,30.7094667 C50.9920418,30.3679906 51,30.0244823 51,29.6791153 C51,29.3337483 50.9920418,28.9902401 50.9762988,28.648764 L46.9184662,27.9546735 C46.8279861,27.0027217 46.6633647,26.0723805 46.4304407,25.1694887 L50.008199,23.1282351 C49.8030186,22.4695352 49.5677122,21.8241186 49.303892,21.1935974 L45.2510469,21.9296506 C44.8424303,21.0742966 44.3682724,20.2562511 43.835073,19.4820141 L46.4975955,16.3417553 C46.080274,15.7950961 45.6379166,15.268573 45.1722346,14.7638971 L41.6167738,16.8410013 C40.9448273,16.1805681 40.2212666,15.5724808 39.452697,15.0233446 L40.8812586,11.1600979 C40.3048868,10.7895483 39.7100901,10.4451711 39.0985473,10.1286451 L36.467899,13.2965471 C35.6154455,12.907333 34.7273175,12.582697 33.8097702,12.3288942 L33.8308649,8.21118324 C33.1655013,8.06210674 32.4887502,7.94317136 31.8021202,7.85588561 L30.4131414,11.7337706 C29.9468529,11.6975592 29.4755804,11.6791153 29,11.6791153 C28.5244196,11.6791153 28.0531471,11.6975592 27.5868586,11.7337706 L26.1978798,7.85588561 C25.5112498,7.94317136 24.8344987,8.06210674 24.1691351,8.21118324 L24.1902298,12.3288942 C23.2726825,12.582697 22.3845545,12.907333 21.532101,13.2965471 L18.9014527,10.1286451 C18.2899099,10.4451711 17.6951132,10.7895483 17.1187414,11.1600979 L18.547303,15.0233446 C17.7787334,15.5724808 17.0551727,16.1805681 16.3832262,16.8410013 L12.8277654,14.7638971 C12.3620834,15.268573 11.919726,15.7950961 11.5024045,16.3417553 L14.164927,19.4820141 C13.6317276,20.2562511 13.1575697,21.0742966 12.7489531,21.9296506 L8.69610799,21.1935974 C8.4322878,21.8241186 8.19698144,22.4695352 7.99180101,23.1282351 L11.5695593,25.1694887 C11.3366353,26.0723805 11.1720139,27.0027217 11.0815338,27.9546735 L7.02370122,28.648764 C7.0079582,28.9902401 7,29.3337483 7,29.6791153 C7,30.0244823 7.0079582,30.3679906 7.02370122,30.7094667 L11.0815338,31.4035572 C11.1720139,32.355509 11.3366353,33.2858502 11.5695593,34.1887419 L7.99180101,36.2299956 C8.19698144,36.8886955 8.4322878,37.5341121 8.69610799,38.1646333 L12.7489531,37.4285801 C13.1575697,38.2839341 13.6317276,39.1019796 14.164927,39.8762166 L11.5024045,43.0164754 C11.919726,43.5631346 12.3620834,44.0896577 12.8277654,44.5943335 L16.3832262,42.5172294 C17.0551727,43.1776626 17.7787334,43.7857499 18.547303,44.3348861 L17.1187414,48.1981328 C17.6951132,48.5686824 18.2899099,48.9130596 18.9014527,49.2295856 L21.532101,46.0616836 Z M26.4055929,32.1798796 L21.1500015,41.2791214 C17.0500005,38.273848 15,34.4071793 15,29.6791153 C15,24.9510514 17.0500005,21.0843827 21.1500015,18.0791092 L26.4055929,27.1783511 C27.2993454,28.7257449 27.2993454,30.6324858 26.4055929,32.1798796 Z M28.1314781,26.1819108 L22.8790993,17.0808142 C27.5317429,15.0327459 31.9053765,15.1907277 36,17.5547597 C40.0946235,19.9187917 42.4182566,23.6274785 42.9708992,28.6808203 L32.4629289,28.6826751 C30.6759704,28.6829905 29.0246843,27.72962 28.1314781,26.1819108 Z M32.4629289,30.6755556 L42.9708992,30.6774104 C42.4182566,35.7307521 40.0946235,39.439439 36,41.803471 C31.9053765,44.167503 27.5317429,44.3254848 22.8790993,42.2774165 L28.1314781,33.1763199 C29.0246843,31.6286107 30.6759704,30.6752402 32.4629289,30.6755556 Z" id="icon_sm-settings" fill="#8E8E93"></path>
    </g>
</svg>