<?xml version="1.0" encoding="UTF-8"?>
<svg width="58px" height="59px" viewBox="0 0 58 59" version="1.1" xmlns="http://www.w3.org/2000/svg" xmlns:xlink="http://www.w3.org/1999/xlink">
    <!-- Generator: Sketch 48.2 (47327) - http://www.bohemiancoding.com/sketch -->
    <title>icon_sm-touch</title>
    <desc>Created with Sketch.</desc>
    <defs></defs>
    <g id="settings" stroke="none" stroke-width="1" fill="none" fill-rule="evenodd">
        <path d="M13,0.126683709 L45,0.126683709 C52.1797017,0.126683709 58,5.94698196 58,13.1266837 L58,45.1266837 C58,52.3063855 52.1797017,58.1266837 45,58.1266837 L13,58.1266837 C5.82029825,58.1266837 2.29133111e-15,52.3063855 -1.77635684e-15,45.1266837 L-1.77635684e-15,13.1266837 C-2.65561672e-15,5.94698196 5.82029825,0.126683709 13,0.126683709 Z M13.1806257,37.0368769 C13.2838727,37.6751314 12.8501635,38.2762372 12.211909,38.3794843 C11.5736545,38.4827313 10.9725487,38.0490221 10.8693016,37.4107676 C10.1446964,32.9313896 9.78115085,29.2628847 9.78115085,26.3949866 C9.78115085,23.2932925 11.2530933,19.9638988 14.1385091,16.3914793 C14.5447613,15.8885003 15.2818389,15.8100878 15.7848179,16.2163401 C16.2877969,16.6225924 16.3662094,17.3596699 15.9599571,17.8626489 C13.3821765,21.0541869 12.1225207,23.9034081 12.1225207,26.3949866 C12.1225207,29.1203609 12.4743938,32.6710798 13.1806257,37.0368769 Z M19.1842931,15.2890535 C18.636899,15.6331298 17.9142195,15.4683081 17.5701432,14.9209141 C17.226067,14.37352 17.3908886,13.6508405 17.9382827,13.3067642 C21.4761694,11.0829497 25.1620823,10.0053974 29.0974524,10.0053974 C33.0068779,10.0053974 36.9184845,11.4592689 40.8158514,14.3310129 C41.3363614,14.7145466 41.4474026,15.4474188 41.0638689,15.9679288 C40.6803353,16.4884388 39.947463,16.5994801 39.426953,16.2159464 C35.909982,13.624494 32.4722886,12.3467673 29.0974524,12.3467673 C25.6060963,12.3467673 22.351532,13.2982176 19.1842931,15.2890535 Z M41.9652582,18.7348442 C41.6160987,18.1906785 41.7741824,17.4664952 42.3183482,17.1173356 C42.8625139,16.7681761 43.5866972,16.9262598 43.9358567,17.4704256 C45.1794368,19.4085472 46.0332287,21.0478277 46.497362,22.407075 C46.9502561,23.7334078 47.5120193,26.211775 48.1987257,29.8871454 C48.3174726,30.5226987 47.8985182,31.1341797 47.2629649,31.2529265 C46.6274116,31.3716733 46.0159306,30.9527189 45.8971838,30.3171657 C45.2306238,26.7496227 44.6867401,24.350136 44.2816069,23.1636743 C43.8877128,22.0101272 43.1155534,20.5275811 41.9652582,18.7348442 Z M25.4118295,17.4743816 C22.5662662,18.2946929 20.4915231,19.5400213 19.0769995,21.1507829 C17.8606035,22.5359306 17.1345402,24.1886078 16.8230472,26.0922631 C16.4701137,28.2491771 16.6488707,30.4943184 17.2085203,33.1772712 C17.2686068,33.465325 17.7038547,35.3845218 17.7658946,35.7691692 C18.1052848,37.8733883 18.2054102,40.6769003 18.0726699,44.1945202 C18.0482891,44.8406118 17.5047638,45.3446079 16.8586722,45.3202271 C16.2125806,45.2958463 15.7085844,44.752321 15.7329653,44.1062294 C15.8603771,40.7298158 15.7653884,38.0701314 15.454398,36.1419912 C15.4062345,35.8433774 14.9905466,34.0104295 14.9164847,33.6553776 C14.3031986,30.7152924 14.103823,28.2111856 14.512406,25.7141754 C15.333677,20.6950684 18.5734133,17.0058808 24.7738629,15.2215788 C28.2583135,14.2823328 31.2900219,14.3071287 33.8982334,15.2028057 C36.1842943,15.9878541 38.0742295,17.4145699 39.6019986,19.3536613 C40.8257461,20.9068794 41.7701365,22.7231387 42.4964278,24.7280054 C42.9897686,26.0898315 43.2783649,27.1816451 43.6064142,28.6812989 C44.0849786,30.8690216 44.3163566,34.7693936 44.3163566,40.4432058 C44.3163566,41.0897573 43.7922231,41.6138908 43.1456716,41.6138908 C42.4991202,41.6138908 41.9749867,41.0897573 41.9749867,40.4432058 C41.9749867,34.9304731 41.7510983,31.1563549 41.3191299,29.1816423 C41.011342,27.7746115 40.7455165,26.7689445 40.2950553,25.5254837 C39.6479953,23.7393286 38.8161592,22.1395346 37.762872,20.8026701 C36.5004389,19.2003511 34.9734449,18.0476204 33.1377815,17.4172415 C30.9948346,16.6813394 28.440312,16.6596896 25.4118295,17.4743816 Z M22.0708339,45.8854468 C22.0285279,46.5306127 21.4712219,47.0193272 20.8260561,46.9770212 C20.1808902,46.9347153 19.6921757,46.3774093 19.7344817,45.7322434 C20.0853056,40.382179 19.965435,34.9880023 19.5886275,33.7633781 C18.5539157,30.4005647 18.3305057,28.4404972 18.8777905,25.7697473 C19.3094564,23.663218 20.5272183,21.9126852 22.478082,20.5560084 C23.0088962,20.1868675 23.738454,20.3179297 24.1075949,20.848744 C24.4767357,21.3795583 24.3456735,22.1091161 23.8148592,22.4782569 C22.3414374,23.5029094 21.4779817,24.744127 21.1714976,26.2397692 C20.7157792,28.463675 20.8970853,30.0543476 21.8264597,33.0748143 C22.3165667,34.6676619 22.440556,40.247184 22.0708339,45.8854468 Z M26.5428574,47.2822124 C26.4295698,47.9187615 25.8217072,48.3429487 25.1851581,48.2296612 C24.5486091,48.1163736 24.1244218,47.5085109 24.2377094,46.8719619 C24.6797855,44.3879898 24.8368462,41.8750181 24.7088628,39.3313489 C24.5459065,36.0925914 24.2846993,34.688923 23.4841851,31.8871236 C23.0396028,30.3310854 22.8748246,28.806887 23.172457,27.417936 C23.6027775,25.4097733 24.9724968,23.9911355 27.2912466,23.4942606 C29.5658305,23.0068498 31.4705562,23.7379167 32.8558033,25.3185192 C33.8249657,26.4243584 34.4848447,27.927416 34.6464398,29.058582 C34.6438188,29.0402344 34.8318061,30.3512195 34.9135885,30.9242924 C35.0612071,31.9586992 35.1982259,32.9274494 35.3275887,33.8546246 C35.3437576,33.9705109 35.3597257,34.0851713 35.3754886,34.1985802 C35.7124199,36.6226804 35.9387823,38.3505502 36.0183564,39.1576581 C36.0817933,39.80109 35.6116145,40.3741203 34.9681827,40.4375573 C34.3247509,40.5009942 33.7517205,40.0308155 33.6882836,39.3873836 C33.6130337,38.6241351 33.3883643,36.9091879 33.0564126,34.5209139 C33.0407062,34.4079126 33.0247943,34.293655 33.008681,34.1781671 C32.8796948,33.2536916 32.7430027,32.287251 32.5957024,31.2550745 C32.5140609,30.6829894 32.3261061,29.372231 32.3286019,29.3897017 C32.2293753,28.6951156 31.7552115,27.6150758 31.094969,26.8617222 C30.2443315,25.891123 29.1824013,25.4835356 27.7818316,25.7836577 C26.3806876,26.0839029 25.7022784,26.786541 25.4618541,27.9085211 C25.2600176,28.8504249 25.3868692,30.0238029 25.7354684,31.2438998 C26.5815582,34.2052141 26.8744739,35.7792768 27.0472747,39.2136929 C27.1841266,41.9336251 27.0159971,44.6236976 26.5428574,47.2822124 Z M33.585078,42.9796899 C33.585078,42.3331384 34.1092115,41.8090049 34.7557629,41.8090049 C35.4023143,41.8090049 35.9264478,42.3331384 35.9264478,42.9796899 C35.9264478,43.7475665 35.8349372,44.662673 35.6247364,46.344279 C35.5445416,46.9858377 34.9594448,47.4409131 34.3178861,47.3607182 C33.6763274,47.2805234 33.2212521,46.6954265 33.3014469,46.0538679 C33.497734,44.4835713 33.585078,43.6101314 33.585078,42.9796899 Z M31.1084944,21.6646766 C29.893158,21.3072247 28.8408202,21.2492219 26.8969685,21.3212164 C26.2508601,21.3451463 25.7076867,20.840771 25.6837567,20.1946625 C25.6598268,19.5485541 26.1642021,19.0053807 26.8103106,18.9814507 C28.9925676,18.9006264 30.2428679,18.9695406 31.7691501,19.4184471 C33.8920096,20.0428176 35.7309817,21.336909 37.2663081,23.4665554 L37.3245499,23.555612 C38.178421,25.0006247 38.8192807,27.0688539 39.2963798,29.6052685 C39.6515407,31.4934198 39.8934597,33.5368859 40.021071,35.3872493 C40.1544884,37.3218014 40.1544884,40.2824992 40.0232164,44.2862944 C40.0020294,44.9324986 39.4610019,45.4391751 38.8147977,45.4179881 C38.1685935,45.3968011 37.6619169,44.8557736 37.683104,44.2095694 C37.8119842,40.2787222 37.8119842,37.3859953 37.6852494,35.5483404 C37.3865719,31.2175173 36.5878257,26.9520321 35.3352051,24.7918417 C34.1129834,23.1128691 32.7208192,22.1388898 31.1084944,21.6646766 Z M30.9433938,47.1130844 C30.8696338,47.7554147 30.2891279,48.216332 29.6467976,48.142572 C29.0044673,48.068812 28.54355,47.4883061 28.61731,46.8459758 C28.6696391,46.3902742 28.6999437,46.0569237 28.7082372,45.8577078 C28.7893255,43.9099152 28.8076592,42.5493774 28.8051298,40.5395161 C28.8048453,40.3134633 28.8047811,40.2498787 28.8047811,40.1505346 C28.8047811,36.9021225 28.7345141,34.6135243 28.6356533,34.1521741 C28.6256978,34.105715 28.615013,34.0584686 28.6034363,34.009643 C28.5718772,33.8765393 28.5351814,33.7370619 28.478977,33.5340784 C28.4679911,33.4944022 28.4564129,33.4528191 28.4407546,33.3967502 C28.4401888,33.394724 28.4090285,33.2832136 28.3996898,33.2497398 C28.3644315,33.1233599 28.3372833,33.0251507 28.3094394,32.9227939 C28.1478855,32.3289046 28.0074159,31.7523667 27.8543927,31.0265652 C27.7804444,30.6758224 27.7121653,30.0271706 27.6373045,29.0180817 C27.5894705,28.3733021 28.0733905,27.8118279 28.71817,27.7639939 C29.3629496,27.7161599 29.9244238,28.2000799 29.9722578,28.8448595 C30.0390475,29.7451535 30.1008445,30.3322247 30.1453978,30.543545 C30.3717092,31.6169585 30.9223808,33.6412851 30.8816443,33.4694751 C30.8970505,33.5344523 30.9114662,33.5981956 30.9250505,33.661589 C31.0758922,34.3655171 31.146151,36.6538476 31.146151,40.1505346 C31.146151,40.2484878 31.1462148,40.3116557 31.1464978,40.5365696 C31.1490657,42.5770343 31.13033,43.9674074 31.0475808,45.9550967 C31.0364072,46.2234923 31.0016738,46.6055603 30.9433938,47.1130844 Z" id="icon_sm-touch" fill="#FF2D55"></path>
    </g>
</svg>