<?xml version="1.0" encoding="UTF-8"?>
<svg width="16px" height="34px" viewBox="0 0 16 34" version="1.1" xmlns="http://www.w3.org/2000/svg" xmlns:xlink="http://www.w3.org/1999/xlink">
    <!-- Generator: Sketch 48.2 (47327) - http://www.bohemiancoding.com/sketch -->
    <title>text_e_wh</title>
    <desc>Created with Sketch.</desc>
    <defs></defs>
    <g id="Symbols" stroke="none" stroke-width="1" fill="none" fill-rule="evenodd">
        <g id="text_e_wh" fill="#F9F9F9">
            <path d="M12.8172973,20.1561027 L15.7751351,20.1561027 C15.2562162,23.2007123 12.2118919,25.442348 8.28540541,25.442348 C3.13081081,25.442348 0,21.9795227 0,16.5092625 C0,11.1059168 3.1827027,7.44234801 8.14702703,7.44234801 C13.0075676,7.44234801 16,10.8549874 16,16.1245041 L16,17.2285934 L3.09621622,17.2285934 L3.09621622,17.3958796 C3.09621622,20.7248759 5.12,22.9163257 8.35459459,22.9163257 C10.6378378,22.9163257 12.3156757,21.7955079 12.8172973,20.1561027 Z M8.09513514,9.96837031 C5.27567568,9.96837031 3.30378378,12.0594484 3.11351351,14.9535004 L12.8864865,14.9535004 C12.8172973,12.0427198 10.9318919,9.96837031 8.09513514,9.96837031 Z"></path>
        </g>
    </g>
</svg>