<?xml version="1.0" encoding="UTF-8"?>
<svg width="2713px" height="26px" viewBox="0 0 2713 26" version="1.1" xmlns="http://www.w3.org/2000/svg" xmlns:xlink="http://www.w3.org/1999/xlink">
    <!-- Generator: Sketch 48.2 (47327) - http://www.bohemiancoding.com/sketch -->
    <title>top2</title>
    <desc>Created with Sketch.</desc>
    <defs></defs>
    <g id="settings" stroke="none" stroke-width="1" fill="none" fill-rule="evenodd">
        <g id="top2" transform="translate(-8.000000, -2.000000)">
            <g id="battery" transform="translate(2565.000000, 0.000000)">
                <g id="battery_icon" transform="translate(103.000000, 3.000000)">
                    <path d="M4.5,2 C3.11928813,2 2,3.11928813 2,4.5 L2,18.5 C2,19.8807119 3.11928813,21 4.5,21 L43.5,21 C44.8807119,21 46,19.8807119 46,18.5 L46,4.5 C46,3.11928813 44.8807119,2 43.5,2 L4.5,2 Z M4.5,0 L43.5,0 C45.9852814,0 48,2.01471863 48,4.5 L48,18.5 C48,20.9852814 45.9852814,23 43.5,23 L4.5,23 C2.01471863,23 0,20.9852814 0,18.5 L0,4.5 C0,2.01471863 2.01471863,0 4.5,0 Z" id="outside" fill="#979797" fill-rule="nonzero"></path>
                    <rect id="inside" fill="#4CD964" x="4" y="4" width="40" height="15" rx="1.5"></rect>
                    <path d="M50,7.5 C52.0012125,8.21547824 53.0018187,9.54881157 53.0018187,11.5 C53.0018187,13.4511884 52.0012125,14.7845218 50,15.5 L50,7.5 Z" id="top" fill="#969696"></path>
                </g>
                <text id="100%" font-family="SFProText-Medium, SF Pro Text" font-size="24" font-weight="400" letter-spacing="-0.370000005" fill="#000000">
                    <tspan x="36.464375" y="23">100%</tspan>
                </text>
            </g>
            <path d="M2594.26516,21.7938537 L2594.26516,15.3138537 L2597.46089,18.7092683 L2594.26516,21.7938537 L2594.26516,21.7938537 L2594.26516,21.7938537 L2594.26516,21.7938537 Z M2597.60759,9.00507317 L2594.26516,12.2854634 L2594.26516,6.07063415 L2597.60759,9.00507317 L2597.60759,9.00507317 L2597.60759,9.00507317 L2597.60759,9.00507317 Z M2595.06805,13.8571707 L2600.02767,9.00507317 L2592.62776,2 L2592.45296,2 L2592.45296,11.7428293 L2587.43009,6.60536585 L2586,8.06292683 L2592.04361,13.8571707 L2586,19.6505366 L2587.43009,21.1080976 L2592.45296,15.9706341 L2592.45296,25.7125854 L2592.77271,25.7125854 L2600.0997,18.6899512 L2595.06805,13.8571707 L2595.06805,13.8571707 Z" id="Bluetooth-Icon" fill="#000000"></path>
            <path d="M2553.51893,14.0691755 L2574.7587,4.20843118 L2565.03058,25.8523794 L2565.03058,14.0691755 L2553.51893,14.0691755 Z M2560,12.8871207 L2566.26358,12.9128711 L2566.26358,19 L2572,7 L2560,12.8871207 Z" id="location-services" fill="#000000"></path>
            <path d="M2538.95062,13 L2542,13 L2538,17.0253049 L2534,13 L2536.93811,13 C2536.44601,9.05368842 2533.07962,6 2529,6 C2524.58172,6 2521,9.581722 2521,14 C2521,18.3883589 2524.48265,22.194442 2529,22.194442 C2531.11392,22.194442 2532.61441,21.6499021 2533.72601,20.727794 C2534.03227,20.4737453 2535.34679,18.800465 2535.96812,18.800465 C2536.52041,18.800465 2536.96812,19.2481803 2536.96812,19.800465 C2536.96812,20.1553935 2536.78322,20.4671343 2536.50448,20.6446096 C2536.41685,20.7550006 2536.23282,20.991994 2536.26696,20.9485371 C2535.87084,21.452763 2535.49645,21.8577188 2535.00292,22.267113 C2533.53343,23.4861039 2531.58158,24.194442 2529,24.194442 C2523.33648,24.194442 2519,19.4552323 2519,14 C2519,8.4771525 2523.47715,4 2529,4 C2534.18535,4 2538.4489,7.94667731 2538.95062,13 Z M2532.11316,13.0063317 C2532.61217,13.0625329 2533,13.4859748 2533,14 L2533,18 C2533,18.5522847 2532.55228,19 2532,19 L2526,19 C2525.44772,19 2525,18.5522847 2525,18 L2525,14 C2525,13.4522188 2525.44044,13.0073086 2525.98651,13.0000891 L2525.98651,10.1485984 L2526.01758,9.97508968 C2526.54557,8.54813242 2527.61942,7.8029323 2529.14616,7.8029323 C2530.68801,7.8029323 2531.71064,8.56800458 2532.0964,10.0202342 L2532.11316,10.1485984 L2532.11316,13.0063317 Z M2526.98651,13 L2531.11316,13 L2531.11316,10.2161979 C2530.83653,9.24959917 2530.21774,8.8029323 2529.14616,8.8029323 C2528.06663,8.8029323 2527.37534,9.26280869 2526.98651,10.241095 L2526.98651,13 Z" id="orientation-lock" fill="#000000" fill-rule="nonzero"></path>
            <path d="M2496.25108,23 C2491.14185,23 2487,18.9122139 2487,13.8696742 C2487,9.57665143 2490.00208,5.97564928 2494.04733,5 C2492.90973,6.39508534 2492.22887,8.16829569 2492.22887,10.0984527 C2492.22887,14.5928902 2495.92052,18.2363518 2500.4744,18.2363518 C2502.13437,18.2363518 2503.67977,17.752236 2504.97356,16.9192563 C2503.70182,20.4622439 2500.27673,23 2496.25108,23 Z" id="sleep-path" fill="#AFAFAF"></path>
            <text id="12:00-PM" font-family="SFProText-Medium, SF Pro Text" font-size="24" font-weight="400" letter-spacing="0.8347826" fill="#000000">
                <tspan x="1304.66926" y="24"> 12:00 PM</tspan>
            </text>
            <path d="M149.292431,9.0833123 C144.712167,9.0833123 140.973402,10.4546589 138.034301,13.524607 L135.5,10.844946 C138.99364,7.23990061 143.882046,5 149.292431,5 C154.613139,5 159.429026,7.16626538 162.91,10.6668179 L160.205883,13.524607 C157.278703,10.5595503 153.783002,9.0833123 149.292431,9.0833123 Z M149.008462,11.8501821 C152.521935,11.8501821 155.547932,13.6578228 158.137624,15.6450043 L155.409478,18.5230799 C153.387568,17.0624595 151.691191,16.2673447 149.008462,16.2673447 C146.23548,16.2673447 144.694291,16.9718843 142.636683,18.5230799 L139.882844,15.6450043 C142.50455,13.5647711 145.404958,11.8501821 149.008462,11.8501821 Z M144.800773,20.7921973 C145.91272,19.6864827 147.413723,18.8712231 149.10385,18.8712231 C150.704331,18.8712231 152.312559,19.7882841 153.406927,20.7921973 L149.001079,25.1599998 L144.800773,20.7921973 Z" id="wifi" fill="#000000"></path>
            <text id="Search" font-family="SFProText-Medium, SF Pro Text" font-size="24" font-weight="400" letter-spacing="-0.270000011" fill="#000000">
                <tspan x="39.3239309" y="24">Searc</tspan>
                <tspan x="104.091118" y="24">h</tspan>
            </text>
            <path d="M13,4 L27,4 C29.7614237,4 32,6.23857625 32,9 L32,23 C32,25.7614237 29.7614237,28 27,28 L13,28 C10.2385763,28 8,25.7614237 8,23 L8,9 C8,6.23857625 10.2385763,4 13,4 Z M18.0493199,16 L23.6213203,10.4279996 L21.5,8.30667923 L14,16 L21.5,23.6933208 L23.6213203,21.5720004 L18.0493199,16 Z" id="Combined-Shape" fill="#000000"></path>
        </g>
    </g>
</svg>