<?xml version="1.0" encoding="UTF-8"?>
<svg width="58px" height="59px" viewBox="0 0 58 59" version="1.1" xmlns="http://www.w3.org/2000/svg" xmlns:xlink="http://www.w3.org/1999/xlink">
    <!-- Generator: Sketch 48.2 (47327) - http://www.bohemiancoding.com/sketch -->
    <title>icon_sm-control-center</title>
    <desc>Created with Sketch.</desc>
    <defs></defs>
    <g id="settings" stroke="none" stroke-width="1" fill="none" fill-rule="evenodd">
        <path d="M13,0.299341138 L45,0.299341138 C52.1797017,0.299341138 58,6.11963939 58,13.2993411 L58,45.2993411 C58,52.4790429 52.1797017,58.2993411 45,58.2993411 L13,58.2993411 C5.82029825,58.2993411 2.29133111e-15,52.4790429 -1.77635684e-15,45.2993411 L-1.77635684e-15,13.2993411 C-2.65561672e-15,6.11963939 5.82029825,0.299341138 13,0.299341138 Z M22,30.994996 C17.0294373,30.994996 13,35.0244332 13,39.994996 L13,40.994996 C13,45.9655587 17.0294373,49.994996 22,49.994996 L36,49.994996 C40.9705627,49.994996 45,45.9655587 45,40.994996 L45,39.994996 C45,35.0244332 40.9705627,30.994996 36,30.994996 L22,30.994996 Z M35.6624574,46.7942427 C39.1414353,46.7942427 41.9617041,43.9739739 41.9617041,40.494996 C41.9617041,37.0160181 39.1414353,34.1957493 35.6624574,34.1957493 C32.1834796,34.1957493 29.3632108,37.0160181 29.3632108,40.494996 C29.3632108,43.9739739 32.1834796,46.7942427 35.6624574,46.7942427 Z M22,8 L36,8 C40.9705627,8 45,12.0294373 45,17 L45,18 C45,22.9705627 40.9705627,27 36,27 L22,27 C17.0294373,27 13,22.9705627 13,18 L13,17 C13,12.0294373 17.0294373,8 22,8 Z M22.1138147,10.1219444 C18.3106796,10.1219444 15.2276295,13.2049945 15.2276295,17.0081296 L15.2276295,17.9918704 C15.2276295,21.7950055 18.3106796,24.8780556 22.1138147,24.8780556 L35.8861853,24.8780556 C39.6893204,24.8780556 42.7723705,21.7950055 42.7723705,17.9918704 L42.7723705,17.0081296 C42.7723705,13.2049945 39.6893204,10.1219444 35.8861853,10.1219444 L22.1138147,10.1219444 Z M22.6624574,22.7462974 C25.5599075,22.7462974 27.9087549,20.3974501 27.9087549,17.5 C27.9087549,14.6025499 25.5599075,12.2537026 22.6624574,12.2537026 C19.7650074,12.2537026 17.41616,14.6025499 17.41616,17.5 C17.41616,20.3974501 19.7650074,22.7462974 22.6624574,22.7462974 Z" id="icon_sm-control-center" fill="#8E8E93"></path>
    </g>
</svg>