<?xml version="1.0" encoding="UTF-8"?>
<svg width="167px" height="167px" viewBox="0 0 167 167" version="1.1" xmlns="http://www.w3.org/2000/svg" xmlns:xlink="http://www.w3.org/1999/xlink">
    <!-- Generator: Sketch 48.2 (47327) - http://www.bohemiancoding.com/sketch -->
    <title>icon_ibooks</title>
    <desc>Created with Sketch.</desc>
    <defs>
        <linearGradient x1="50%" y1="100%" x2="50%" y2="3.061617e-15%" id="linearGradient-1">
            <stop stop-color="#FA711A" offset="0%"></stop>
            <stop stop-color="#FE9F05" offset="100%"></stop>
        </linearGradient>
    </defs>
    <g id="icon_ibooks" stroke="none" stroke-width="1" fill="none" fill-rule="evenodd">
        <g>
            <rect id="bg" fill="url(#linearGradient-1)" x="0" y="0" width="167" height="167" rx="36"></rect>
            <path d="M81.4125,132.269677 C76.9475694,118.840093 67.7944618,112.125302 53.9531771,112.125302 C39.2189062,112.125302 34.0958333,119.744677 29.9208333,119.744677 C28.5813542,119.744677 27.8333333,119.048843 27.8333333,118.152958 C27.8333333,117.555701 27.8333333,96.14143 27.8333333,53.9101453 C27.8333333,46.4659228 37.8794271,38.4539474 54.6229167,38.4539474 C71.7340734,38.4539474 81.4125,51.231187 81.4125,59.9378015 L81.4125,132.269677 Z M84.8916667,132.269677 L84.8916667,59.9378015 C84.8916667,51.231187 94.5700933,38.4539474 111.68125,38.4539474 C128.42474,38.4539474 138.470833,46.4659228 138.470833,53.9101453 C138.470833,96.14143 138.470833,117.555701 138.470833,118.152958 C138.470833,119.048843 137.722813,119.744677 136.383333,119.744677 C132.208333,119.744677 127.08526,112.125302 112.35099,112.125302 C98.5097049,112.125302 89.3565972,118.840093 84.8916667,132.269677 Z" id="book" fill="#FFFFFF"></path>
        </g>
    </g>
</svg>