<?xml version="1.0" encoding="UTF-8"?>
<svg width="29px" height="29px" viewBox="0 0 29 29" version="1.1" xmlns="http://www.w3.org/2000/svg" xmlns:xlink="http://www.w3.org/1999/xlink">
    <!-- Generator: Sketch 48.2 (47327) - http://www.bohemiancoding.com/sketch -->
    <title>icon_search</title>
    <desc>Created with Sketch.</desc>
    <defs></defs>
    <g id="search" stroke="none" stroke-width="1" fill="none" fill-rule="evenodd">
        <g transform="translate(-18.000000, -22.000000)" fill="#FFFFFF" fill-rule="nonzero" id="icon_search">
            <path d="M39.0128044,40.8935155 C39.0290083,40.9083698 39.0449649,40.9236445 39.0606602,40.9393398 L46.5606602,48.4393398 C47.1464466,49.0251263 47.1464466,49.9748737 46.5606602,50.5606602 C45.9748737,51.1464466 45.0251263,51.1464466 44.4393398,50.5606602 L36.9393398,43.0606602 C36.9126859,43.0340062 36.8872447,43.0065987 36.8630163,42.9785062 C34.9473727,44.4054489 32.5723141,45.25 30,45.25 C23.6487254,45.25 18.5,40.1012746 18.5,33.75 C18.5,27.3987254 23.6487254,22.25 30,22.25 C36.3512746,22.25 41.5,27.3987254 41.5,33.75 C41.5,36.4493846 40.5699475,38.9315437 39.0128044,40.8935155 Z M30,42.25 C34.6944204,42.25 38.5,38.4444204 38.5,33.75 C38.5,29.0555796 34.6944204,25.25 30,25.25 C25.3055796,25.25 21.5,29.0555796 21.5,33.75 C21.5,38.4444204 25.3055796,42.25 30,42.25 Z"></path>
        </g>
    </g>
</svg>