<?xml version="1.0" encoding="UTF-8"?>
<svg width="58px" height="58px" viewBox="0 0 58 58" version="1.1" xmlns="http://www.w3.org/2000/svg" xmlns:xlink="http://www.w3.org/1999/xlink">
    <!-- Generator: Sketch 48.2 (47327) - http://www.bohemiancoding.com/sketch -->
    <title>icon_sm-display</title>
    <desc>Created with Sketch.</desc>
    <defs></defs>
    <g id="settings" stroke="none" stroke-width="1" fill="none" fill-rule="evenodd">
        <path d="M13,0 L45,-1.77635684e-15 C52.1797017,-3.09524665e-15 58,5.82029825 58,13 L58,45 C58,52.1797017 52.1797017,58 45,58 L13,58 C5.82029825,58 2.29133111e-15,52.1797017 -1.77635684e-15,45 L-1.77635684e-15,13 C-2.65561672e-15,5.82029825 5.82029825,-4.57467025e-16 13,-1.77635684e-15 Z M45,40 L42,33 L32.7937334,33 L30,39.9603151 L26.7307234,39.9603151 L36,17 L39,17 L48.2064326,39.9603151 L45,40 Z M37.1840207,21 L33.7609633,30.4025365 L41.059022,30.4025365 L37.468578,21 L37.1840207,21 Z M21.3632833,36.7892279 L19.938227,32.6544056 L14.0004926,32.6544056 L12.5646405,36.7892279 L10.0815879,36.7892279 L15.7062418,21.2107721 L18.308049,21.2107721 L23.9327029,36.7892279 L21.3632833,36.7892279 Z M16.8829928,24.0392928 L14.6158578,30.62478 L19.3228618,30.62478 L17.0665227,24.0392928 L16.8829928,24.0392928 Z" id="icon_sm-display" fill="#007AFF"></path>
    </g>
</svg>