<?xml version="1.0" encoding="UTF-8"?>
<svg width="167px" height="167px" viewBox="0 0 167 167" version="1.1" xmlns="http://www.w3.org/2000/svg" xmlns:xlink="http://www.w3.org/1999/xlink">
    <!-- Generator: Sketch 48.2 (47327) - http://www.bohemiancoding.com/sketch -->
    <title>icon_clock</title>
    <desc>Created with Sketch.</desc>
    <defs></defs>
    <g id="icon_clock" stroke="none" stroke-width="1" fill="none" fill-rule="evenodd">
        <g>
            <rect id="bg" fill="#000000" x="0" y="0" width="167" height="167" rx="36"></rect>
            <g id="face" transform="translate(11.000000, 11.000000)">
                <circle id="circle" fill="#FFFFFF" cx="72.5" cy="72.5" r="72.5"></circle>
                <g id="numbers" transform="translate(8.000000, 7.000000)" fill="#000000">
                    <polygon id="1" points="95.6495748 23.1480119 97.667435 23.1480119 97.667435 9.83140185 95.6311469 9.83140185 92.129837 12.3230753 92.129837 14.3533277 95.603505 11.8801111 95.6495748 11.8801111"></polygon>
                    <path d="M111.91158,35.3347997 L111.91158,35.3532566 L113.864942,35.3532566 L113.864942,35.3255713 C113.864942,33.9413083 114.961405,32.8892684 116.417213,32.8892684 C117.799309,32.8892684 118.86813,33.8305673 118.86813,35.011805 C118.86813,36.0546165 118.444287,36.7559764 116.822628,38.4447773 L112.022147,43.3450683 L112.022147,44.7477882 L121.116339,44.7477882 L121.116339,43.0036168 L114.804767,43.0036168 L114.804767,42.9574747 L118.131012,39.6075582 C120.07516,37.6142195 120.904418,36.460667 120.904418,34.9102924 C120.904418,32.7969842 119.015553,31.1820107 116.48171,31.1820107 C113.8373,31.1820107 111.91158,32.9354105 111.91158,35.3347997 Z" id="2"></path>
                    <path d="M120.731985,64.3713642 L122.3905,64.3713642 C124.141155,64.3713642 125.228404,65.2572925 125.228404,66.696926 C125.228404,67.9981332 124.067443,68.9209752 122.445784,68.9209752 C120.768841,68.9209752 119.718448,68.0442753 119.589452,66.7707534 L117.608448,66.7707534 C117.737443,69.0686299 119.580238,70.6466898 122.445784,70.6466898 C125.21919,70.6466898 127.32919,69.0501731 127.32919,66.7246113 C127.32919,64.8604704 126.039233,63.6330906 124.039801,63.4946643 L124.039801,63.4577506 C125.689102,63.1624411 126.776351,61.971975 126.776351,60.3108593 C126.776351,58.2621501 124.942771,56.831745 122.427356,56.831745 C119.792159,56.831745 118.032291,58.3359775 117.875653,60.6707677 L119.819801,60.6707677 C119.939583,59.3603321 120.897836,58.5297743 122.335216,58.5297743 C123.910806,58.5297743 124.758491,59.3511037 124.758491,60.5877119 C124.758491,61.8427771 123.772596,62.7471622 122.335216,62.7471622 L120.731985,62.7471622 L120.731985,64.3713642 Z" id="3"></path>
                    <path d="M117.277403,101.447201 L117.277403,98.817101 L110.624914,98.817101 L110.624914,97.0083307 C111.767447,94.8581089 113.278538,92.4679481 116.27308,88.1305907 L119.258407,88.1305907 L119.258407,97.0821581 L121.082774,97.0821581 L121.082774,98.817101 L119.258407,98.817101 L119.258407,101.447201 L117.277403,101.447201 Z M112.550635,97.0637012 L112.550635,97.1098433 L117.295831,97.1098433 L117.295831,89.7271073 L117.258975,89.7271073 C114.955482,93.058567 113.610242,95.1349615 112.550635,97.0637012 Z" id="4"></path>
                    <path d="M94.352379,120.596172 C97.2179247,120.596172 99.2265709,118.704346 99.2265709,115.972734 C99.2265709,113.388776 97.3929902,111.515407 94.8407196,111.515407 C93.5415494,111.515407 92.4543005,112.02297 91.8738202,112.862756 L91.8277503,112.862756 L92.1963093,108.774566 L98.4525972,108.774566 L98.4525972,107.030395 L90.537794,107.030395 L89.8375321,114.560786 L91.7263966,114.560786 C92.2423791,113.684086 93.2374882,113.158066 94.3892349,113.158066 C96.0477501,113.158066 97.2087108,114.35776 97.2087108,116.028104 C97.2087108,117.698448 96.0477501,118.870458 94.370807,118.870458 C92.8873573,118.870458 91.7540385,117.966073 91.606615,116.646409 L89.6348247,116.646409 C89.7546063,118.97197 91.6987547,120.596172 94.352379,120.596172 Z" id="5"></path>
                    <path d="M66.1437996,130.055303 C64.1812232,130.055303 62.6056338,129.049405 61.7395203,127.249863 C61.1958959,126.188595 60.9194767,124.878159 60.9194767,123.318556 C60.9194767,118.861229 62.9096949,116.221901 66.2359393,116.221901 C68.5855025,116.221901 70.4098692,117.633849 70.815284,119.756386 L68.751354,119.756386 C68.4288649,118.667433 67.4337558,117.956844 66.2175113,117.956844 C64.1259394,117.956844 62.9096949,119.857899 62.9004809,123.207815 L62.9373368,123.207815 C63.5178171,121.915836 64.9275551,121.048365 66.5860703,121.048365 C69.1199129,121.048365 70.9995635,122.921734 70.9995635,125.450321 C70.9995635,128.117335 68.9632754,130.055303 66.1437996,130.055303 Z M66.1253716,128.311131 C67.6917471,128.311131 68.9448475,127.074523 68.9448475,125.51492 C68.9448475,123.899947 67.7746728,122.737166 66.1437996,122.737166 C64.5221402,122.737166 63.3151097,123.899947 63.3151097,125.478006 C63.3151097,127.056066 64.5405682,128.311131 66.1253716,128.311131 Z" id="6"></path>
                    <polygon id="7" points="34.7991784 120.347005 36.9644622 120.347005 42.7416235 108.820708 42.7416235 107.030395 33.6935016 107.030395 33.6935016 108.774566 40.7053354 108.774566 40.7053354 108.820708"></polygon>
                    <path d="M16.0375542,101.696368 C13.0706548,101.696368 11.0067248,100.099851 11.0067248,97.8481169 C11.0067248,96.1500877 12.2045413,94.7935099 13.9644102,94.4243731 L13.9644102,94.378231 C12.4901745,93.9721805 11.5411352,92.818628 11.5411352,91.3882229 C11.5411352,89.367199 13.4299998,87.8814233 16.0375542,87.8814233 C18.6543227,87.8814233 20.5247593,89.3579705 20.5247593,91.3974514 C20.5247593,92.8093996 19.584934,93.9537237 18.1106982,94.378231 L18.1106982,94.4243731 C19.8797811,94.7935099 21.0683837,96.1593161 21.0683837,97.8481169 C21.0683837,100.10908 18.9860257,101.696368 16.0375542,101.696368 Z M16.0375542,100.035252 C17.7329253,100.035252 18.9307419,99.05704 18.9307419,97.7004622 C18.9307419,96.3254276 17.7329253,95.3472151 16.0375542,95.3472151 C14.3421831,95.3472151 13.1351526,96.3346561 13.1351526,97.7004622 C13.1351526,99.05704 14.3421831,100.035252 16.0375542,100.035252 Z M16.0375542,93.6860995 C17.4657201,93.6860995 18.4884711,92.818628 18.4884711,91.609705 C18.4884711,90.3915536 17.4749341,89.5240821 16.0375542,89.5240821 C14.5909604,89.5240821 13.5866373,90.3915536 13.5866373,91.609705 C13.5866373,92.818628 14.5909604,93.6860995 16.0375542,93.6860995 Z" id="8"></path>
                    <path d="M4.94129773,70.6466898 C2.57330657,70.6466898 0.739725872,69.2255131 0.343525018,67.1122049 L2.41666903,67.1122049 C2.72994412,68.2011585 3.74348119,68.9302036 4.96893965,68.9302036 C7.04208366,68.9302036 8.25832814,67.0106923 8.25832814,63.6515474 L8.22147225,63.6515474 C7.68706179,64.961983 6.28653784,65.8294545 4.57273879,65.8294545 C2.04811009,65.8294545 0.15924555,63.9560853 0.15924555,61.4274982 C0.15924555,58.7604848 2.20474764,56.8225166 5.01500952,56.8225166 C6.98679982,56.8225166 8.57160324,57.8284144 9.42850276,59.6187278 C9.97212719,60.6799961 10.2485464,61.9904318 10.2485464,63.5500348 C10.2485464,68.0073616 8.27675609,70.6466898 4.94129773,70.6466898 Z M5.01500952,64.1406537 C6.6458828,64.1406537 7.86212729,62.9686443 7.86212729,61.3998129 C7.86212729,59.8217531 6.62745486,58.5851448 5.04265144,58.5851448 C3.45784802,58.5851448 2.21396161,59.8125247 2.21396161,61.3628992 C2.21396161,62.9594159 3.40256418,64.1406537 5.01500952,64.1406537 Z" id="9"></path>
                    <path d="M11.7509636,44.7477882 L13.7688238,44.7477882 L13.7688238,31.4311781 L11.7325357,31.4311781 L8.23122578,33.9228515 L8.23122578,35.9531039 L11.7048937,33.4798873 L11.7509636,33.4798873 L11.7509636,44.7477882 Z M20.1977818,44.9969555 C17.009747,44.9969555 15.1208825,42.3207137 15.1208825,38.0756405 C15.1208825,33.8582525 17.0281749,31.1820107 20.1977818,31.1820107 C23.3766026,31.1820107 25.2562532,33.8490241 25.2562532,38.0664121 C25.2562532,42.3114853 23.3858166,44.9969555 20.1977818,44.9969555 Z M20.1977818,43.2620125 C22.0958603,43.2620125 23.1738952,41.2963591 23.1738952,38.0756405 C23.1738952,34.901064 22.0774324,32.9169537 20.1977818,32.9169537 C18.3181312,32.9169537 17.2124544,34.9102924 17.2124544,38.0756405 C17.2124544,41.2871307 18.2997033,43.2620125 20.1977818,43.2620125 Z" id="10"></path>
                    <path d="M32.1875565,23.1480119 L34.2054167,23.1480119 L34.2054167,9.83140185 L32.1691286,9.83140185 L28.6678187,12.3230753 L28.6678187,14.3533277 L32.1414867,11.8801111 L32.1875565,11.8801111 L32.1875565,23.1480119 Z M39.150925,23.1480119 L41.1687852,23.1480119 L41.1687852,9.83140185 L39.1324971,9.83140185 L35.6311872,12.3230753 L35.6311872,14.3533277 L39.1048551,11.8801111 L39.150925,11.8801111 L39.150925,23.1480119 Z" id="11"></path>
                    <path d="M62.0322744,13.6981098 L64.0501346,13.6981098 L64.0501346,0.381499749 L62.0138465,0.381499749 L58.5125366,2.87317315 L58.5125366,4.90342556 L61.9862046,2.43020899 L62.0322744,2.43020899 L62.0322744,13.6981098 Z M65.5219749,4.28512142 L65.5219749,4.30357826 L67.4753373,4.30357826 L67.4753373,4.275893 C67.4753373,2.89162999 68.5718001,1.83959011 70.0276079,1.83959011 C71.4097039,1.83959011 72.4785248,2.78088895 72.4785248,3.96212672 C72.4785248,5.00493818 72.054682,5.7062981 70.4330227,7.39509896 L65.6325426,12.29539 L65.6325426,13.6981098 L74.7267343,13.6981098 L74.7267343,11.9539385 L68.4151626,11.9539385 L68.4151626,11.9077964 L71.741407,8.55787989 C73.6855553,6.56454116 74.5148129,5.41098866 74.5148129,3.8606141 C74.5148129,1.74730591 72.6259484,0.132332409 70.0921057,0.132332409 C67.4476954,0.132332409 65.5219749,1.88573221 65.5219749,4.28512142 Z" id="12"></path>
                </g>
                <path d="M73.2631579,67.9319363 C74.5050077,68.3708673 75.3947368,69.5552141 75.3947368,70.9473684 C75.3947368,72.7132262 73.9632262,74.1447368 72.1973684,74.1447368 C70.4315106,74.1447368 69,72.7132262 69,70.9473684 C69,69.5557256 69.8890755,68.3717375 71.1302103,67.9324204 C71.1311227,28.3724602 71.1315789,8.59248004 71.1315789,8.59248004 C71.1315789,8.59248004 71.1315789,7 72.1973684,7 C72.9078947,7 73.2626785,7.5326742 73.2617197,8.5980226 L73.2631579,67.9319363 Z" id="Combined-Shape" fill="#000000"></path>
                <path d="M83.9315278,25.1382803 C83.2943974,24.7697203 82.8657384,24.0808538 82.8657384,23.2918687 C82.8657384,22.5028835 83.2943974,21.8140171 83.9315278,21.445457 L83.9315278,12.1010792 C83.9315278,11.8067696 84.1701129,11.5681845 84.4644226,11.5681845 L85.530212,11.5681845 C85.8245217,11.5681845 86.0631068,11.8067696 86.0631068,12.1010792 L86.0631068,21.445457 C86.7002372,21.8140171 87.1288963,22.5028835 87.1288963,23.2918687 C87.1288963,24.0808538 86.7002372,24.7697203 86.0631068,25.1382803 L86.0631068,85.6405529 C86.0631068,85.9348625 85.8245217,86.1734476 85.530212,86.1734476 L84.4644226,86.1734476 C84.1701129,86.1734476 83.9315278,85.9348625 83.9315278,85.6405529 L83.9315278,25.1382803 Z" id="Combined-Shape" fill="#EA9531" transform="translate(84.997317, 48.870816) rotate(-150.000000) translate(-84.997317, -48.870816) "></path>
            </g>
        </g>
    </g>
</svg>