<?xml version="1.0" encoding="UTF-8"?>
<svg width="167px" height="167px" viewBox="0 0 167 167" version="1.1" xmlns="http://www.w3.org/2000/svg" xmlns:xlink="http://www.w3.org/1999/xlink">
    <!-- Generator: Sketch 48.2 (47327) - http://www.bohemiancoding.com/sketch -->
    <title>icon_reminders</title>
    <desc>Created with Sketch.</desc>
    <defs>
        <rect id="path-1" x="0" y="0" width="167" height="167" rx="36"></rect>
    </defs>
    <g id="icon_reminders" stroke="none" stroke-width="1" fill="none" fill-rule="evenodd">
        <g>
            <mask id="mask-2" fill="white">
                <use xlink:href="#path-1"></use>
            </mask>
            <use id="bg" fill="#FFFFFF" xlink:href="#path-1"></use>
            <rect id="Rectangle-Copy" fill="#C7C5C9" mask="url(#mask-2)" x="55.6666667" y="144.733333" width="115.508333" height="2.78333333"></rect>
            <rect id="Rectangle-Copy-2" fill="#C7C5C9" mask="url(#mask-2)" x="55.6666667" y="101.591667" width="115.508333" height="2.78333333"></rect>
            <rect id="Rectangle-Copy-3" fill="#C7C5C9" mask="url(#mask-2)" x="55.6666667" y="58.45" width="115.508333" height="2.78333333"></rect>
            <rect id="Rectangle-Copy-4" fill="#C7C5C9" mask="url(#mask-2)" x="55.6666667" y="15.3083333" width="115.508333" height="2.78333333"></rect>
            <path d="M27.8333333,96.025 C20.1473706,96.025 13.9166667,89.7942961 13.9166667,82.1083333 C13.9166667,74.4223706 20.1473706,68.1916667 27.8333333,68.1916667 C35.5192961,68.1916667 41.75,74.4223706 41.75,82.1083333 C41.75,89.7942961 35.5192961,96.025 27.8333333,96.025 Z M27.8333333,93.2416667 C33.9821035,93.2416667 38.9666667,88.2571035 38.9666667,82.1083333 C38.9666667,75.9595631 33.9821035,70.975 27.8333333,70.975 C21.6845631,70.975 16.7,75.9595631 16.7,82.1083333 C16.7,88.2571035 21.6845631,93.2416667 27.8333333,93.2416667 Z M27.8333333,90.4583333 C23.2217557,90.4583333 19.4833333,86.719911 19.4833333,82.1083333 C19.4833333,77.4967557 23.2217557,73.7583333 27.8333333,73.7583333 C32.444911,73.7583333 36.1833333,77.4967557 36.1833333,82.1083333 C36.1833333,86.719911 32.444911,90.4583333 27.8333333,90.4583333 Z" id="Combined-Shape" fill="#07A9FC" mask="url(#mask-2)"></path>
            <path d="M27.8333333,137.775 C20.1473706,137.775 13.9166667,131.544296 13.9166667,123.858333 C13.9166667,116.172371 20.1473706,109.941667 27.8333333,109.941667 C35.5192961,109.941667 41.75,116.172371 41.75,123.858333 C41.75,131.544296 35.5192961,137.775 27.8333333,137.775 Z M27.8333333,134.991667 C33.9821035,134.991667 38.9666667,130.007104 38.9666667,123.858333 C38.9666667,117.709563 33.9821035,112.725 27.8333333,112.725 C21.6845631,112.725 16.7,117.709563 16.7,123.858333 C16.7,130.007104 21.6845631,134.991667 27.8333333,134.991667 Z M27.8333333,132.208333 C23.2217557,132.208333 19.4833333,128.469911 19.4833333,123.858333 C19.4833333,119.246756 23.2217557,115.508333 27.8333333,115.508333 C32.444911,115.508333 36.1833333,119.246756 36.1833333,123.858333 C36.1833333,128.469911 32.444911,132.208333 27.8333333,132.208333 Z" id="Combined-Shape-Copy-2" fill="#62DC30" mask="url(#mask-2)"></path>
            <path d="M27.8333333,54.275 C20.1473706,54.275 13.9166667,48.0442961 13.9166667,40.3583333 C13.9166667,32.6723706 20.1473706,26.4416667 27.8333333,26.4416667 C35.5192961,26.4416667 41.75,32.6723706 41.75,40.3583333 C41.75,48.0442961 35.5192961,54.275 27.8333333,54.275 Z M27.8333333,51.4916667 C33.9821035,51.4916667 38.9666667,46.5071035 38.9666667,40.3583333 C38.9666667,34.2095631 33.9821035,29.225 27.8333333,29.225 C21.6845631,29.225 16.7,34.2095631 16.7,40.3583333 C16.7,46.5071035 21.6845631,51.4916667 27.8333333,51.4916667 Z M27.8333333,48.7083333 C23.2217557,48.7083333 19.4833333,44.969911 19.4833333,40.3583333 C19.4833333,35.7467557 23.2217557,32.0083333 27.8333333,32.0083333 C32.444911,32.0083333 36.1833333,35.7467557 36.1833333,40.3583333 C36.1833333,44.969911 32.444911,48.7083333 27.8333333,48.7083333 Z" id="Combined-Shape-Copy" fill="#FF9521" mask="url(#mask-2)"></path>
        </g>
    </g>
</svg>