<?xml version="1.0" encoding="UTF-8"?>
<svg width="167px" height="167px" viewBox="0 0 167 167" version="1.1" xmlns="http://www.w3.org/2000/svg" xmlns:xlink="http://www.w3.org/1999/xlink">
    <!-- Generator: Sketch 48.2 (47327) - http://www.bohemiancoding.com/sketch -->
    <title>icon_settings</title>
    <desc>Created with Sketch.</desc>
    <defs>
        <linearGradient x1="50%" y1="0%" x2="50%" y2="100%" id="linearGradient-1">
            <stop stop-color="#E8E2F0" offset="0%"></stop>
            <stop stop-color="#8A8E92" offset="100%"></stop>
        </linearGradient>
        <circle id="path-2" cx="83.5" cy="83.5" r="73.5"></circle>
        <filter x="-1.4%" y="-1.4%" width="102.7%" height="102.7%" filterUnits="objectBoundingBox" id="filter-3">
            <feGaussianBlur stdDeviation="1.5" in="SourceAlpha" result="shadowBlurInner1"></feGaussianBlur>
            <feOffset dx="0" dy="1" in="shadowBlurInner1" result="shadowOffsetInner1"></feOffset>
            <feComposite in="shadowOffsetInner1" in2="SourceAlpha" operator="arithmetic" k2="-1" k3="1" result="shadowInnerInner1"></feComposite>
            <feColorMatrix values="0 0 0 0 0   0 0 0 0 0   0 0 0 0 0  0 0 0 0.5 0" type="matrix" in="shadowInnerInner1"></feColorMatrix>
        </filter>
        <linearGradient x1="50%" y1="-42.3314216%" x2="50%" y2="141.261823%" id="linearGradient-4">
            <stop stop-color="#E8E2F0" offset="0%"></stop>
            <stop stop-color="#8A8E92" offset="100%"></stop>
        </linearGradient>
        <linearGradient x1="50%" y1="-13.1184604%" x2="50%" y2="111.924413%" id="linearGradient-5">
            <stop stop-color="#E8E2F0" offset="0%"></stop>
            <stop stop-color="#8A8E92" offset="100%"></stop>
        </linearGradient>
        <path d="M94.178818,16.8990254 L95.8369072,17.1593025 L95.8020696,24.9527261 C96.9572142,25.1977836 98.1000614,25.4757098 99.2295662,25.7854692 L102.255612,18.7256827 L103.869338,19.1842906 L102.876953,26.9114721 C103.991987,27.2949111 105.092118,27.7099474 106.176254,28.1554996 L110.04759,21.5142732 L111.592894,22.1643751 L109.657014,29.7169277 C110.399574,30.0787589 111.13351,30.4553187 111.858432,30.8462228 L116.411534,24.638978 L117.879808,25.4456086 L115.155998,32.7615656 C116.151983,33.3830345 117.128289,34.0326504 118.083778,34.7092871 L123.370871,29.0933026 L124.729014,30.071265 L121.123099,37.0090974 C122.03428,37.7449544 122.923301,38.5067373 123.789015,39.2933114 L129.730612,34.355003 L130.958377,35.489718 L126.525188,41.9418222 C127.339085,42.7810474 128.128424,43.6438401 128.89206,44.529065 L135.395946,40.3456393 L136.475031,41.620191 L131.283836,47.4861113 C131.779084,48.1397586 132.261093,48.8038223 132.729468,49.4779113 L139.63493,45.993215 L140.573679,47.3725752 L134.796488,52.6646914 C135.399769,53.6631253 135.974411,54.6805085 136.519288,55.715726 L143.795355,53.0933866 L144.557495,54.5758513 L138.177514,59.1272393 C138.65295,60.1909011 139.09791,61.2709241 139.511297,62.3662203 L147.051702,60.643148 L147.625871,62.2066171 L140.734536,65.9530718 C141.07421,67.0652214 141.38198,68.1911069 141.656793,69.3296825 L149.355425,68.5299497 L149.733063,70.1511154 L142.426669,73.0395525 C142.566653,73.8433357 142.690399,74.6526287 142.797559,75.4670878 L150.545405,75.4692985 L150.749995,77.1207056 L143.171572,79.2384668 C143.249011,80.3932066 143.293277,81.5569397 143.303434,82.7287385 L151,83.6675723 L151,85.3313813 L143.216944,86.5181122 C143.153215,87.6878645 143.055464,88.8486524 142.924655,89.999521 L150.443111,91.8596453 L150.238522,93.5110525 L142.376329,93.7486028 C142.231387,94.5573371 142.069994,95.360434 141.892505,96.1575416 L149.166606,98.7838733 L148.788968,100.405039 L140.950285,99.8271879 C140.62262,100.951506 140.262462,102.062163 139.870885,103.158094 L146.764618,106.641827 L146.190449,108.205296 L138.481119,106.684937 C138.013329,107.768495 137.514083,108.835536 136.984519,109.884932 L143.424514,114.112159 L142.675456,115.601159 L135.166158,113.218268 C134.74962,113.926943 134.318759,114.626333 133.87397,115.316047 L139.825382,120.181179 L138.923386,121.584422 L131.715322,118.440468 C131.018665,119.383293 130.294733,120.305076 129.544677,121.204677 L134.845469,126.743999 L133.777648,128.027835 L127.021496,124.043532 C126.498781,124.59552 125.965582,125.137639 125.422213,125.669578 L130.423785,132.753299 L129.176225,133.866604 L122.432953,128.405433 C121.611499,129.108037 120.770667,129.788995 119.911361,130.447414 L124.001219,138.076123 L122.626061,139.030445 L116.612392,132.803587 C115.861744,133.302494 115.099133,133.785091 114.325075,134.250865 L117.751551,141.884241 L116.312575,142.741166 L110.825276,136.201264 C109.837552,136.709394 108.833811,137.191173 107.815,137.645662 L110.264475,145.594378 L108.730854,146.27111 L104.111339,139.152172 C103.391466,139.417423 102.665082,139.669406 101.93249,139.907821 L103.523888,148.034444 L101.927295,148.548589 L98.0973184,141.016461 C97.0125476,141.291357 95.915975,141.537029 94.8085049,141.752581 L95.386608,149.980262 L93.738694,150.297732 L90.8727051,142.384706 C90.1052377,142.482182 89.3332465,142.565325 88.5570133,142.633855 L88.2649546,150.854989 L86.5925852,151 L84.5821549,142.854846 C84.106203,142.865865 83.6288838,142.871405 83.1502591,142.871405 C82.9002073,142.871405 82.6505118,142.869893 82.4011814,142.866877 L80.4074148,150.944519 L78.7350454,150.799509 L78.4470186,142.691868 C77.6531118,142.631018 76.863525,142.554893 76.0785571,142.463791 L73.261306,150.242251 L71.613392,149.924782 L72.1784981,141.882075 C71.0405586,141.674232 69.913837,141.43465 68.7993027,141.164288 L65.0727051,148.493109 L63.4761118,147.978963 L65.0161355,140.114689 C64.2459949,139.873667 63.4825503,139.6177 62.7261483,139.347133 L58.2691459,146.215629 L56.7355246,145.538897 L59.086497,137.909831 C58.0187306,137.447422 56.9671262,136.955179 55.9327565,136.434167 L50.6874249,142.685685 L49.2484488,141.82876 L52.5078763,134.567529 C51.6867454,134.084859 50.8781937,133.583381 50.0828257,133.063694 L44.3739389,138.974964 L42.9987812,138.020643 L46.8653022,130.808519 C45.9477995,130.11982 45.0508452,129.405641 44.1755117,128.667044 L37.8237748,133.811123 L36.5762148,132.697818 L41.270185,126.049754 C40.666647,125.469523 40.075343,124.876862 39.4966934,124.272189 L33.2223523,127.972355 L32.1545312,126.688519 L37.0580838,121.564311 C36.2503989,120.610854 35.4722765,119.631973 34.7251152,118.629053 L28.0766139,121.528941 L27.1746181,120.125699 L32.645637,115.653276 C32.1525733,114.89991 31.6762042,114.134817 31.2170493,113.358512 L24.3245442,115.545678 L23.5754862,114.056678 L29.4698349,110.187615 C28.8954018,109.065356 28.3557436,107.92266 27.8522656,106.76092 L20.8095507,108.149815 L20.2353818,106.586346 L26.520373,103.41024 C26.093096,102.231371 25.7022291,101.035299 25.3491163,99.8233539 L18.211032,100.349558 L17.8333937,98.7283926 L24.4489098,96.3398446 C24.2495298,95.457647 24.0698778,94.5680634 23.9104369,93.6715723 L16.7614779,93.4555718 L16.5568888,91.8041646 L23.3889682,90.1138334 C23.245373,88.8719727 23.1402771,87.6185122 23.0748932,86.3546536 L16,85.2759006 L16,83.6120916 L22.9968325,82.758612 C23.0071723,81.4933856 23.0572769,80.2375509 23.1459684,78.9922753 L16.2500055,77.065225 L16.4545946,75.4138178 L23.510259,75.4118046 C23.6296266,74.5111332 23.7692789,73.6167926 23.9287461,72.729248 L17.2669369,70.0956347 L17.6445752,68.4744691 L24.674039,69.2046888 C24.972156,67.9813072 25.308341,66.7726449 25.6812816,65.5800022 L19.3741294,62.1511364 L19.9482983,60.5876674 L26.8644109,62.1680814 C27.3113656,60.9966297 27.7944831,59.8427834 28.3124134,58.7078804 L22.4425047,54.5203706 L23.2046447,53.037906 L29.9179922,55.4574377 C30.504237,54.356829 31.1242133,53.2766008 31.7765575,52.2181048 L26.4263205,47.3170945 L27.3650698,45.9377344 L33.7822045,49.1760066 C34.2936628,48.4495124 34.8210298,47.7348362 35.3638048,47.0324741 L30.5249691,41.5647103 L31.6040536,40.2901587 L37.6901596,44.2048596 C38.5017798,43.2774915 39.3418081,42.3752061 40.2089023,41.4993336 L36.0416229,35.4342373 L37.2693885,34.2995223 L42.8791422,38.9620227 C43.7918907,38.1462825 44.7299821,37.3578632 45.6921045,36.5980652 L42.2709857,30.0157843 L43.6291291,29.037822 L48.6695176,34.3917554 C49.667971,33.6983478 50.6886546,33.0342377 51.730298,32.4006842 L49.1201919,25.390128 L50.5884664,24.5834974 L54.974279,30.5626772 C55.7330156,30.1632992 56.5014054,29.7795483 57.2790113,29.4118577 L55.4071057,22.1088945 L56.9524102,21.4587925 L60.716377,27.9158284 C61.828471,27.4725501 62.9570112,27.0612472 64.1008386,26.6830682 L63.1306624,19.12881 L64.7443877,18.6702021 L67.7196301,25.6114632 C68.865876,25.3108384 70.0255367,25.0429075 71.1975348,24.8087384 L71.1630928,17.1038218 L72.821182,16.8435448 L74.9465529,24.1816191 C76.1075287,24.0247159 76.7460555,23.8945903 77.9271271,23.8043207 L78.8516632,16.0580661 L80.5293981,16 L81.7512953,23.6318381 C82.0394682,23.627808 82.8611197,23.6318381 83.1502591,23.6318381 C83.6758984,23.6318381 84.199963,23.6385198 84.7223713,23.6518024 L85.9376133,16.0615325 L87.6153482,16.1195986 L88.5401285,23.8678994 C89.717311,23.9714978 90.8847439,24.1087035 92.0414439,24.2785419 L94.178818,16.8990254 Z M58.1980364,46.9644364 L75.3959046,76.2130475 C76.8786342,78.9967873 77.6199989,81.3259708 77.6199989,83.2005982 C77.6199989,85.5199337 76.7121383,88.5350699 74.8964169,92.2460068 L75.0349815,92.0808094 L58.1744751,120.755665 L61.9132264,114.397128 C56.3022326,123.93981 51.7483231,123.578879 48.8301163,121.78706 C47.6628336,121.070332 44.9437577,118.556983 42.2134326,115.094662 L43.466395,116.848173 C36.2982582,107.863235 32,96.3927608 32,83.8963988 C32,72.0766311 35.8454148,61.174669 42.327541,52.425675 L42.2134326,52.5853688 C44.9437577,49.1230477 47.6628336,46.6096984 48.8301163,45.8929707 C51.7483231,44.1011515 56.3022326,43.7402213 61.9132264,53.2829025 L58.1980364,46.9644364 Z M128.08617,80.3656617 L94.1571956,80.6351469 C91.0050415,80.5273585 88.617227,80.0048074 86.9937521,79.0674937 C84.9851486,77.907826 82.8278944,75.6140274 80.5219894,72.1860982 L80.5957723,72.3886974 L64.1928717,43.4496424 L67.8301508,49.8667647 C62.3714433,40.2361609 64.9609728,36.4728247 67.9718371,34.841493 C69.1761829,34.1889604 72.7123452,33.0908463 77.0759658,32.4574759 L74.9308998,32.6658178 C86.2961527,30.9504983 98.3790036,32.9633344 109.201171,39.2115154 C119.43739,45.1213993 126.956058,53.9026072 131.291846,63.8907903 L131.210602,63.7121225 C132.843897,67.807814 133.660984,71.4192774 133.698047,72.7885377 C133.790704,76.2116886 131.826324,80.335955 120.756623,80.4238775 L128.08617,80.3656617 Z M64.2157936,124.189948 L80.9468998,94.6718518 C82.6163243,91.9959005 84.262774,90.189268 85.886249,89.2519543 C87.8948525,88.0922866 90.9599674,87.3709489 95.0815937,87.0879412 L94.8692462,87.0505395 L128.132653,87.3147384 L120.756623,87.2561533 C131.826324,87.3440758 133.790704,91.4683423 133.698047,94.8914931 C133.660984,96.2607534 132.843897,99.8722168 131.210602,103.967908 L132.102705,102.006056 C127.905589,112.706313 120.120996,122.163951 109.298829,128.412132 C99.0626104,134.322016 87.6985268,136.44277 76.8806126,135.203581 L77.0759658,135.222555 C72.7123452,134.589185 69.1761829,133.49107 67.9718371,132.838538 C64.9609728,131.207206 62.3714433,127.44387 67.8301508,117.813266 L64.2157936,124.189948 Z M83.5,86 C82.1192881,86 81,84.8807119 81,83.5 C81,82.1192881 82.1192881,81 83.5,81 C84.8807119,81 86,82.1192881 86,83.5 C86,84.8807119 84.8807119,86 83.5,86 Z" id="path-6"></path>
        <filter x="-5.2%" y="-3.7%" width="110.4%" height="110.4%" filterUnits="objectBoundingBox" id="filter-7">
            <feOffset dx="0" dy="2" in="SourceAlpha" result="shadowOffsetOuter1"></feOffset>
            <feGaussianBlur stdDeviation="2" in="shadowOffsetOuter1" result="shadowBlurOuter1"></feGaussianBlur>
            <feColorMatrix values="0 0 0 0 0   0 0 0 0 0   0 0 0 0 0  0 0 0 0.5 0" type="matrix" in="shadowBlurOuter1"></feColorMatrix>
        </filter>
    </defs>
    <g id="icon_settings" stroke="none" stroke-width="1" fill="none" fill-rule="evenodd">
        <g>
            <rect id="bg" fill="url(#linearGradient-1)" x="0" y="0" width="167" height="167" rx="36"></rect>
            <g id="Oval-2">
                <use fill="#302F33" fill-rule="evenodd" xlink:href="#path-2"></use>
                <use fill="black" fill-opacity="1" filter="url(#filter-3)" xlink:href="#path-2"></use>
            </g>
            <path d="M90.5401096,39.5926908 L91.6332203,39.7642809 L91.6102533,44.9021676 C92.3717931,45.063724 93.1252257,45.2469494 93.8698622,45.4511612 L95.8648111,40.7969316 L96.9286744,41.0992731 L96.2744359,46.193489 C97.0095324,46.4462747 97.7348036,46.7198912 98.4495302,47.0136257 L101.001744,42.6353357 L102.020501,43.0639214 L100.744253,48.0430116 C101.233793,48.2815521 101.717647,48.5298027 102.195559,48.7875099 L105.197233,44.6953263 L106.165207,45.2271049 L104.36951,50.0502173 C105.026122,50.4599264 105.669761,50.8881918 106.299676,51.3342708 L109.785241,47.631881 L110.680609,48.2766117 L108.303376,52.850442 C108.904081,53.3355625 109.490176,53.8377749 110.060906,54.3563312 L113.977959,51.1007057 L114.787375,51.848777 L111.864753,56.1023865 C112.401323,56.6556535 112.921702,57.2244576 113.425136,57.8080502 L117.712883,55.0500882 L118.42428,55.8903481 L115.001937,59.7575104 C115.328433,60.1884335 115.646202,60.6262236 115.954983,61.070623 L120.507472,58.7733047 L121.126352,59.6826607 L117.317685,63.1715373 C117.715403,63.8297641 118.094241,64.5004834 118.453457,65.1829601 L123.250271,63.4541586 L123.752719,64.4314871 L119.546658,67.4320319 C119.860093,68.1332607 120.153437,68.8452759 120.425966,69.56736 L125.397048,68.4314087 L125.775574,69.4621401 L121.232398,71.9320251 C121.456331,72.66522 121.659231,73.4074705 121.840404,74.158087 L126.915799,73.6308557 L127.16476,74.6996242 L122.347952,76.6038531 C122.440238,77.1337546 122.521819,77.6672886 122.592465,78.2042282 L127.700304,78.2056856 L127.835182,79.2943911 L122.839036,80.6905448 C122.890089,81.4518177 122.919271,82.2190195 122.925968,82.9915387 L128,83.6104736 L128,84.7073551 L122.868948,85.4897184 C122.826934,86.2608884 122.762491,87.0261486 122.676254,87.7848694 L127.632866,89.0111735 L127.497989,90.099879 L122.314765,90.2564863 C122.219211,90.7896519 122.112811,91.3191009 121.9958,91.8446015 L126.791318,93.576035 L126.542357,94.6448034 L121.374632,94.2638498 C121.158616,95.0050672 120.921179,95.7372778 120.663028,96.4597804 L125.207785,98.7564635 L124.829259,99.787195 L119.746812,98.7848847 C119.438417,99.4992301 119.109284,100.202687 118.760164,100.894511 L123.005791,103.681349 L122.511967,104.662986 L117.561393,103.092044 C117.286786,103.559244 117.002738,104.020323 116.709506,104.475023 L120.63303,107.682407 L120.03838,108.607508 L115.286397,106.534827 C114.82712,107.156393 114.349861,107.764087 113.85538,108.357157 L117.349976,112.009007 L116.646005,112.855388 L112.191949,110.228699 C111.847344,110.592602 111.495828,110.949999 111.137607,111.300685 L114.43494,115.970693 L113.612474,116.70465 L109.16691,113.104322 C108.625358,113.567521 108.071033,114.016449 107.504527,114.450518 L110.200803,119.479815 L109.294218,120.10896 L105.329651,116.003846 C104.83478,116.332755 104.332021,116.650912 103.821716,116.957978 L106.080652,121.990351 L105.131994,122.555287 L101.514441,118.243796 C100.863275,118.578786 100.20155,118.896403 99.5298888,119.196029 L101.144728,124.436294 L100.133674,124.882435 L97.088216,120.18921 C96.613633,120.364079 96.1347578,120.530201 95.6517897,120.687378 L96.7009337,126.04493 L95.6483648,126.383885 L93.1234173,121.41826 C92.4082721,121.599487 91.6853465,121.761449 90.9552366,121.903553 L91.3363564,127.327728 L90.2499538,127.537023 L88.3605241,122.320287 C87.8545641,122.38455 87.3456217,122.439362 86.8338828,122.484541 L86.6413404,127.9044 L85.5388154,128 L84.2134207,122.630232 C83.899645,122.637496 83.5849679,122.641148 83.2694301,122.641148 C83.1045811,122.641148 82.939967,122.640151 82.7755937,122.638163 L81.4611846,127.963424 L80.3586596,127.867824 L80.1687752,122.522787 C79.6453848,122.482671 79.1248424,122.432485 78.607345,122.372425 L76.7500462,127.500447 L75.6636436,127.291152 L76.0361951,121.988923 C75.2859979,121.851901 74.5431963,121.693954 73.8084292,121.515716 L71.3516352,126.347309 L70.2990663,126.008354 L71.3143412,120.823758 C70.8066188,120.664862 70.303311,120.496113 69.8046459,120.31774 L66.8663258,124.845859 L65.8552717,124.399717 L67.4051721,119.370185 C66.7012372,119.065337 66.0079573,118.740822 65.3260395,118.39734 L61.8680061,122.518711 L60.9193478,121.953775 L63.0681555,117.166741 C62.5268173,116.848537 61.9937721,116.517933 61.4694184,116.175324 L57.7057819,120.072384 L56.7991965,119.443239 L59.3482362,114.688579 C58.7433641,114.234548 58.1520387,113.763719 57.574967,113.276792 L53.3875256,116.668074 L52.5650601,115.934117 L55.6596034,111.55132 C55.2617154,111.168797 54.8718928,110.77808 54.4904127,110.379443 L50.3539952,112.818812 L49.6500243,111.972431 L52.8827367,108.594249 C52.350263,107.965674 51.8372786,107.320338 51.3447056,106.659153 L46.9616195,108.570931 L46.3669705,107.645831 L49.9737903,104.697345 C49.6487335,104.200681 49.3346828,103.696287 49.0319806,103.1845 L44.4880328,104.62641 L43.9942094,103.644773 L47.8801134,101.094057 C47.5014131,100.354197 47.1456384,99.6008646 46.8137158,98.834977 L42.1707408,99.7506188 L41.7922147,98.7198874 L45.9356533,96.6260098 C45.653967,95.84883 45.3962843,95.0603081 45.1634915,94.2613222 L40.4576433,94.6082273 L40.2086818,93.5394588 L44.570022,91.9647864 C44.4385789,91.3831895 44.3201417,90.7967233 44.2150288,90.2057032 L39.5020113,90.0633029 L39.3671341,88.9745974 L43.8712457,87.8602309 C43.7765792,87.0415227 43.7072938,86.2151673 43.6641889,85.3819568 L39,84.6707789 L39,83.5738974 L43.6127266,83.0112331 C43.6195432,82.1771209 43.6525751,81.3492002 43.7110458,80.5282408 L39.1648184,79.257815 L39.2996957,78.1691095 L43.9512078,78.1677823 C44.029902,77.5740064 44.121969,76.984404 44.2270993,76.399282 L39.8352399,74.6630481 L40.0842014,73.5942796 L44.7184405,74.0756837 C44.9149769,73.2691581 45.13661,72.4723362 45.3824745,71.6860755 L41.224426,69.425564 L41.6029522,68.3948326 L46.1624635,69.4367351 C46.4571225,68.6644447 46.7756222,67.9037609 47.1170726,67.1555656 L43.2472809,64.394911 L43.7497287,63.4175825 L48.1755652,65.0126811 C48.5620525,64.2870946 48.9707777,63.5749442 49.4008416,62.8771209 L45.8736483,59.6460845 L46.4925275,58.7367286 L50.723083,60.8715895 C51.0602666,60.3926415 51.4079381,59.9214846 51.7657676,59.4584459 L48.5757204,55.853772 L49.2871168,55.013512 L53.2994385,57.5943149 C53.8345067,56.9829388 54.3883031,56.3880989 54.959943,55.8106718 L52.2126255,51.8122009 L53.0220413,51.0641295 L56.7203234,54.1379261 C57.3220613,53.6001418 57.9405067,53.0803691 58.5747948,52.5794652 L56.3193906,48.2400356 L57.2147592,47.5953048 L60.537682,51.124935 C61.1959216,50.6677997 61.8688167,50.2299789 62.5555298,49.8123029 L60.8347932,45.1905288 L61.8027667,44.6587501 L64.6941543,48.6005798 C65.1943585,48.3372861 65.7009265,48.0842948 66.2135704,47.8418914 L64.9794993,43.0273453 L65.9982556,42.5987595 L68.4796856,46.8556202 C69.2128439,46.5633849 69.9568444,46.2922296 70.7109232,46.0429116 L70.0713256,41.062697 L71.1351889,40.7603554 L73.096645,45.3364461 C73.8523183,45.1382564 74.6168353,44.9616205 75.3894859,44.8072423 L75.3667797,39.7277048 L76.4598904,39.5561147 L77.8610608,44.3938081 C78.6264448,44.2903683 79.0473996,44.2045818 79.8260319,44.1450707 L80.4355409,39.0382806 L81.5416032,39 L82.3471503,44.0313599 C82.5371309,44.0287031 83.0788123,44.0313599 83.2694301,44.0313599 C83.6159626,44.0313599 83.9614571,44.0357649 84.3058596,44.0445216 L85.1070191,39.0405659 L86.2130814,39.0788465 L86.8227514,44.1869855 C87.5988198,44.2552837 88.3684608,44.3457378 89.131026,44.4577054 L90.5401096,39.5926908 Z M83.1576923,114.468783 C100.550414,114.468783 114.65,100.494747 114.65,83.2569003 C114.65,66.0190534 100.550414,52.0450174 83.1576923,52.0450174 C65.764971,52.0450174 51.6653846,66.0190534 51.6653846,83.2569003 C51.6653846,100.494747 65.764971,114.468783 83.1576923,114.468783 Z" id="small-gear" fill="url(#linearGradient-4)"></path>
            <g id="big-gear">
                <use fill="black" fill-opacity="1" filter="url(#filter-7)" xlink:href="#path-6"></use>
                <use fill="url(#linearGradient-5)" fill-rule="evenodd" xlink:href="#path-6"></use>
            </g>
        </g>
    </g>
</svg>