<?xml version="1.0" encoding="UTF-8"?>
<svg width="167px" height="167px" viewBox="0 0 167 167" version="1.1" xmlns="http://www.w3.org/2000/svg" xmlns:xlink="http://www.w3.org/1999/xlink">
    <!-- Generator: Sketch 48.2 (47327) - http://www.bohemiancoding.com/sketch -->
    <title>icon_maps</title>
    <desc>Created with Sketch.</desc>
    <defs>
        <rect id="path-1" x="0" y="0" width="167" height="167" rx="36"></rect>
        <path d="M174.958358,145.731668 C204.933613,145.731668 229.233358,121.431922 229.233358,91.4566676 C229.233358,61.4814128 204.933613,37.1816676 174.958358,37.1816676 C144.983103,37.1816676 120.683358,61.4814128 120.683358,91.4566676 C120.683358,121.431922 144.983103,145.731668 174.958358,145.731668 Z M174.958358,181.915001 C124.9996,181.915001 84.5000244,141.415426 84.5000244,91.4566676 C84.5000244,41.4979096 124.9996,0.998334249 174.958358,0.998334249 C224.917116,0.998334249 265.416691,41.4979096 265.416691,91.4566676 C265.416691,141.415426 224.917116,181.915001 174.958358,181.915001 Z" id="path-3"></path>
        <polygon id="path-4" points="0 106.378332 179.525 232.723616 179.525 281.43195 0 155.086665"></polygon>
        <rect id="path-5" x="31.6200195" y="92.4583333" width="36.5800018" height="167"></rect>
        <filter x="-8.2%" y="-1.8%" width="116.4%" height="103.6%" filterUnits="objectBoundingBox" id="filter-6">
            <feMorphology radius="1" operator="dilate" in="SourceAlpha" result="shadowSpreadOuter1"></feMorphology>
            <feOffset dx="0" dy="0" in="shadowSpreadOuter1" result="shadowOffsetOuter1"></feOffset>
            <feColorMatrix values="0 0 0 0 0   0 0 0 0 0   0 0 0 0 0  0 0 0 0.139945652 0" type="matrix" in="shadowOffsetOuter1"></feColorMatrix>
        </filter>
        <circle id="path-7" cx="29.225" cy="29.225" r="29.225"></circle>
        <filter x="-12.0%" y="-8.6%" width="124.0%" height="124.0%" filterUnits="objectBoundingBox" id="filter-8">
            <feOffset dx="0" dy="2" in="SourceAlpha" result="shadowOffsetOuter1"></feOffset>
            <feGaussianBlur stdDeviation="2" in="shadowOffsetOuter1" result="shadowBlurOuter1"></feGaussianBlur>
            <feColorMatrix values="0 0 0 0 0   0 0 0 0 0   0 0 0 0 0  0 0 0 0.15197577 0" type="matrix" in="shadowBlurOuter1"></feColorMatrix>
        </filter>
    </defs>
    <g id="icon_maps" stroke="none" stroke-width="1" fill="none" fill-rule="evenodd">
        <g>
            <mask id="mask-2" fill="white">
                <use xlink:href="#path-1"></use>
            </mask>
            <use id="bg" fill="#E6E0DC" xlink:href="#path-1"></use>
            <g id="icon" mask="url(#mask-2)">
                <g transform="translate(-8.350000, -92.458333)">
                    <polygon id="green" fill="#9CE177" fill-rule="evenodd" points="54.275 81.325 54.275 160.65 186.483333 252.5 186.483333 81.325"></polygon>
                    <polygon id="pink" fill="#FFCDD8" fill-rule="evenodd" points="1.39166667 143.95 51.4916667 175.958333 51.4916667 276.158333 1.39166667 276.158333"></polygon>
                    <g id="Oval" fill="none" fill-rule="nonzero">
                        <use fill="#F5EFEB" fill-rule="evenodd" xlink:href="#path-3"></use>
                        <path stroke="#9CBB80" stroke-width="2" d="M174.958358,144.731668 C204.381328,144.731668 228.233358,120.879638 228.233358,91.4566676 C228.233358,62.0336975 204.381328,38.1816676 174.958358,38.1816676 C145.535388,38.1816676 121.683358,62.0336975 121.683358,91.4566676 C121.683358,120.879638 145.535388,144.731668 174.958358,144.731668 Z M174.958358,182.915001 C124.447315,182.915001 83.5000244,141.96771 83.5000244,91.4566676 C83.5000244,40.9456248 124.447315,-0.00166575114 174.958358,-0.00166575114 C225.4694,-0.00166575114 266.416691,40.9456248 266.416691,91.4566676 C266.416691,141.96771 225.4694,182.915001 174.958358,182.915001 Z"></path>
                    </g>
                    <g id="yellow" fill="none">
                        <use fill="#FFD731" fill-rule="evenodd" xlink:href="#path-4"></use>
                        <path stroke="#F5AE27" stroke-width="2" d="M1,108.304931 L1,154.567616 L178.525,279.50535 L178.525,233.242665 L1,108.304931 Z"></path>
                    </g>
                    <g id="road" fill="none">
                        <use fill="black" fill-opacity="1" filter="url(#filter-6)" xlink:href="#path-5"></use>
                        <use fill="#FFFEFF" fill-rule="evenodd" xlink:href="#path-5"></use>
                    </g>
                    <rect id="path" fill="#2D91E7" fill-rule="evenodd" x="39.35" y="92.4583333" width="20.5" height="83.5"></rect>
                    <g id="nav" stroke-width="1" fill="none" fill-rule="evenodd" transform="translate(20.875000, 162.041667)">
                        <g id="Oval-2">
                            <use fill="black" fill-opacity="1" filter="url(#filter-8)" xlink:href="#path-7"></use>
                            <use fill="#0078DB" fill-rule="evenodd" xlink:href="#path-7"></use>
                        </g>
                        <path d="M29.225,33.4 L16.7,45.925 L29.225,8.35 L29.225,33.4 Z M29.225,33.4 L29.225,8.35 L41.75,45.925 L29.225,33.4 Z" id="Combined-Shape" stroke="#FFFFFF" fill="#FFFFFF" stroke-linecap="round" stroke-linejoin="round"></path>
                    </g>
                    <g id="sign" stroke-width="1" fill="none" fill-rule="evenodd" transform="translate(102.350000, 197.458333)">
                        <path d="M63,19.7755102 C63,36.8494445 47.7580645,51 31.5,51 C15.2419355,51 0,36.8494445 0,19.7755102 C0,13.2585034 2.03225806,7.01360544 6.09677419,1.04081633 C11.0438598,3.49974965 15.344935,4.65281087 19,4.5 C22.655065,4.34718913 26.6523768,2.84718913 30.9919355,0 C35.6639785,2.66666667 39.6666667,4.16666667 43,4.5 C46.3333333,4.83333333 50.9677419,3.68027211 56.9032258,1.04081633 C60.9677419,7.01360544 63,13.2585034 63,19.7755102 Z" id="Combined-Shape" fill="#FFFFFF" fill-rule="nonzero"></path>
                        <path d="M42.8009926,6.49007438 C39.414596,6.15143473 35.5113824,4.75640815 31.0588347,2.32777312 C26.8237397,4.93799659 22.834854,6.34141966 19.083543,6.49825438 C15.4697846,6.64933831 11.3872151,5.67149159 6.81941577,3.5989614 C3.59793948,8.80451115 2,14.1859156 2,19.7755102 C2,35.4085457 16.0008869,49 31.5,49 C46.9991131,49 61,35.4085457 61,19.7755102 C61,14.1664817 59.3909298,8.76709362 56.1469242,3.54467194 C50.6551659,5.83473588 46.2312315,6.83309827 42.8009926,6.49007438 Z M63,19.7755102 C63,36.8494445 47.7580645,51 31.5,51 C15.2419355,51 0,36.8494445 0,19.7755102 C0,13.2585034 2.03225806,7.01360544 6.09677419,1.04081633 C11.0438598,3.49974965 15.344935,4.65281087 19,4.5 C22.655065,4.34718913 26.6523768,2.84718913 30.9919355,0 C35.6639785,2.66666667 39.6666667,4.16666667 43,4.5 C46.3333333,4.83333333 50.9677419,3.68027211 56.9032258,1.04081633 C60.9677419,7.01360544 63,13.2585034 63,19.7755102 Z" id="Combined-Shape" fill="#0073E0" fill-rule="nonzero"></path>
                        <path d="M58.7337578,16 C58.9114992,17.2479607 59,18.5061526 59,19.7755102 C59,34.2904745 45.9076093,47 31.5,47 C17.0923907,47 4,34.2904745 4,19.7755102 C4,18.5061526 4.08850079,17.2479607 4.26624215,16 L58.7337578,16 Z" id="Combined-Shape" fill="#0079DC"></path>
                        <path d="M58.3704884,14 L4.62951161,14 C5.21879448,11.3363052 6.22355035,8.71770833 7.65116125,6.1348842 C11.8339923,7.83984084 15.6650236,8.6429229 19.1670859,8.49650876 C22.9884372,8.3367458 26.9664164,7.02476419 31.1147978,4.62403501 C35.3731163,6.84092535 39.1848505,8.1384353 42.6019851,8.48014876 C46.0578072,8.82573097 50.252679,7.9881808 55.2970413,6.04152146 C56.7521723,8.65460047 57.774104,11.3042045 58.3704884,14 Z" id="Path" fill="#DE1D25"></path>
                        <path d="M13.5967448,24.7464844 C13.5967448,22.0804687 15.725651,20.1957031 18.8018229,20.1957031 C21.7705729,20.1957031 23.8115885,21.9144531 23.8115885,24.2679687 C23.8115885,26.0257812 22.6397135,27.3441406 21.0869792,28.8871094 L17.6494792,32.1976562 L17.6494792,32.25625 L24.006901,32.25625 L24.006901,34.6 L13.7627604,34.6 L13.7627604,32.6175781 L19.0752604,27.5003906 C20.5010417,26.0746094 20.9404948,25.3617187 20.9404948,24.3851562 C20.9404948,23.3304687 20.0127604,22.490625 18.7041667,22.490625 C17.3369792,22.490625 16.3311198,23.4476562 16.3311198,24.7464844 L16.3311198,24.7953125 L13.5967448,24.7953125 L13.5967448,24.7464844 Z M31.010651,34.9125 C27.5926823,34.9125 25.2977604,33.2230469 25.2977604,30.7816406 C25.2977604,28.9261719 26.6454167,27.490625 28.6083073,27.1683594 L28.6083073,27.1097656 C26.9676823,26.7289062 25.8641667,25.4691406 25.8641667,23.9164062 C25.8641667,21.7679687 27.9930729,20.1957031 31.010651,20.1957031 C34.0379948,20.1957031 36.1473698,21.7582031 36.1473698,23.9261719 C36.1473698,25.459375 35.0536198,26.7191406 33.4129948,27.1097656 L33.4129948,27.1683594 C35.385651,27.5003906 36.7235417,28.9359375 36.7235417,30.7914062 C36.7235417,33.2328125 34.3993229,34.9125 31.010651,34.9125 Z M31.010651,32.7640625 C32.5633854,32.7640625 33.6376042,31.8363281 33.6376042,30.5667969 C33.6376042,29.2972656 32.5633854,28.3695312 31.010651,28.3695312 C29.4579167,28.3695312 28.3739323,29.2972656 28.3739323,30.5667969 C28.3739323,31.8363281 29.4579167,32.7640625 31.010651,32.7640625 Z M31.010651,26.2210937 C32.3094792,26.2210937 33.2372135,25.4007812 33.2372135,24.2777344 C33.2372135,23.1449219 32.3094792,22.3246094 31.010651,22.3246094 C29.7020573,22.3246094 28.7840885,23.1546875 28.7840885,24.2777344 C28.7840885,25.4007812 29.7020573,26.2210937 31.010651,26.2210937 Z M43.7077604,34.9125 C40.1628385,34.9125 38.0046354,32.0902344 38.0046354,27.5296875 C38.0046354,22.9789062 40.1823698,20.1859375 43.7077604,20.1859375 C47.233151,20.1859375 49.4011198,22.9691406 49.4011198,27.5199219 C49.4011198,32.0707031 47.2526823,34.9125 43.7077604,34.9125 Z M43.7077604,32.5492187 C45.3874479,32.5492187 46.4030729,30.7425781 46.4030729,27.5296875 C46.4030729,24.3460937 45.3776823,22.5492187 43.7077604,22.5492187 C42.0476042,22.5492187 41.0026823,24.3558594 41.0026823,27.5296875 C41.0026823,30.7328125 42.0280729,32.5492187 43.7077604,32.5492187 Z" id="280" fill="#FFFFFF"></path>
                    </g>
                </g>
            </g>
        </g>
    </g>
</svg>