<?xml version="1.0" encoding="UTF-8"?>
<svg width="21px" height="32px" viewBox="0 0 21 32" version="1.1" xmlns="http://www.w3.org/2000/svg" xmlns:xlink="http://www.w3.org/1999/xlink">
    <!-- Generator: Sketch 48.2 (47327) - http://www.bohemiancoding.com/sketch -->
    <title>icon_dictation_wh</title>
    <desc>Created with Sketch.</desc>
    <defs></defs>
    <g id="search" stroke="none" stroke-width="1" fill="none" fill-rule="evenodd">
        <g transform="translate(-1174.000000, -20.000000)" fill="#FFFFFF" id="icon_dictation_wh">
            <path d="M1184.61894,20 L1184.61894,20 C1187.40943,20 1189.67157,22.2621402 1189.67157,25.0526316 L1189.67157,36.8421053 C1189.67157,39.6325966 1187.40943,41.8947368 1184.61894,41.8947368 L1184.61894,41.8947368 C1181.82844,41.8947368 1179.5663,39.6325966 1179.5663,36.8421053 L1179.5663,25.0526316 C1179.5663,22.2621402 1181.82844,20 1184.61894,20 Z M1193.46104,30.9473684 C1192.76342,30.9473684 1192.19788,31.5129035 1192.19788,32.2105263 L1192.19788,36.8421053 C1192.19788,41.0278423 1188.80467,44.4210526 1184.61894,44.4210526 C1180.4332,44.4210526 1177.03999,41.0278423 1177.03999,36.8421053 L1177.03999,32.2105263 C1177.03999,31.5129035 1176.47445,30.9473684 1175.77683,30.9473684 C1175.07921,30.9473684 1174.51367,31.5129035 1174.51367,32.2105263 L1174.51367,36.8421053 C1174.51617,41.9327925 1178.30502,46.2268225 1183.35578,46.8631579 L1183.35578,49.4736842 L1179.98736,49.4736842 C1179.28973,49.4736842 1178.7242,50.0392193 1178.7242,50.7368421 C1178.7242,51.4344649 1179.28973,52 1179.98736,52 L1189.25051,52 C1189.94814,52 1190.51367,51.4344649 1190.51367,50.7368421 C1190.51367,50.0392193 1189.94814,49.4736842 1189.25051,49.4736842 L1185.88209,49.4736842 L1185.88209,46.8631579 C1190.93285,46.2268225 1194.7217,41.9327925 1194.7242,36.8421053 L1194.7242,32.2105263 C1194.7242,31.5129035 1194.15866,30.9473684 1193.46104,30.9473684 L1193.46104,30.9473684 Z"></path>
        </g>
    </g>
</svg>