<?xml version="1.0" encoding="UTF-8"?>
<svg width="58px" height="58px" viewBox="0 0 58 58" version="1.1" xmlns="http://www.w3.org/2000/svg" xmlns:xlink="http://www.w3.org/1999/xlink">
    <!-- Generator: Sketch 48.2 (47327) - http://www.bohemiancoding.com/sketch -->
    <title>icon_sm-bluetooth</title>
    <desc>Created with Sketch.</desc>
    <defs></defs>
    <g id="settings" stroke="none" stroke-width="1" fill="none" fill-rule="evenodd">
        <path d="M13,0 L45,-1.77635684e-15 C52.1797017,-3.09524665e-15 58,5.82029825 58,13 L58,45 C58,52.1797017 52.1797017,58 45,58 L13,58 C5.82029825,58 2.29133111e-15,52.1797017 -1.77635684e-15,45 L-1.77635684e-15,13 C-2.65561672e-15,5.82029825 5.82029825,-4.57467025e-16 13,-1.77635684e-15 Z M26.3650219,29.3995772 L18.0546733,21.0345552 L20.4603006,18.628928 L27.0757754,25.2444029 L27.0757754,9.38913257 L39.1039115,21.4172687 L31.1762764,29.3995772 L39.1585849,37.3818857 L27.1304488,49.4100218 L27.1304488,33.5000781 L20.4603006,40.115553 L18.0546733,37.7099257 L26.3650219,29.3995772 Z M30.4655229,17.5901345 L34.2926571,21.4172687 L30.4655229,25.2444029 L30.4655229,17.5901345 Z M30.4655229,41.1543465 L34.2926571,37.3272123 L30.4655229,33.5000781 L30.4655229,41.1543465 Z" id="icon_sm-bluetooth" fill="#007AFF"></path>
    </g>
</svg>