<?xml version="1.0" encoding="UTF-8"?>
<svg width="58px" height="58px" viewBox="0 0 58 58" version="1.1" xmlns="http://www.w3.org/2000/svg" xmlns:xlink="http://www.w3.org/1999/xlink">
    <!-- Generator: Sketch 48.2 (47327) - http://www.bohemiancoding.com/sketch -->
    <title>icon_sm-wifi</title>
    <desc>Created with Sketch.</desc>
    <defs></defs>
    <g id="settings" stroke="none" stroke-width="1" fill="none" fill-rule="evenodd">
        <path d="M13,0 L45,-1.77635684e-15 C52.1797017,-3.09524665e-15 58,5.82029825 58,13 L58,45 C58,52.1797017 52.1797017,58 45,58 L13,58 C5.82029825,58 2.29133111e-15,52.1797017 -1.77635684e-15,45 L-1.77635684e-15,13 C-2.65561672e-15,5.82029825 5.82029825,-4.57467025e-16 13,-1.77635684e-15 Z M29.1130249,21.9749649 C34.918134,21.9749649 39.4371402,23.8833461 43.2212024,27.7163721 L46.7169026,24.0220145 C42.2169332,19.4967355 35.9912789,16.6963332 29.1130249,16.6963332 C22.1188431,16.6963332 15.7994404,19.5919262 11.2830974,24.2522865 L14.5592718,27.7163721 C18.3587433,23.7477496 23.1919681,21.9749649 29.1130249,21.9749649 Z M28.7459291,25.5517882 C33.2879112,25.5517882 37.1997168,27.8885845 40.5474963,30.4574791 L37.0207316,34.1780619 C34.4069428,32.2898699 32.2139809,31.261999 28.7459291,31.261999 C25.1612039,31.261999 23.1688588,32.1727805 20.5089216,34.1780619 L16.9489431,30.4574791 C20.3381091,27.7682936 24.0875619,25.5517882 28.7459291,25.5517882 Z M23.3065111,37.1114243 C24.7439622,35.6820308 26.6843571,34.628118 28.8692399,34.628118 C30.9382346,34.628118 33.0172439,35.8136328 34.4319687,37.1114243 L34.4319687,37.1114243 L28.7363849,42.7578258 L23.3065111,37.1114243 L23.3065111,37.1114243 Z" id="icon_sm-wifi" fill="#007AFF"></path>
    </g>
</svg>