<?xml version="1.0" encoding="UTF-8"?>
<svg width="167px" height="167px" viewBox="0 0 167 167" version="1.1" xmlns="http://www.w3.org/2000/svg" xmlns:xlink="http://www.w3.org/1999/xlink">
    <!-- Generator: Sketch 48.2 (47327) - http://www.bohemiancoding.com/sketch -->
    <title>icon_safari</title>
    <desc>Created with Sketch.</desc>
    <defs>
        <linearGradient x1="50%" y1="0%" x2="50%" y2="100%" id="linearGradient-1">
            <stop stop-color="#55E8FA" offset="0%"></stop>
            <stop stop-color="#177BED" offset="100%"></stop>
        </linearGradient>
    </defs>
    <g id="icon_safari" stroke="none" stroke-width="1" fill="none" fill-rule="evenodd">
        <g>
            <rect id="bg" fill="#FFFFFF" x="0" y="0" width="167" height="167" rx="36"></rect>
            <g id="icon" transform="translate(12.085526, 12.085526)">
                <circle id="Oval" fill="url(#linearGradient-1)" cx="71.5060307" cy="71.5060307" r="71.5060307"></circle>
                <path d="M70.6555373,5 L71.9556469,5 L71.9556469,17.09102 L70.6555373,17.09102 L70.6555373,5 Z M82.1792583,5.8944501 L83.4596164,6.12021177 L81.3600328,18.027542 L80.0796747,17.8017803 L82.1792583,5.8944501 Z M93.3725885,8.77638464 L94.5942919,9.22104833 L90.4589196,20.5828906 L89.2372161,20.1382269 L93.3725885,8.77638464 Z M103.895424,13.5582375 L105.021352,14.2082923 L98.9758422,24.6794228 L97.8499142,24.029368 L103.895424,13.5582375 Z M113.428034,20.0947145 L114.423976,20.9304089 L106.652018,30.1926676 L105.656076,29.3569732 L113.428034,20.0947145 Z M121.680775,28.1872082 L122.51647,29.1831499 L113.254211,36.9551078 L112.418517,35.959166 L121.680775,28.1872082 Z M128.402892,37.5898321 L129.052947,38.71576 L118.581816,44.76127 L117.931761,43.6353421 L128.402892,37.5898321 Z M133.390136,48.0168923 L133.8348,49.2385957 L122.472957,53.3739681 L122.028294,52.1522647 L133.390136,48.0168923 Z M136.490972,59.1515678 L136.716734,60.4319259 L124.809404,62.5315095 L124.583642,61.2511514 L136.490972,59.1515678 Z M137.611184,70.6555373 L137.611184,71.9556469 L125.520164,71.9556469 L125.520164,70.6555373 L137.611184,70.6555373 Z M136.716734,82.1792583 L136.490972,83.4596164 L124.583642,81.3600328 L124.809404,80.0796747 L136.716734,82.1792583 Z M133.8348,93.3725885 L133.390136,94.5942919 L122.028294,90.4589196 L122.472957,89.2372161 L133.8348,93.3725885 Z M129.052947,103.895424 L128.402892,105.021352 L117.931761,98.9758422 L118.581816,97.8499142 L129.052947,103.895424 Z M122.51647,113.428034 L121.680775,114.423976 L112.418517,106.652018 L113.254211,105.656076 L122.51647,113.428034 Z M114.423976,121.680775 L113.428034,122.51647 L105.656076,113.254211 L106.652018,112.418517 L114.423976,121.680775 Z M105.021352,128.402892 L103.895424,129.052947 L97.8499142,118.581816 L98.9758422,117.931761 L105.021352,128.402892 Z M94.5942919,133.390136 L93.3725885,133.8348 L89.2372161,122.472957 L90.4589196,122.028294 L94.5942919,133.390136 Z M83.4596164,136.490972 L82.1792583,136.716734 L80.0796747,124.809404 L81.3600328,124.583642 L83.4596164,136.490972 Z M71.9556469,137.611184 L70.6555373,137.611184 L70.6555373,125.520164 L71.9556469,125.520164 L71.9556469,137.611184 Z M60.4319259,136.716734 L59.1515678,136.490972 L61.2511514,124.583642 L62.5315095,124.809404 L60.4319259,136.716734 Z M49.2385957,133.8348 L48.0168923,133.390136 L52.1522647,122.028294 L53.3739681,122.472957 L49.2385957,133.8348 Z M38.71576,129.052947 L37.5898321,128.402892 L43.6353421,117.931761 L44.76127,118.581816 L38.71576,129.052947 Z M29.1831499,122.51647 L28.1872082,121.680775 L35.959166,112.418517 L36.9551078,113.254211 L29.1831499,122.51647 Z M20.9304089,114.423976 L20.0947145,113.428034 L29.3569732,105.656076 L30.1926676,106.652018 L20.9304089,114.423976 Z M14.2082923,105.021352 L13.5582375,103.895424 L24.029368,97.8499142 L24.6794228,98.9758422 L14.2082923,105.021352 Z M9.22104833,94.5942919 L8.77638464,93.3725885 L20.1382269,89.2372161 L20.5828906,90.4589196 L9.22104833,94.5942919 Z M6.12021177,83.4596164 L5.8944501,82.1792583 L17.8017803,80.0796747 L18.027542,81.3600328 L6.12021177,83.4596164 Z M5,71.9556469 L5,70.6555373 L17.09102,70.6555373 L17.09102,71.9556469 L5,71.9556469 Z M5.8944501,60.4319259 L6.12021177,59.1515678 L18.027542,61.2511514 L17.8017803,62.5315095 L5.8944501,60.4319259 Z M8.77638464,49.2385957 L9.22104833,48.0168923 L20.5828906,52.1522647 L20.1382269,53.3739681 L8.77638464,49.2385957 Z M13.5582375,38.71576 L14.2082923,37.5898321 L24.6794228,43.6353421 L24.029368,44.76127 L13.5582375,38.71576 Z M20.0947145,29.1831499 L20.9304089,28.1872082 L30.1926676,35.959166 L29.3569732,36.9551078 L20.0947145,29.1831499 Z M28.1872082,20.9304089 L29.1831499,20.0947145 L36.9551078,29.3569732 L35.959166,30.1926676 L28.1872082,20.9304089 Z M37.5898321,14.2082923 L38.71576,13.5582375 L44.76127,24.029368 L43.6353421,24.6794228 L37.5898321,14.2082923 Z M48.0168923,9.22104833 L49.2385957,8.77638464 L53.3739681,20.1382269 L52.1522647,20.5828906 L48.0168923,9.22104833 Z M59.1515678,6.12021177 L60.4319259,5.8944501 L62.5315095,17.8017803 L61.2511514,18.027542 L59.1515678,6.12021177 Z M76.4369241,5.19565679 L77.7320864,5.30896881 L77.1202015,12.3028456 L75.8250391,12.1895335 L76.4369241,5.19565679 Z M87.8388374,7.09106169 L89.0946469,7.42755483 L87.2775839,14.2089262 L86.0217744,13.872433 L87.8388374,7.09106169 Z M98.7383964,10.9375926 L99.9166959,11.4870427 L96.9496654,17.8498601 L95.771366,17.30041 L98.7383964,10.9375926 Z M108.804424,16.6183747 L109.869411,17.3640869 L105.842565,23.1150194 L104.777577,22.3693071 L108.804424,16.6183747 Z M117.731068,23.9608001 L118.650384,24.8801165 L113.686076,29.8444248 L112.766759,28.9251085 L117.731068,23.9608001 Z M125.247097,32.7417731 L125.99281,33.8067606 L120.241877,37.8336069 L119.496165,36.7686194 L125.247097,32.7417731 Z M131.124142,42.6944883 L131.673592,43.8727878 L125.310774,46.8398183 L124.761324,45.6615188 L131.124142,42.6944883 Z M135.183629,53.5165373 L135.520123,54.7723468 L128.738751,56.5894098 L128.402258,55.3336003 L135.183629,53.5165373 Z M137.302215,64.8790978 L137.415527,66.1742601 L130.421651,66.7861451 L130.308339,65.4909827 L137.302215,64.8790978 Z M137.415527,76.4369241 L137.302215,77.7320864 L130.308339,77.1202015 L130.421651,75.8250391 L137.415527,76.4369241 Z M135.520123,87.8388374 L135.183629,89.0946469 L128.402258,87.2775839 L128.738751,86.0217744 L135.520123,87.8388374 Z M131.673592,98.7383964 L131.124142,99.9166959 L124.761324,96.9496654 L125.310774,95.771366 L131.673592,98.7383964 Z M125.99281,108.804424 L125.247097,109.869411 L119.496165,105.842565 L120.241877,104.777577 L125.99281,108.804424 Z M118.650384,117.731068 L117.731068,118.650384 L112.766759,113.686076 L113.686076,112.766759 L118.650384,117.731068 Z M109.869411,125.247097 L108.804424,125.99281 L104.777577,120.241877 L105.842565,119.496165 L109.869411,125.247097 Z M99.9166959,131.124142 L98.7383964,131.673592 L95.771366,125.310774 L96.9496654,124.761324 L99.9166959,131.124142 Z M89.0946469,135.183629 L87.8388374,135.520123 L86.0217744,128.738751 L87.2775839,128.402258 L89.0946469,135.183629 Z M77.7320864,137.302215 L76.4369241,137.415527 L75.8250391,130.421651 L77.1202015,130.308339 L77.7320864,137.302215 Z M66.1742601,137.415527 L64.8790978,137.302215 L65.4909827,130.308339 L66.7861451,130.421651 L66.1742601,137.415527 Z M54.7723468,135.520123 L53.5165373,135.183629 L55.3336003,128.402258 L56.5894098,128.738751 L54.7723468,135.520123 Z M43.8727878,131.673592 L42.6944883,131.124142 L45.6615188,124.761324 L46.8398183,125.310774 L43.8727878,131.673592 Z M33.8067606,125.99281 L32.7417731,125.247097 L36.7686194,119.496165 L37.8336069,120.241877 L33.8067606,125.99281 Z M24.8801165,118.650384 L23.9608001,117.731068 L28.9251085,112.766759 L29.8444248,113.686076 L24.8801165,118.650384 Z M17.3640869,109.869411 L16.6183747,108.804424 L22.3693071,104.777577 L23.1150194,105.842565 L17.3640869,109.869411 Z M11.4870427,99.9166959 L10.9375926,98.7383964 L17.30041,95.771366 L17.8498601,96.9496654 L11.4870427,99.9166959 Z M7.42755483,89.0946469 L7.09106169,87.8388374 L13.872433,86.0217744 L14.2089262,87.2775839 L7.42755483,89.0946469 Z M5.30896881,77.7320864 L5.19565679,76.4369241 L12.1895335,75.8250391 L12.3028456,77.1202015 L5.30896881,77.7320864 Z M5.19565679,66.1742601 L5.30896881,64.8790978 L12.3028456,65.4909827 L12.1895335,66.7861451 L5.19565679,66.1742601 Z M7.09106169,54.7723468 L7.42755483,53.5165373 L14.2089262,55.3336003 L13.872433,56.5894098 L7.09106169,54.7723468 Z M10.9375926,43.8727878 L11.4870427,42.6944883 L17.8498601,45.6615188 L17.30041,46.8398183 L10.9375926,43.8727878 Z M16.6183747,33.8067606 L17.3640869,32.7417731 L23.1150194,36.7686194 L22.3693071,37.8336069 L16.6183747,33.8067606 Z M23.9608001,24.8801165 L24.8801165,23.9608001 L29.8444248,28.9251085 L28.9251085,29.8444248 L23.9608001,24.8801165 Z M32.7417731,17.3640869 L33.8067606,16.6183747 L37.8336069,22.3693071 L36.7686194,23.1150194 L32.7417731,17.3640869 Z M42.6944883,11.4870427 L43.8727878,10.9375926 L46.8398183,17.30041 L45.6615188,17.8498601 L42.6944883,11.4870427 Z M53.5165373,7.42755483 L54.7723468,7.09106169 L56.5894098,13.872433 L55.3336003,14.2089262 L53.5165373,7.42755483 Z M64.8790978,5.30896881 L66.1742601,5.19565679 L66.7861451,12.1895335 L65.4909827,12.3028456 L64.8790978,5.30896881 Z" id="gear" fill="#FFFFFF"></path>
                <g id="compass" transform="translate(21.000000, 22.000000)">
                    <polygon id="Path-10" fill="#FF2846" points="42.753206 41.4766915 57.8911241 57.0534519 99.9357651 0.334572827"></polygon>
                    <polygon id="Path-10" fill="#FFFFFF" transform="translate(29.285477, 70.132074) scale(-1, -1) translate(-29.285477, -70.132074) " points="0.650054825 83.2322001 15.7359235 98.8083333 57.9208997 41.4558155"></polygon>
                </g>
            </g>
        </g>
    </g>
</svg>