<?xml version="1.0" encoding="UTF-8"?>
<svg width="58px" height="58px" viewBox="0 0 58 58" version="1.1" xmlns="http://www.w3.org/2000/svg" xmlns:xlink="http://www.w3.org/1999/xlink">
    <!-- Generator: Sketch 48.2 (47327) - http://www.bohemiancoding.com/sketch -->
    <title>icon_sm-wallpaper</title>
    <desc>Created with Sketch.</desc>
    <defs></defs>
    <g id="settings" stroke="none" stroke-width="1" fill="none" fill-rule="evenodd">
        <path d="M13,0 L45,-1.77635684e-15 C52.1797017,-3.09524665e-15 58,5.82029825 58,13 L58,45 C58,52.1797017 52.1797017,58 45,58 L13,58 C5.82029825,58 2.29133111e-15,52.1797017 -1.77635684e-15,45 L-1.77635684e-15,13 C-2.65561672e-15,5.82029825 5.82029825,-4.57467025e-16 13,-1.77635684e-15 Z M8.59661129,29 C8.59661129,26.1865662 10.6017514,23.8028474 13.5099408,22.6029726 C12.30198,19.6981325 12.5696755,16.5947406 14.5590737,14.6053425 C16.5484718,12.6159444 19.6518637,12.3482488 22.5567038,13.5562097 C23.7565786,10.6480202 26.1402974,8.6428801 28.9537312,8.6428801 C31.767165,8.6428801 34.1508837,10.6480202 35.3507586,13.5562097 C38.2555987,12.3482488 41.3589906,12.6159444 43.3483887,14.6053425 C45.3377868,16.5947406 45.6054823,19.6981325 44.3975215,22.6029726 C47.3057109,23.8028474 49.3108511,26.1865662 49.3108511,29 C49.3108511,31.8134338 47.3057109,34.1971526 44.3975215,35.3970274 C45.6054823,38.3018675 45.3377868,41.4052594 43.3483887,43.3946575 C41.3589906,45.3840556 38.2555987,45.6517512 35.3507586,44.4437903 C34.1508837,47.3519798 31.767165,49.3571199 28.9537312,49.3571199 C26.1402974,49.3571199 23.7565786,47.3519798 22.5567038,44.4437903 C19.6518637,45.6517512 16.5484718,45.3840556 14.5590737,43.3946575 C12.5696755,41.4052594 12.30198,38.3018675 13.5099408,35.3970274 C10.6017514,34.1971526 8.59661129,31.8134338 8.59661129,29 Z M29,37.5 C28.2436813,39.2563187 27.5770147,40.4229853 27,41 C26.4229853,41.5770147 25.4229853,42.410348 24,43.5 C25.2076366,46.1666667 26.8743032,47.5 29,47.5 C31.1256968,47.5 32.7923634,46.1666667 34,43.5 C32.5412251,42.3745584 31.5412251,41.5412251 31,41 C30.4587749,40.4587749 29.7921083,39.2921083 29,37.5 Z M23.8499985,41.3000488 C25.0659103,40.4841527 26.0325775,39.2174697 26.75,37.5 C27.4674225,35.7825303 27.6007564,34.4158717 27.1500015,33.4000244 C26.0104392,33.9654192 25.1271054,34.9987444 24.5,36.5 C23.8728946,38.0012556 23.6562274,39.6012718 23.8499985,41.3000488 Z M34.0608965,41.3000488 C34.2546676,39.6012718 34.0380004,38.0012556 33.410895,36.5 C32.7837896,34.9987444 31.9004558,33.9654192 30.7608935,33.4000244 C30.3101387,34.4158717 30.4434725,35.7825303 31.160895,37.5 C31.8783175,39.2174697 32.8449847,40.4841527 34.0608965,41.3000488 Z M29,20.4793428 C29.7921083,18.6872346 30.4587749,17.5205679 31,16.9793428 C31.5412251,16.4381178 32.5412251,15.6047844 34,14.4793428 C32.7923634,11.8126762 31.1256968,10.4793428 29,10.4793428 C26.8743032,10.4793428 25.2076366,11.8126762 24,14.4793428 C25.4229853,15.5689948 26.4229853,16.4023282 27,16.9793428 C27.5770147,17.5563575 28.2436813,18.7230242 29,20.4793428 Z M23.8499985,16.679294 C23.6562274,18.378071 23.8728946,19.9780873 24.5,21.4793428 C25.1271054,22.9805984 26.0104392,24.0139236 27.1500015,24.5793184 C27.6007564,23.5634711 27.4674225,22.1968126 26.75,20.4793428 C26.0325775,18.7618731 25.0659103,17.4951902 23.8499985,16.679294 Z M34.0608965,16.679294 C32.8449847,17.4951902 31.8783175,18.7618731 31.160895,20.4793428 C30.4434725,22.1968126 30.3101387,23.5634711 30.7608935,24.5793184 C31.9004558,24.0139236 32.7837896,22.9805984 33.410895,21.4793428 C34.0380004,19.9780873 34.2546676,18.378071 34.0608965,16.679294 Z M20.4451189,29.0342239 C18.6888003,28.2779053 17.5221336,27.6112386 16.9451189,27.0342239 C16.3681043,26.4572092 15.5347709,25.4572092 14.4451189,24.0342239 C11.7784523,25.2418605 10.4451189,26.9085271 10.4451189,29.0342239 C10.4451189,31.1599207 11.7784523,32.8265874 14.4451189,34.0342239 C15.5705605,32.575449 16.4038939,31.575449 16.9451189,31.0342239 C17.486344,30.4929988 18.6530107,29.8263322 20.4451189,29.0342239 Z M16.6450701,23.8842224 C17.4609663,25.1001342 18.7276492,26.0668014 20.4451189,26.7842239 C22.1625887,27.5016464 23.5292472,27.6349803 24.5450945,27.1842254 C23.9796997,26.0446631 22.9463745,25.1613293 21.4451189,24.5342239 C19.9438634,23.9071185 18.3438471,23.6904513 16.6450701,23.8842224 Z M24.5450945,30.6028345 C22.8463175,30.4090635 21.2463013,30.6257306 19.7450457,31.252836 C18.2437901,31.8799414 17.2104649,32.7632753 16.6450701,33.9028376 C17.6609174,34.3535924 19.027576,34.2202585 20.7450457,33.502836 C22.4625154,32.7854135 23.7291984,31.8187464 24.5450945,30.6028345 Z M37.4657761,29.0342239 C39.2578843,29.8263322 40.424551,30.4929988 40.9657761,31.0342239 C41.5070012,31.575449 42.3403345,32.575449 43.4657761,34.0342239 C46.1324428,32.8265874 47.4657761,31.1599207 47.4657761,29.0342239 C47.4657761,26.9085271 46.1324428,25.2418605 43.4657761,24.0342239 C42.3761241,25.4572092 41.5427908,26.4572092 40.9657761,27.0342239 C40.3887614,27.6112386 39.2220947,28.2779053 37.4657761,29.0342239 Z M41.2658249,23.8842224 C39.5670479,23.6904513 37.9670317,23.9071185 36.4657761,24.5342239 C34.9645205,25.1613293 33.9311953,26.0446631 33.3658005,27.1842254 C34.3816478,27.6349803 35.7483064,27.5016464 37.4657761,26.7842239 C39.1832458,26.0668014 40.4499288,25.1001342 41.2658249,23.8842224 Z M41.2658249,34.0951205 C40.4499288,32.8792086 39.1832458,31.9125414 37.4657761,31.1951189 C35.7483064,30.4776964 34.3816478,30.3443626 33.3658005,30.7951174 C33.9311953,31.9346797 34.9645205,32.8180135 36.4657761,33.4451189 C37.9670317,34.0722243 39.5670479,34.2888915 41.2658249,34.0951205 Z M22.9062331,23.0034637 C22.1991263,21.2267609 21.8455729,19.9303984 21.8455729,19.1143764 C21.8455729,18.2983545 21.9634241,17.001992 22.1991263,15.2252891 C19.4595802,14.1935991 17.3382599,14.4293013 15.8351653,15.9323959 C14.3320707,17.4354905 14.0963684,19.5568109 15.1280585,22.296357 C16.9553755,22.0606547 18.2517379,21.9428036 19.0171458,21.9428036 C19.7825537,21.9428036 21.0789161,22.296357 22.9062331,23.0034637 Z M34.9416552,35.0388858 C35.648762,36.8662028 36.0023154,38.1625653 36.0023154,38.9279731 C36.0023154,39.693381 35.8844642,40.9897434 35.648762,42.8170604 C38.3883081,43.8487505 40.5096284,43.6130483 42.012723,42.1099536 C43.5158176,40.606859 43.7515199,38.4855387 42.7198298,35.7459926 C40.9431269,35.9816949 39.6467645,36.099546 38.8307425,36.099546 C38.0147205,36.099546 36.7183581,35.7459926 34.9416552,35.0388858 Z M34.9416552,23.0034637 C36.7689722,22.296357 38.0653346,21.9428036 38.8307425,21.9428036 C39.5961503,21.9428036 40.8925128,22.0606547 42.7198298,22.296357 C43.7515199,19.5568109 43.5158176,17.4354905 42.012723,15.9323959 C40.5096284,14.4293013 38.3883081,14.1935991 35.648762,15.2252891 C35.8844642,17.001992 36.0023154,18.2983545 36.0023154,19.1143764 C36.0023154,19.9303984 35.648762,21.2267609 34.9416552,23.0034637 Z M22.9062331,35.0388858 C21.1295302,35.7459926 19.8331678,36.099546 19.0171458,36.099546 C18.2011238,36.099546 16.9047614,35.9816949 15.1280585,35.7459926 C14.0963684,38.4855387 14.3320707,40.606859 15.8351653,42.1099536 C17.3382599,43.6130483 19.4595802,43.8487505 22.1991263,42.8170604 C21.9634241,40.9897434 21.8455729,39.693381 21.8455729,38.9279731 C21.8455729,38.1625653 22.1991263,36.8662028 22.9062331,35.0388858 Z M28.9537312,32 C30.6105854,32 31.9537312,30.6568542 31.9537312,29 C31.9537312,27.3431458 30.6105854,26 28.9537312,26 C27.2968769,26 25.9537312,27.3431458 25.9537312,29 C25.9537312,30.6568542 27.2968769,32 28.9537312,32 Z" id="icon_sm-wallpaper" fill="#34AADC"></path>
    </g>
</svg>