<?xml version="1.0" encoding="UTF-8"?>
<svg width="167px" height="167px" viewBox="0 0 167 167" version="1.1" xmlns="http://www.w3.org/2000/svg" xmlns:xlink="http://www.w3.org/1999/xlink">
    <!-- Generator: Sketch 48.2 (47327) - http://www.bohemiancoding.com/sketch -->
    <title>icon_tv</title>
    <desc>Created with Sketch.</desc>
    <defs>
        <linearGradient x1="-17.6424914%" y1="-19.0474491%" x2="100%" y2="100%" id="linearGradient-1">
            <stop stop-color="#00DBE9" offset="0%"></stop>
            <stop stop-color="#00F8CB" offset="39.670902%"></stop>
            <stop stop-color="#00BCD7" offset="100%"></stop>
        </linearGradient>
    </defs>
    <g id="icon_tv" stroke="none" stroke-width="1" fill="none" fill-rule="evenodd">
        <g>
            <rect id="bg" fill="#282829" x="0" y="0" width="167" height="167" rx="36"></rect>
            <path d="M28.5657895,48.1447368 L28.5657895,107.868421 C28.5657895,108.972991 29.46122,109.868421 30.5657895,109.868421 L136.434211,109.868421 C137.53878,109.868421 138.434211,108.972991 138.434211,107.868421 L138.434211,48.1447368 C138.434211,47.0401673 137.53878,46.1447368 136.434211,46.1447368 L30.5657895,46.1447368 C29.46122,46.1447368 28.5657895,47.0401673 28.5657895,48.1447368 Z M31.0697674,41.75 L135.930233,41.75 C139.740288,41.75 142.828947,44.8127591 142.828947,48.590864 L142.828947,107.422294 C142.828947,111.200399 139.740288,114.263158 135.930233,114.263158 L31.0697674,114.263158 C27.2597125,114.263158 24.1710526,111.200399 24.1710526,107.422294 L24.1710526,48.590864 C24.1710526,44.8127591 27.2597125,41.75 31.0697674,41.75 Z" id="Rectangle" fill="#FFFFFF" fill-rule="nonzero"></path>
            <path d="M30.5657895,46.1447368 L136.434211,46.1447368 C137.53878,46.1447368 138.434211,47.0401673 138.434211,48.1447368 L138.434211,107.868421 C138.434211,108.972991 137.53878,109.868421 136.434211,109.868421 L30.5657895,109.868421 C29.46122,109.868421 28.5657895,108.972991 28.5657895,107.868421 L28.5657895,48.1447368 C28.5657895,47.0401673 29.46122,46.1447368 30.5657895,46.1447368 Z" id="Rectangle-3" fill="url(#linearGradient-1)"></path>
            <path d="M52.5394737,119.756579 L114.460526,119.756579 C115.565096,119.756579 116.460526,120.652009 116.460526,121.756579 L116.460526,123.25 C116.460526,124.354569 115.565096,125.25 114.460526,125.25 L52.5394737,125.25 C51.4349042,125.25 50.5394737,124.354569 50.5394737,123.25 L50.5394737,121.756579 C50.5394737,120.652009 51.4349042,119.756579 52.5394737,119.756579 Z" id="Rectangle-2" fill="#FFFFFF"></path>
        </g>
    </g>
</svg>