<?xml version="1.0" encoding="UTF-8"?>
<svg width="14px" height="34px" viewBox="0 0 14 34" version="1.1" xmlns="http://www.w3.org/2000/svg" xmlns:xlink="http://www.w3.org/1999/xlink">
    <!-- Generator: Sketch 48.2 (47327) - http://www.bohemiancoding.com/sketch -->
    <title>text_s_wh</title>
    <desc>Created with Sketch.</desc>
    <defs></defs>
    <g id="Symbols" stroke="none" stroke-width="1" fill="none" fill-rule="evenodd">
        <g id="text_s_wh" fill="#F9F9F9">
            <path d="M0.478632479,12.5445785 C0.478632479,9.56688332 3.1965812,7.44234801 7.11111111,7.44234801 C10.7863248,7.44234801 13.4871795,9.58361195 13.6239316,12.5278499 L10.7863248,12.5278499 C10.5811966,10.8549874 9.1965812,9.81781269 7.00854701,9.81781269 C4.83760684,9.81781269 3.4017094,10.871716 3.4017094,12.3940209 C3.4017094,13.5984818 4.34188034,14.4014558 6.35897436,14.9033146 L9.11111111,15.5557309 C12.7008547,16.442348 14,17.7137235 14,20.273203 C14,23.3010841 11.0769231,25.442348 6.92307692,25.442348 C3.02564103,25.442348 0.307692308,23.3679986 0,20.2899317 L2.97435897,20.2899317 C3.2991453,22.0966231 4.7008547,23.0668833 7.11111111,23.0668833 C9.52136752,23.0668833 11.008547,22.0631659 11.008547,20.4906751 C11.008547,19.2527569 10.2735043,18.5836119 8.27350427,18.0650246 L5.14529915,17.2787792 C2.01709402,16.4925339 0.478632479,14.9200432 0.478632479,12.5445785 Z"></path>
        </g>
    </g>
</svg>