<?xml version="1.0" encoding="UTF-8"?>
<svg width="16px" height="34px" viewBox="0 0 16 34" version="1.1" xmlns="http://www.w3.org/2000/svg" xmlns:xlink="http://www.w3.org/1999/xlink">
    <!-- Generator: Sketch 48.2 (47327) - http://www.bohemiancoding.com/sketch -->
    <title>text_g_wh</title>
    <desc>Created with Sketch.</desc>
    <defs></defs>
    <g id="Symbols" stroke="none" stroke-width="1" fill="none" fill-rule="evenodd">
        <g id="text_g_wh" fill="#F9F9F9">
            <path d="M8.08421053,32.442348 C4.22736842,32.442348 1.17894737,30.2182101 0.690526316,27.1664859 L3.70526316,27.1664859 C4.27789474,28.804417 6.01263158,29.8906239 8.20210526,29.8906239 C11.2336842,29.8906239 13.0694737,28.0975204 13.0694737,25.4251066 L13.0694737,22.5975204 L13.0021053,22.5975204 C11.9242105,24.5457963 9.85263158,25.8216584 7.39368421,25.8216584 C2.93052632,25.8216584 0,22.2182101 0,16.6492446 C0,11.0285549 2.93052632,7.44234801 7.46105263,7.44234801 C9.93684211,7.44234801 11.9915789,8.68372732 13.1536842,10.7699342 L13.2042105,10.7699342 L13.2042105,7.75269284 L16,7.75269284 L16,25.3216584 C16,29.5975204 12.9178947,32.442348 8.08421053,32.442348 Z M7.98315789,23.1837273 C11.0315789,23.1837273 13.0694737,20.5975204 13.0694737,16.6492446 C13.0694737,12.7009687 11.0315789,10.080279 7.98315789,10.080279 C4.96842105,10.080279 2.99789474,12.6320032 2.99789474,16.6492446 C2.99789474,20.6664859 4.96842105,23.1837273 7.98315789,23.1837273 Z"></path>
        </g>
    </g>
</svg>