<svg id="Layer_1" data-name="Layer 1" xmlns="http://www.w3.org/2000/svg" xmlns:xlink="http://www.w3.org/1999/xlink" viewBox="0 0 142 142"><defs><style>.cls-1{fill:none;}.cls-2{fill:url(#linear-gradient);}.cls-3{fill:#f4f4f4;}.cls-4{fill:url(#linear-gradient-2);}.cls-5{fill:url(#linear-gradient-3);}.cls-6{clip-path:url(#clip-path);}.cls-7{fill:#231f20;}.cls-8{fill:#302d2e;}.cls-9{fill:#3d3b3c;}.cls-10{fill:#49494b;}.cls-11{fill:#565759;}.cls-12{fill:#4a4a4b;}.cls-13{fill:#3e3c3e;}.cls-14{fill:#312f30;}.cls-15{fill:#252122;}.cls-16{fill:#2f2c2d;}.cls-17{fill:#3b393b;}.cls-18{fill:#474648;}.cls-19{fill:#535355;}.cls-20{fill:#5f5f61;}.cls-21{fill:#6a6b6d;}.cls-22{fill:#767679;}.cls-23{fill:#818285;}.cls-24{fill:#8d8e90;}.cls-25{fill:#989a9c;}.cls-26{fill:#a4a5a8;}.cls-27{fill:#afb1b4;}.cls-28{fill:#b1b3b6;}.cls-29{fill:#a6a7aa;}.cls-30{fill:#9a9c9e;}.cls-31{fill:#8f9093;}.cls-32{fill:#838587;}.cls-33{fill:#78797b;}.cls-34{fill:#6c6e6f;}.cls-35{fill:#616264;}.cls-36{fill:#555758;}.cls-37{fill:#4a4b4c;}.cls-38{fill:url(#linear-gradient-4);}.cls-39{fill:url(#linear-gradient-5);}</style><linearGradient id="linear-gradient" x1="13.44" y1="12.82" x2="127.76" y2="128.37" gradientUnits="userSpaceOnUse"><stop offset="0" stop-color="#d5732a"/><stop offset="1" stop-color="#d9302e"/></linearGradient><linearGradient id="linear-gradient-2" x1="-52.54" y1="127.89" x2="-77.59" y2="76.37" gradientTransform="matrix(1.55, 0.01, 0.01, 1.54, 134.98, -36.68)" gradientUnits="userSpaceOnUse"><stop offset="0" stop-opacity="0"/><stop offset="0.59" stop-color="#231f20" stop-opacity="0.4"/><stop offset="0.86" stop-color="#231f20" stop-opacity="0.8"/><stop offset="1"/></linearGradient><linearGradient id="linear-gradient-3" x1="459.62" y1="51.51" x2="485.67" y2="51.51" gradientTransform="translate(-377.95 314.9) rotate(-29.23)" gradientUnits="userSpaceOnUse"><stop offset="0"/><stop offset="0.04" stop-color="#302d2e"/><stop offset="0.14" stop-color="#303030"/><stop offset="0.46" stop-color="#252122"/><stop offset="0.7"/><stop offset="0.76" stop-color="#2d2d2d"/><stop offset="0.81" stop-color="#a3a3a3"/><stop offset="0.91" stop-color="#a6a6a6"/><stop offset="0.96" stop-color="#242424"/><stop offset="1" stop-color="#3d3d3d"/></linearGradient><clipPath id="clip-path"><path class="cls-1" d="M58.14,104.46,39.48,114.91a.4.4,0,0,1-.53-.17L33.56,94.63c-.09-.18-.1-.36,0-.42l10-5.61c.1-.06.26,0,.36.22l14.32,15.1A.39.39,0,0,1,58.14,104.46Z"/></clipPath><linearGradient id="linear-gradient-4" x1="269.42" y1="-9.05" x2="277.59" y2="-9.05" gradientTransform="matrix(1.05, -0.59, 0.45, 0.81, -245.71, 254.74)" gradientUnits="userSpaceOnUse"><stop offset="0"/><stop offset="0.04" stop-color="#302d2e"/><stop offset="0.14" stop-color="#303030"/><stop offset="0.42" stop-color="#252122"/><stop offset="0.75"/><stop offset="0.94" stop-color="#2d2d2d"/><stop offset="1" stop-color="#3d3d3d"/></linearGradient><linearGradient id="linear-gradient-5" x1="471.52" y1="-4.03" x2="473.74" y2="-4.03" gradientTransform="translate(-441.22 82.93) scale(1 1.08)" gradientUnits="userSpaceOnUse"><stop offset="0" stop-color="#fff"/><stop offset="0.5" stop-color="#252122"/><stop offset="1" stop-color="#fff"/></linearGradient></defs><title>comic_draw</title><rect id="bg1" class="cls-2" width="142" height="142" rx="26.99" ry="26.99"/><path id="bg2" class="cls-3" d="M118.69,141.86A22.71,22.71,0,0,0,141.22,116l-.06-.41c-1.12-7.2-5.42-11.44-6.14-18.09-.63-5.82.45-11.89,0-17.88-.54-6.87-2.23-13.77-6.13-19.54a37.49,37.49,0,0,0-5.25-6.34c-1.56-1.46-7.94-3.91-8.43-5.14-.22-.56,1.52-3.95,1.74-4.56,1.69-4.67,2.87-8.94,2.64-14-.37-8.37-4.63-16.28-12.45-19.68a18.36,18.36,0,0,0-24.54,9,37.47,37.47,0,0,0-2.28,7.75,66.32,66.32,0,0,0-1.18,6.71,29.67,29.67,0,0,0-10.78,1.39,34.66,34.66,0,0,0-7.05,3.39,132.24,132.24,0,0,0-13.2,9.14L0,32.3s0,49,0,86.82a22.74,22.74,0,0,0,22.74,22.74Z"/><path id="pen_shadow" class="cls-4" d="M24.77,108.92l3.79,32.87,19.19.19L36.91,92.24a.06.06,0,0,1,0,0L34.57,82a.11.11,0,0,0,0-.07l-5.69-9.52a.25.25,0,0,0-.33-.09l-1,.54a.27.27,0,0,0-.12.22l.48,4.3-.51,1,0,2.69-1.06,1,1.79,25Z"/><g id="pen"><path class="cls-5" d="M52,142,37.65,116.39a.4.4,0,0,1,.16-.55l22-12.31a.41.41,0,0,1,.55.15L81.83,142Z"/><path d="M58,104.54l-18.4,10.29a.4.4,0,0,1-.59-.25l-5.45-20a.42.42,0,0,1,.2-.46l9.66-5.41a.41.41,0,0,1,.5.08L58.1,103.9A.41.41,0,0,1,58,104.54Z"/><g class="cls-6"><path class="cls-7" d="M33.38,94.31l5.77,20.78Z"/><polygon class="cls-7" points="33.6 94.19 39.54 114.87 39.15 115.09 33.38 94.31 33.6 94.19"/><polygon class="cls-8" points="33.81 94.07 39.94 114.65 39.54 114.87 33.6 94.19 33.81 94.07"/><polygon class="cls-8" points="34.08 93.92 40.44 114.37 39.94 114.65 33.81 94.07 34.08 93.92"/><polygon class="cls-9" points="34.34 93.77 40.94 114.09 40.44 114.37 34.08 93.92 34.34 93.77"/><polygon class="cls-10" points="34.61 93.62 41.44 113.81 40.94 114.09 34.34 93.77 34.61 93.62"/><polygon class="cls-11" points="34.88 93.47 41.94 113.53 41.44 113.81 34.61 93.62 34.88 93.47"/><polygon class="cls-11" points="35.55 93.1 43.17 112.84 41.94 113.53 34.88 93.47 35.55 93.1"/><polygon class="cls-12" points="36.21 92.73 44.41 112.15 43.17 112.84 35.55 93.1 36.21 92.73"/><polygon class="cls-13" points="36.88 92.36 45.64 111.46 44.41 112.15 36.21 92.73 36.88 92.36"/><polygon class="cls-14" points="37.54 91.98 46.88 110.76 45.64 111.46 36.88 92.36 37.54 91.98"/><polygon class="cls-15" points="38.2 91.61 48.11 110.07 46.88 110.76 37.54 91.98 38.2 91.61"/><polygon class="cls-15" points="39.45 90.91 50.44 108.77 48.11 110.07 38.2 91.61 39.45 90.91"/><polygon class="cls-7" points="40.7 90.21 52.76 107.47 50.44 108.77 39.45 90.91 40.7 90.21"/><polygon class="cls-7" points="40.82 90.15 52.99 107.34 52.76 107.47 40.7 90.21 40.82 90.15"/><polygon class="cls-16" points="40.95 90.08 53.21 107.22 52.99 107.34 40.82 90.15 40.95 90.08"/><polygon class="cls-17" points="41.07 90.01 53.44 107.09 53.21 107.22 40.95 90.08 41.07 90.01"/><polygon class="cls-18" points="41.19 89.94 53.67 106.97 53.44 107.09 41.07 90.01 41.19 89.94"/><polygon class="cls-19" points="41.31 89.87 53.89 106.84 53.67 106.97 41.19 89.94 41.31 89.87"/><polygon class="cls-19" points="41.36 89.84 53.99 106.78 53.89 106.84 41.31 89.87 41.36 89.84"/><polygon class="cls-20" points="41.41 89.82 54.08 106.73 53.99 106.78 41.36 89.84 41.41 89.82"/><polygon class="cls-21" points="41.46 89.79 54.17 106.68 54.08 106.73 41.41 89.82 41.46 89.79"/><polygon class="cls-22" points="41.51 89.76 54.27 106.63 54.17 106.68 41.46 89.79 41.51 89.76"/><polygon class="cls-23" points="41.56 89.73 54.36 106.58 54.27 106.63 41.51 89.76 41.56 89.73"/><polygon class="cls-24" points="41.61 89.7 54.45 106.52 54.36 106.58 41.56 89.73 41.61 89.7"/><polygon class="cls-25" points="41.66 89.68 54.55 106.47 54.45 106.52 41.61 89.7 41.66 89.68"/><polygon class="cls-26" points="41.71 89.65 54.64 106.42 54.55 106.47 41.66 89.68 41.71 89.65"/><polygon class="cls-27" points="41.77 89.62 54.74 106.37 54.64 106.42 41.71 89.65 41.77 89.62"/><polygon class="cls-27" points="42.33 89.31 55.78 105.78 54.74 106.37 41.77 89.62 42.33 89.31"/><polygon class="cls-28" points="42.88 88.99 56.82 105.2 55.78 105.78 42.33 89.31 42.88 88.99"/><polygon class="cls-28" points="42.93 88.97 56.9 105.16 56.82 105.2 42.88 88.99 42.93 88.97"/><polygon class="cls-29" points="42.97 88.94 56.98 105.11 56.9 105.16 42.93 88.97 42.97 88.94"/><polygon class="cls-30" points="43.01 88.92 57.06 105.07 56.98 105.11 42.97 88.94 43.01 88.92"/><polygon class="cls-31" points="43.05 88.9 57.14 105.02 57.06 105.07 43.01 88.92 43.05 88.9"/><polygon class="cls-32" points="43.1 88.87 57.22 104.98 57.14 105.02 43.05 88.9 43.1 88.87"/><polygon class="cls-33" points="43.14 88.85 57.3 104.93 57.22 104.98 43.1 88.87 43.14 88.85"/><polygon class="cls-34" points="43.18 88.83 57.37 104.89 57.3 104.93 43.14 88.85 43.18 88.83"/><polygon class="cls-35" points="43.23 88.8 57.45 104.85 57.37 104.89 43.18 88.83 43.23 88.8"/><polygon class="cls-36" points="43.27 88.78 57.53 104.8 57.45 104.85 43.23 88.8 43.27 88.78"/><polygon class="cls-37" points="43.31 88.75 57.61 104.76 57.53 104.8 43.27 88.78 43.31 88.75"/><polygon class="cls-37" points="43.54 88.63 58.04 104.52 57.61 104.76 43.31 88.75 43.54 88.63"/><polygon class="cls-35" points="43.77 88.5 58.47 104.28 58.04 104.52 43.54 88.63 43.77 88.5"/><path class="cls-35" d="M58.47,104.28,43.77,88.5Z"/></g><path class="cls-38" d="M42.45,89.29,34.76,93.6c-.27.14-.57.07-.64-.15l-2.68-8.54a.47.47,0,0,1,.27-.51l4.49-2.51a.46.46,0,0,1,.57,0l5.88,6.75A.42.42,0,0,1,42.45,89.29Z"/><rect class="cls-39" x="30.3" y="73.39" width="2.21" height="10.42" transform="translate(-34.38 25.35) rotate(-29.23)"/><rect x="27.74" y="72.46" width="1.49" height="1.67" transform="translate(-32.17 23.25) rotate(-29.23)"/></g><path id="character" d="M139.32,104.67c-.82-1.25-1.37-1.68-2.12-2.86a16,16,0,0,1-2.25-9.4A42.07,42.07,0,0,0,136,78.1a36.94,36.94,0,0,0-6.73-18.65,32.71,32.71,0,0,0-6.93-6.92,31,31,0,0,0-7.08-3.82,26.83,26.83,0,0,0,3-6.05c3-8.67,3.16-23.38-6.82-30.36A20.9,20.9,0,0,0,92.78,9.88C82.49,13.62,79.52,24.8,78.91,27.1a26.59,26.59,0,0,0-.86,5.69A41.14,41.14,0,0,0,64.67,36a48.34,48.34,0,0,0-5.46,2.79A82.85,82.85,0,0,0,47.37,47L0,32c.06.25-.07.49,0,.73,15.36,5,30.92,10,46.28,15a82.13,82.13,0,0,0-13,15.36c-1.78,2.78-5.91,10.6-5.91,10.6s5.11-7,6.3-8.5c2.28-3,4.65-5.86,7.15-8.64,4.57-5.1,9.71-10.64,16-13.61a32.92,32.92,0,0,0-2.08,19.7c.29,1.65.68,3.28,1.13,4.89.36,1.28.81,2.13-.06,3.24-.73.93-7.86,6.17-7.52,6.92L57.26,72c.72,2,1.57,4.2,2.59,6.46s2.07,4.35,3.11,6.23a96.12,96.12,0,0,1-4.05-12.74A76.16,76.16,0,0,1,57,61.74c-.07-.66-.26-2.57-.27-4.21,0-1.93-.07-12.38,7.47-18.58a19.55,19.55,0,0,1,10.5-4.23c-1.07.88-9.17,7.78-9.09,19.38C65.68,66,74.36,72.9,75.4,73.69A31.84,31.84,0,0,0,78,89.27c-.61.79-1.23,1.59-1.84,2.41q-1.69,2.26-3.25,4.47c.38.36,17.26-15.84,19.15-17.5,5.88-5.19,12.63-13.27,21.32-11.32a11.9,11.9,0,0,1,8.51,6.44,12.1,12.1,0,0,1,.62,7.4c-1.17,6.61-5.67,10.85-11.65,16.34a106.83,106.83,0,0,1-14.48,10.85c-2.68,1.76-5,3.13-7.18,4.47-5.27,3.16-9.74,5.64-13,7.37l8.49-3.82A56.16,56.16,0,0,0,88.57,121,56.94,56.94,0,0,0,96,127.74c-2.09-2.19-4.22-4.56-6.36-7.1q-2-2.42-3.85-4.76c4.69-2.14,9.72-4.68,15-7.71,4.57-2.64,8.74-5.33,12.49-8a14.22,14.22,0,0,0,6.12-1.36c8.63-4.18,12.74-18,8-27.72-.4-.81-4.38-8.74-11.2-9.38-5-.46-7.13,3.37-13.84,6.86-2.07,1.08-16.88,8.78-26.7,2.43-7.64-5-9.86-16.84-7-25.74a24.54,24.54,0,0,1,7.13-10.72l2.08-.16C71,41.94,68.11,54,72.9,63.52,78.21,74,91.09,70,99.18,65.4c4.66-2.64,8.95-6.66,14.25-7.94a12,12,0,0,1,12.5,4.37c6.63,8.12,8,20.49,4.9,30.27a53.57,53.57,0,0,1-8.21,15.57c-3.68,5-8.1,9-12.49,13.27a53,53,0,0,0,6.49-4.41,56.2,56.2,0,0,0,15.57-19.67l1.23,7.49a5.63,5.63,0,0,1,2.85,9.58l5.24,3.59.49-4.27A16.93,16.93,0,0,0,139.32,104.67Zm-62.52-30a29.15,29.15,0,0,0,18.81-1.31c-3,2.39-6.2,5-9.42,8q-3.73,3.42-7,6.72A36.23,36.23,0,0,1,76.8,74.65Zm31.7-46.33c-.71-.08-1.41-.19-2.13-.29l-.2-2.28h-.08l-.37,2.1-3.24-1.14a5.91,5.91,0,0,0,3,2.65c-.28,1.45-.54,2.87-.83,4.39a70,70,0,0,1-9.16-3.56,69.5,69.5,0,0,1-8.57-4.78,20,20,0,0,0,7.63,18.65c2.73-1.82,5.41-3.71,8.83-4.58l-1.48,5.16L96.68,47.2l4.2.42c-.47,1.21-1,2.45-1.54,3.71-.41,1-.84,1.88-1.26,2.78a15.85,15.85,0,0,0,2.43-2.47,15.34,15.34,0,0,0,2-3.33l2.59,1.36-1.35-4.4q.7-2.6,1.4-5.19l1.74,2.1c.79,1,1.58,1.92,2.35,2.88,1.29-1,2.11-1.72,2.62-2.18.23-.2,1-.88,2.06-1.73l.12-.1,0,.19c-.66,1.91-1,4-2,5.69-2.45,4.17-5.11,8.22-9.17,11.1a15.39,15.39,0,0,1-7,2.67,9.23,9.23,0,0,1-9-3.75,21.61,21.61,0,0,1-3.7-8.39,44.85,44.85,0,0,1-1.53-15.75A33.82,33.82,0,0,1,84,22.22c1.16-2.76,2-4.82,4-6.81a15.71,15.71,0,0,1,14.07-4.17,16.24,16.24,0,0,1,9.53,6.53c4.84,6.42,3.77,13.85,3.5,15.47a17.67,17.67,0,0,1-9.09.84c.08-1.52.17-3,.26-4.55a6.8,6.8,0,0,0,4.07-1C109.75,28.44,109.12,28.4,108.5,28.32Z"/></svg>