<?xml version="1.0" encoding="UTF-8"?>
<svg width="2732px" height="2048px" viewBox="0 0 2732 2048" version="1.1" xmlns="http://www.w3.org/2000/svg" xmlns:xlink="http://www.w3.org/1999/xlink">
    <!-- Generator: Sketch 48.2 (47327) - http://www.bohemiancoding.com/sketch -->
    <title>bg</title>
    <desc>Created with Sketch.</desc>
    <defs></defs>
    <g id="screen" stroke="none" stroke-width="1" fill="none" fill-rule="evenodd">
        <g id="bg">
            <rect fill="#2D2D2D" x="0" y="0" width="2732" height="2048"></rect>
            <g id="rect" opacity="0.2" stroke="#000000" stroke-width="3">
                <rect id="rect0" x="1.5" y="1.5" width="2729" height="2045"></rect>
                <rect id="rect1" x="1.5" y="512.5" width="2729" height="1024"></rect>
                <rect id="rect2" x="1.5" y="765.5" width="2729" height="517"></rect>
                <rect id="rect3" x="1.5" y="893.5" width="2729" height="262"></rect>
                <rect id="rectv1" x="684.5" y="1.5" width="1364" height="2045"></rect>
                <rect id="rectv2" x="1025.5" y="1.5" width="681" height="2045"></rect>
                <rect id="rectv3" x="1197.5" y="1.5" width="338" height="2045"></rect>
            </g>
            <g id="lines" stroke-dasharray="10,15" stroke-linecap="square" stroke-width="3">
                <path d="M0,0 L2732,2048" id="Line" stroke="#6A6A6A"></path>
                <path d="M0,0 L2732,2048" id="Line-Copy" stroke="#6A6A6A" transform="translate(1366.000000, 1024.000000) scale(-1, 1) translate(-1366.000000, -1024.000000) "></path>
                <path d="M681,0 L2051,2048" id="Line-Copy-2" stroke="#494949"></path>
                <path d="M681,0 L2051,2048" id="Line-Copy-3" stroke="#494949" transform="translate(1366.000000, 1024.000000) scale(-1, 1) translate(-1366.000000, -1024.000000) "></path>
                <path d="M1024,0 L1708,2048" id="Line-Copy-4" stroke="#494949"></path>
                <path d="M1024,0 L1708,2048" id="Line-Copy-5" stroke="#494949" transform="translate(1366.000000, 1024.000000) scale(-1, 1) translate(-1366.000000, -1024.000000) "></path>
                <path d="M1194,0 L1538,2048" id="Line-Copy-6" stroke="#494949"></path>
                <path d="M1194,0 L1538,2048" id="Line-Copy-7" stroke="#494949" transform="translate(1366.000000, 1024.000000) scale(-1, 1) translate(-1366.000000, -1024.000000) "></path>
                <path d="M1366,0 L1366,2048" id="Line-Copy-8" stroke="#494949"></path>
                <path d="M2732,1024 L0,1024" id="Line-Copy-9" stroke="#494949"></path>
                <path d="M2732,1150.99588 L0,898" id="Line-Copy-10" stroke="#494949"></path>
                <path d="M2732,1152 L0,897" id="Line-Copy-11" stroke="#494949" transform="translate(1366.000000, 1024.500000) scale(1, -1) translate(-1366.000000, -1024.500000) "></path>
                <path d="M2732,1279 L0,769" id="Line-Copy-12" stroke="#494949"></path>
                <path d="M2732,1279 L0,769" id="Line-Copy-13" stroke="#494949" transform="translate(1366.000000, 1024.000000) scale(1, -1) translate(-1366.000000, -1024.000000) "></path>
                <path d="M2732,1535 L0,513" id="Line-Copy-14" stroke="#494949"></path>
                <path d="M2732,1535 L0,513" id="Line-Copy-15" stroke="#494949" transform="translate(1366.000000, 1024.000000) scale(1, -1) translate(-1366.000000, -1024.000000) "></path>
            </g>
            <g id="ovals" stroke="#444444" stroke-width="3">
                <ellipse id="oval" cx="1366" cy="1024" rx="1366" ry="1024"></ellipse>
                <ellipse id="oval2" cx="1366.5" cy="1024.5" rx="1023.5" ry="767.5"></ellipse>
                <ellipse id="oval3" cx="1366" cy="1024.5" rx="685" ry="513.5"></ellipse>
                <ellipse id="oval4" cx="1366" cy="1024" rx="343" ry="257"></ellipse>
                <ellipse id="oval5" cx="1366.5" cy="1024" rx="170.5" ry="128"></ellipse>
            </g>
            <path d="M1153.64,1028.885 C1153.12666,1029.49167 1152.81167,1030.22666 1152.695,1031.09 C1153.74501,1029.96999 1155.01666,1029.41 1156.51,1029.41 C1157.88667,1029.41 1159.33333,1030.01666 1160.85,1031.23 C1162.53001,1032.56001 1163.825,1033.225 1164.735,1033.225 C1165.38834,1033.225 1165.91916,1033.00917 1166.3275,1032.5775 C1166.73584,1032.14583 1166.94,1031.59167 1166.94,1030.915 C1166.94,1030.68167 1166.89333,1030.425 1166.8,1030.145 C1166.42666,1030.51834 1166.00667,1030.705 1165.54,1030.705 C1164.53666,1030.705 1164.035,1030.215 1164.035,1029.235 C1164.035,1028.69833 1164.23333,1028.255 1164.63,1027.905 C1165.02667,1027.555 1165.55166,1027.38 1166.205,1027.38 C1167.06834,1027.38 1167.7625,1027.68916 1168.2875,1028.3075 C1168.8125,1028.92584 1169.075,1029.74833 1169.075,1030.775 C1169.075,1032.22167 1168.62,1033.45833 1167.71,1034.485 C1166.8,1035.51167 1165.69167,1036.025 1164.385,1036.025 C1163.14833,1036.025 1161.66084,1035.36001 1159.9225,1034.03 C1158.18416,1032.69999 1156.66167,1032.035 1155.355,1032.035 C1154.04833,1032.035 1153.23167,1032.525 1152.905,1033.505 C1153.13833,1033.45833 1153.27833,1033.435 1153.325,1033.435 C1154.00167,1033.435 1154.34,1033.77333 1154.34,1034.45 C1154.34,1035.50001 1153.75667,1036.025 1152.59,1036.025 C1151.82,1036.025 1151.19584,1035.6925 1150.7175,1035.0275 C1150.23916,1034.3625 1150,1033.47001 1150,1032.35 C1150,1028.26665 1152.81164,1025.32668 1158.435,1023.53 L1160.955,1022.725 C1163.77835,1021.815 1165.19,1020.28668 1165.19,1018.14 C1165.19,1016.69333 1164.68251,1015.55 1163.6675,1014.71 C1162.65249,1013.87 1161.25834,1013.45 1159.485,1013.45 C1157.92166,1013.45 1156.62667,1013.765 1155.6,1014.395 C1154.57333,1015.025 1153.96667,1015.88833 1153.78,1016.985 C1155.04001,1017.07833 1155.67,1017.62666 1155.67,1018.63 C1155.67,1019.23667 1155.44834,1019.75583 1155.005,1020.1875 C1154.56166,1020.61917 1154.01334,1020.835 1153.36,1020.835 C1152.56666,1020.835 1151.93084,1020.56084 1151.4525,1020.0125 C1150.97416,1019.46416 1150.735,1018.74667 1150.735,1017.86 C1150.735,1015.94666 1151.59832,1014.34834 1153.325,1013.065 C1155.05168,1011.78166 1157.18665,1011.14 1159.73,1011.14 C1162.20335,1011.14 1164.22749,1011.78749 1165.8025,1013.0825 C1167.37751,1014.37751 1168.165,1016.05166 1168.165,1018.105 C1168.165,1019.50501 1167.78584,1020.74166 1167.0275,1021.815 C1166.26916,1022.88834 1165.21334,1023.69333 1163.86,1024.23 C1163.44,1024.39333 1162.04001,1024.88333 1159.66,1025.7 C1157.95666,1026.28334 1156.59167,1026.84333 1155.565,1027.38 C1154.81833,1027.77667 1154.17667,1028.27833 1153.64,1028.885 Z M1175.18939,1013.24 L1175.11939,1013.625 C1175.70273,1012.69166 1176.22772,1012.06167 1176.69439,1011.735 C1177.16106,1011.40833 1177.79106,1011.245 1178.58439,1011.245 C1179.72773,1011.245 1181.06939,1011.83999 1182.60939,1013.03 C1184.33607,1014.36001 1185.66606,1015.025 1186.59939,1015.025 C1187.5794,1015.025 1188.18606,1014.69834 1188.41939,1014.045 L1188.13939,1014.045 C1187.81273,1014.045 1187.51523,1013.905 1187.24689,1013.625 C1186.97856,1013.345 1186.84439,1013.03 1186.84439,1012.68 C1186.84439,1012.23666 1187.01356,1011.8575 1187.35189,1011.5425 C1187.69023,1011.2275 1188.09272,1011.07 1188.55939,1011.07 C1190.0994,1011.07 1190.86939,1012.10832 1190.86939,1014.185 C1190.86939,1015.72501 1190.4844,1017.07833 1189.71439,1018.245 C1189.22439,1018.96834 1188.6994,1019.59833 1188.13939,1020.135 C1187.88273,1020.39167 1187.3694,1020.85833 1186.59939,1021.535 C1185.01272,1022.91167 1183.92773,1024.18333 1183.34439,1025.35 C1182.50439,1027.00667 1182.08439,1029.01332 1182.08439,1031.37 C1182.08439,1031.32333 1182.09606,1031.58 1182.11939,1032.14 C1182.16606,1033.26001 1182.18939,1033.76167 1182.18939,1033.645 C1182.18939,1035.11501 1181.60607,1035.85 1180.43939,1035.85 C1179.22605,1035.85 1178.61939,1034.89334 1178.61939,1032.98 C1178.61939,1029.96998 1179.17939,1027.34501 1180.29939,1025.105 C1181.2094,1023.28499 1183.14605,1021.16168 1186.10939,1018.735 C1187.32273,1017.73166 1188.01106,1016.90334 1188.17439,1016.25 C1187.38106,1016.92667 1186.37773,1017.265 1185.16439,1017.265 C1183.67105,1017.265 1182.21273,1016.72834 1180.78939,1015.655 L1179.35439,1014.57 C1178.84106,1014.19666 1178.2694,1014.01 1177.63939,1014.01 C1176.14605,1014.01 1175.39939,1014.96666 1175.39939,1016.88 C1175.39939,1017.46334 1175.44606,1017.98833 1175.53939,1018.455 C1175.70273,1019.27167 1175.78439,1019.87833 1175.78439,1020.275 C1175.78439,1020.67167 1175.65023,1021.01 1175.38189,1021.29 C1175.11356,1021.57 1174.78106,1021.71 1174.38439,1021.71 C1173.45106,1021.71 1172.98439,1021.20834 1172.98439,1020.205 C1172.98439,1019.80833 1173.04856,1019.20167 1173.17689,1018.385 C1173.30523,1017.56833 1173.36939,1016.93834 1173.36939,1016.495 C1173.36939,1015.84166 1173.32273,1015.14167 1173.22939,1014.395 C1173.13606,1013.64833 1173.08939,1012.995 1173.08939,1012.435 C1173.08939,1011.47833 1173.49772,1011 1174.31439,1011 C1174.99106,1011 1175.32939,1011.40833 1175.32939,1012.225 C1175.32939,1012.38833 1175.28273,1012.72666 1175.18939,1013.24 Z M1201.00879,1021.64 L1208.28879,1014.5 L1200.16879,1014.5 C1199.25878,1014.5 1198.65212,1014.55833 1198.34879,1014.675 C1197.76545,1014.86167 1197.47379,1015.31666 1197.47379,1016.04 C1197.47379,1016.27333 1197.49712,1016.61166 1197.54379,1017.055 C1197.59045,1017.49834 1197.61379,1017.83667 1197.61379,1018.07 C1197.61379,1019.28334 1197.20546,1019.89 1196.38879,1019.89 C1195.59545,1019.89 1195.19879,1019.38834 1195.19879,1018.385 C1195.19879,1018.105 1195.21629,1017.67917 1195.25129,1017.1075 C1195.28629,1016.53583 1195.30379,1016.11 1195.30379,1015.83 C1195.30379,1015.17666 1195.29212,1014.68667 1195.26879,1014.36 C1195.24545,1014.03333 1195.23379,1013.67167 1195.23379,1013.275 C1195.23379,1012.645 1195.35045,1012.25417 1195.58379,1012.1025 C1195.81712,1011.95083 1196.40045,1011.875 1197.33379,1011.875 L1205.94379,1011.875 C1206.41046,1011.875 1207.20378,1011.85167 1208.32379,1011.805 C1208.88379,1011.78167 1209.53712,1011.77 1210.28379,1011.77 C1211.66046,1011.77 1212.34879,1012.19 1212.34879,1013.03 C1212.34879,1013.56667 1212.05712,1014.115 1211.47379,1014.675 L1205.03379,1020.87 C1205.17379,1020.87 1205.36045,1020.85833 1205.59379,1020.835 L1206.04879,1020.835 C1208.03213,1020.835 1209.65961,1021.47083 1210.93129,1022.7425 C1212.20296,1024.01417 1212.83879,1025.64166 1212.83879,1027.625 C1212.83879,1030.09835 1211.93463,1032.11666 1210.12629,1033.68 C1208.31795,1035.24334 1205.99047,1036.025 1203.14379,1036.025 C1200.53044,1036.025 1198.3488,1035.38917 1196.59879,1034.1175 C1194.84878,1032.84583 1193.97379,1031.25334 1193.97379,1029.34 C1193.97379,1028.24333 1194.28878,1027.31584 1194.91879,1026.5575 C1195.54879,1025.79916 1196.33045,1025.42 1197.26379,1025.42 C1197.87046,1025.42 1198.36629,1025.60083 1198.75129,1025.9625 C1199.13629,1026.32417 1199.32879,1026.79666 1199.32879,1027.38 C1199.32879,1028.54667 1198.64046,1029.13 1197.26379,1029.13 L1196.87879,1029.13 L1196.87879,1029.375 C1196.87879,1030.51834 1197.51461,1031.51 1198.78629,1032.35 C1200.05796,1033.19 1201.55711,1033.61 1203.28379,1033.61 C1205.22046,1033.61 1206.80712,1033.05584 1208.04379,1031.9475 C1209.28046,1030.83916 1209.89879,1029.42168 1209.89879,1027.695 C1209.89879,1024.66165 1208.17214,1023.145 1204.71879,1023.145 C1203.80878,1023.145 1202.86379,1023.25 1201.88379,1023.46 C1201.67379,1023.50667 1201.47546,1023.53 1201.28879,1023.53 C1200.72879,1023.53 1200.44879,1023.22667 1200.44879,1022.62 C1200.44879,1022.34 1200.63545,1022.01334 1201.00879,1021.64 Z M1219.44318,1028.885 C1218.92985,1029.49167 1218.61485,1030.22666 1218.49818,1031.09 C1219.54819,1029.96999 1220.81984,1029.41 1222.31318,1029.41 C1223.68986,1029.41 1225.13651,1030.01666 1226.65318,1031.23 C1228.33319,1032.56001 1229.62818,1033.225 1230.53818,1033.225 C1231.19152,1033.225 1231.72235,1033.00917 1232.13068,1032.5775 C1232.53902,1032.14583 1232.74318,1031.59167 1232.74318,1030.915 C1232.74318,1030.68167 1232.69652,1030.425 1232.60318,1030.145 C1232.22985,1030.51834 1231.80985,1030.705 1231.34318,1030.705 C1230.33984,1030.705 1229.83818,1030.215 1229.83818,1029.235 C1229.83818,1028.69833 1230.03651,1028.255 1230.43318,1027.905 C1230.82985,1027.555 1231.35485,1027.38 1232.00818,1027.38 C1232.87152,1027.38 1233.56568,1027.68916 1234.09068,1028.3075 C1234.61568,1028.92584 1234.87818,1029.74833 1234.87818,1030.775 C1234.87818,1032.22167 1234.42319,1033.45833 1233.51318,1034.485 C1232.60318,1035.51167 1231.49486,1036.025 1230.18818,1036.025 C1228.95151,1036.025 1227.46402,1035.36001 1225.72568,1034.03 C1223.98734,1032.69999 1222.46486,1032.035 1221.15818,1032.035 C1219.85151,1032.035 1219.03485,1032.525 1218.70818,1033.505 C1218.94152,1033.45833 1219.08151,1033.435 1219.12818,1033.435 C1219.80485,1033.435 1220.14318,1033.77333 1220.14318,1034.45 C1220.14318,1035.50001 1219.55985,1036.025 1218.39318,1036.025 C1217.62318,1036.025 1216.99902,1035.6925 1216.52068,1035.0275 C1216.04235,1034.3625 1215.80318,1033.47001 1215.80318,1032.35 C1215.80318,1028.26665 1218.61482,1025.32668 1224.23818,1023.53 L1226.75818,1022.725 C1229.58153,1021.815 1230.99318,1020.28668 1230.99318,1018.14 C1230.99318,1016.69333 1230.48569,1015.55 1229.47068,1014.71 C1228.45568,1013.87 1227.06152,1013.45 1225.28818,1013.45 C1223.72484,1013.45 1222.42985,1013.765 1221.40318,1014.395 C1220.37651,1015.025 1219.76985,1015.88833 1219.58318,1016.985 C1220.84319,1017.07833 1221.47318,1017.62666 1221.47318,1018.63 C1221.47318,1019.23667 1221.25152,1019.75583 1220.80818,1020.1875 C1220.36485,1020.61917 1219.81652,1020.835 1219.16318,1020.835 C1218.36984,1020.835 1217.73402,1020.56084 1217.25568,1020.0125 C1216.77735,1019.46416 1216.53818,1018.74667 1216.53818,1017.86 C1216.53818,1015.94666 1217.40151,1014.34834 1219.12818,1013.065 C1220.85486,1011.78166 1222.98984,1011.14 1225.53318,1011.14 C1228.00653,1011.14 1230.03067,1011.78749 1231.60568,1013.0825 C1233.18069,1014.37751 1233.96818,1016.05166 1233.96818,1018.105 C1233.96818,1019.50501 1233.58902,1020.74166 1232.83068,1021.815 C1232.07234,1022.88834 1231.01652,1023.69333 1229.66318,1024.23 C1229.24318,1024.39333 1227.84319,1024.88333 1225.46318,1025.7 C1223.75984,1026.28334 1222.39485,1026.84333 1221.36818,1027.38 C1220.62151,1027.77667 1219.97985,1028.27833 1219.44318,1028.885 Z M1501.44879,1028.885 C1500.93545,1029.49167 1500.62046,1030.22666 1500.50379,1031.09 C1501.55379,1029.96999 1502.82545,1029.41 1504.31879,1029.41 C1505.69546,1029.41 1507.14211,1030.01666 1508.65879,1031.23 C1510.3388,1032.56001 1511.63378,1033.225 1512.54379,1033.225 C1513.19713,1033.225 1513.72795,1033.00917 1514.13629,1032.5775 C1514.54462,1032.14583 1514.74879,1031.59167 1514.74879,1030.915 C1514.74879,1030.68167 1514.70212,1030.425 1514.60879,1030.145 C1514.23545,1030.51834 1513.81546,1030.705 1513.34879,1030.705 C1512.34545,1030.705 1511.84379,1030.215 1511.84379,1029.235 C1511.84379,1028.69833 1512.04212,1028.255 1512.43879,1027.905 C1512.83546,1027.555 1513.36045,1027.38 1514.01379,1027.38 C1514.87713,1027.38 1515.57129,1027.68916 1516.09629,1028.3075 C1516.62129,1028.92584 1516.88379,1029.74833 1516.88379,1030.775 C1516.88379,1032.22167 1516.42879,1033.45833 1515.51879,1034.485 C1514.60878,1035.51167 1513.50046,1036.025 1512.19379,1036.025 C1510.95712,1036.025 1509.46963,1035.36001 1507.73129,1034.03 C1505.99295,1032.69999 1504.47046,1032.035 1503.16379,1032.035 C1501.85712,1032.035 1501.04046,1032.525 1500.71379,1033.505 C1500.94712,1033.45833 1501.08712,1033.435 1501.13379,1033.435 C1501.81046,1033.435 1502.14879,1033.77333 1502.14879,1034.45 C1502.14879,1035.50001 1501.56546,1036.025 1500.39879,1036.025 C1499.62878,1036.025 1499.00462,1035.6925 1498.52629,1035.0275 C1498.04795,1034.3625 1497.80879,1033.47001 1497.80879,1032.35 C1497.80879,1028.26665 1500.62043,1025.32668 1506.24379,1023.53 L1508.76379,1022.725 C1511.58714,1021.815 1512.99879,1020.28668 1512.99879,1018.14 C1512.99879,1016.69333 1512.49129,1015.55 1511.47629,1014.71 C1510.46128,1013.87 1509.06713,1013.45 1507.29379,1013.45 C1505.73045,1013.45 1504.43546,1013.765 1503.40879,1014.395 C1502.38212,1015.025 1501.77546,1015.88833 1501.58879,1016.985 C1502.84879,1017.07833 1503.47879,1017.62666 1503.47879,1018.63 C1503.47879,1019.23667 1503.25712,1019.75583 1502.81379,1020.1875 C1502.37045,1020.61917 1501.82213,1020.835 1501.16879,1020.835 C1500.37545,1020.835 1499.73962,1020.56084 1499.26129,1020.0125 C1498.78295,1019.46416 1498.54379,1018.74667 1498.54379,1017.86 C1498.54379,1015.94666 1499.40711,1014.34834 1501.13379,1013.065 C1502.86046,1011.78166 1504.99544,1011.14 1507.53879,1011.14 C1510.01213,1011.14 1512.03628,1011.78749 1513.61129,1013.0825 C1515.1863,1014.37751 1515.97379,1016.05166 1515.97379,1018.105 C1515.97379,1019.50501 1515.59463,1020.74166 1514.83629,1021.815 C1514.07795,1022.88834 1513.02213,1023.69333 1511.66879,1024.23 C1511.24879,1024.39333 1509.8488,1024.88333 1507.46879,1025.7 C1505.76545,1026.28334 1504.40046,1026.84333 1503.37379,1027.38 C1502.62712,1027.77667 1501.98546,1028.27833 1501.44879,1028.885 Z M1529.12318,1036.025 C1526.15983,1036.025 1523.83236,1034.93418 1522.14068,1032.7525 C1520.44901,1030.57082 1519.60318,1027.56669 1519.60318,1023.74 C1519.60318,1019.84331 1520.48401,1016.76918 1522.24568,1014.5175 C1524.00736,1012.26582 1526.4165,1011.14 1529.47318,1011.14 C1532.38986,1011.14 1534.69401,1012.21916 1536.38568,1014.3775 C1538.07736,1016.53584 1538.92318,1019.45831 1538.92318,1023.145 C1538.92318,1027.13502 1538.04819,1030.27916 1536.29818,1032.5775 C1534.54817,1034.87584 1532.15653,1036.025 1529.12318,1036.025 Z M1529.40318,1013.73 C1525.10983,1013.73 1522.88152,1016.9383 1522.71818,1023.355 L1522.71818,1023.88 C1522.71818,1026.93668 1523.27818,1029.29916 1524.39818,1030.9675 C1525.51819,1032.63584 1527.10484,1033.47 1529.15818,1033.47 C1531.25819,1033.47 1532.90318,1032.56001 1534.09318,1030.74 C1535.28319,1028.91999 1535.87818,1026.41168 1535.87818,1023.215 C1535.87818,1020.15832 1535.31819,1017.81334 1534.19818,1016.18 C1533.07818,1014.54666 1531.47986,1013.73 1529.40318,1013.73 Z M1555.92258,1013.625 L1555.92258,1025.7 L1560.05258,1025.7 C1560.82258,1025.7 1561.20758,1026.09666 1561.20758,1026.89 C1561.20758,1027.68334 1560.79925,1028.08 1559.98258,1028.08 L1555.92258,1028.08 L1555.92258,1030.215 C1555.92258,1032.15168 1556.44757,1033.12 1557.49758,1033.12 C1557.77758,1033.12 1558.16257,1033.09667 1558.65258,1033.05 L1559.38758,1032.98 C1560.36758,1032.98 1560.85758,1033.37666 1560.85758,1034.17 C1560.85758,1034.98667 1560.43758,1035.395 1559.59758,1035.395 C1559.08424,1035.395 1558.39591,1035.325 1557.53258,1035.185 C1556.80924,1035.06833 1555.91092,1035.01 1554.83758,1035.01 C1554.18424,1035.01 1553.20425,1035.08 1551.89758,1035.22 C1550.5909,1035.36 1549.61091,1035.43 1548.95758,1035.43 C1548.07091,1035.43 1547.62758,1035.03334 1547.62758,1034.24 C1547.62758,1033.4 1548.16424,1032.98 1549.23758,1032.98 C1549.47091,1032.98 1549.81507,1033.00333 1550.27008,1033.05 C1550.72508,1033.09667 1551.06924,1033.12 1551.30258,1033.12 C1552.46925,1033.12 1553.05258,1032.15168 1553.05258,1030.215 L1553.05258,1028.08 L1542.20258,1028.08 C1541.12924,1028.08 1540.59258,1027.61334 1540.59258,1026.68 C1540.59258,1026.30666 1540.72091,1025.93334 1540.97758,1025.56 L1550.25258,1014.045 C1551.23258,1012.83166 1551.95591,1012.04417 1552.42258,1011.6825 C1552.88925,1011.32083 1553.42591,1011.14 1554.03258,1011.14 C1555.29258,1011.14 1555.92258,1011.96833 1555.92258,1013.625 Z M1543.98758,1025.7 L1553.05258,1025.7 L1553.29758,1014.255 L1543.98758,1025.7 Z M1566.23697,1023.32 C1566.84364,1022.85333 1567.6603,1022.43334 1568.68697,1022.06 C1567.40363,1021.33666 1566.52864,1020.6425 1566.06197,1019.9775 C1565.5953,1019.3125 1565.36197,1018.45501 1565.36197,1017.405 C1565.36197,1015.63166 1566.11446,1014.14417 1567.61947,1012.9425 C1569.12448,1011.74083 1570.97363,1011.14 1573.16697,1011.14 C1575.36031,1011.14 1577.20946,1011.74083 1578.71447,1012.9425 C1580.21948,1014.14417 1580.97197,1015.63166 1580.97197,1017.405 C1580.97197,1018.45501 1580.73281,1019.3125 1580.25447,1019.9775 C1579.77613,1020.6425 1578.90698,1021.33666 1577.64697,1022.06 C1578.62698,1022.43334 1579.43197,1022.85333 1580.06197,1023.32 C1581.69531,1024.55667 1582.51197,1026.27166 1582.51197,1028.465 C1582.51197,1030.70501 1581.66031,1032.52499 1579.95697,1033.925 C1578.25363,1035.32501 1576.02532,1036.025 1573.27197,1036.025 C1570.40196,1036.025 1568.10365,1035.33667 1566.37697,1033.96 C1564.6503,1032.58333 1563.78697,1030.75168 1563.78697,1028.465 C1563.78697,1026.29499 1564.60363,1024.58001 1566.23697,1023.32 Z M1573.16697,1013.625 C1571.76696,1013.625 1570.61781,1013.98083 1569.71947,1014.6925 C1568.82113,1015.40417 1568.37197,1016.30833 1568.37197,1017.405 C1568.37197,1018.385 1568.8153,1019.18416 1569.70197,1019.8025 C1570.58864,1020.42084 1571.74363,1020.73 1573.16697,1020.73 C1574.59031,1020.73 1575.73947,1020.42084 1576.61447,1019.8025 C1577.48947,1019.18416 1577.92697,1018.37334 1577.92697,1017.37 C1577.92697,1016.27333 1577.47781,1015.375 1576.57947,1014.675 C1575.68113,1013.975 1574.54364,1013.625 1573.16697,1013.625 Z M1573.30697,1023.39 C1571.30029,1023.39 1569.73114,1023.83916 1568.59947,1024.7375 C1567.4678,1025.63584 1566.90197,1026.86666 1566.90197,1028.43 C1566.90197,1029.94667 1567.47946,1031.1775 1568.63447,1032.1225 C1569.78948,1033.0675 1571.30029,1033.54 1573.16697,1033.54 C1575.03365,1033.54 1576.54446,1033.0675 1577.69947,1032.1225 C1578.85448,1031.1775 1579.43197,1029.94667 1579.43197,1028.43 C1579.43197,1026.91333 1578.87198,1025.69417 1577.75197,1024.7725 C1576.63196,1023.85083 1575.15031,1023.39 1573.30697,1023.39 Z" id="2732-2048" fill="#979797"></path>
        </g>
    </g>
</svg>