<?xml version="1.0" encoding="UTF-8"?>
<svg width="167px" height="167px" viewBox="0 0 167 167" version="1.1" xmlns="http://www.w3.org/2000/svg" xmlns:xlink="http://www.w3.org/1999/xlink">
    <!-- Generator: Sketch 48.2 (47327) - http://www.bohemiancoding.com/sketch -->
    <title>icon_appstore</title>
    <desc>Created with Sketch.</desc>
    <defs>
        <linearGradient x1="50%" y1="0%" x2="50%" y2="100%" id="linearGradient-1">
            <stop stop-color="#1AC8FB" offset="0%"></stop>
            <stop stop-color="#1D70F2" offset="100%"></stop>
        </linearGradient>
    </defs>
    <g id="icon_appstore" stroke="none" stroke-width="1" fill="none" fill-rule="evenodd">
        <g>
            <rect id="App-Icon-Copy-11" fill="url(#linearGradient-1)" x="0" y="0" width="167" height="167" rx="36"></rect>
            <path d="M35.1309197,124.028077 L40.8006873,114.208007 C40.8006873,114.208007 45.700138,113.661141 48.8896028,114.1445 C52.0790676,114.626683 56.0611944,118.353606 56.0611944,118.353606 L48.372138,131.672444 C46.2611169,135.328803 41.5851169,136.582479 37.9287577,134.471458 C34.2735746,132.360437 33.0198986,127.684437 35.1309197,124.028077 Z M135.834154,96.4366197 C140.056196,96.4366197 143.47852,99.8589437 143.47852,104.080986 C143.47852,108.303028 140.056196,111.725352 135.834154,111.725352 L125.944696,111.725352 L133.048077,124.028077 C135.159098,127.684437 133.905422,132.360437 130.249063,134.471458 C126.59388,136.582479 121.91788,135.328803 119.806858,131.672444 L108.290915,111.725352 L99.4634359,96.4366197 L87.5993796,75.8873873 C87.5993796,75.8873873 87.7628514,70.7315563 89.9432599,65.5439718 C91.4956542,61.8511549 94.5733937,57.3903732 94.5733937,57.3903732 L117.117218,96.4366197 L135.834154,96.4366197 Z M91.4380275,96.4366197 C91.4380275,96.4366197 97.9933655,96.4366197 101.140492,104.080986 C104.288795,111.725352 102.610563,111.725352 102.610563,111.725352 L59.8879641,111.725352 L42.2341824,111.725352 L32.3411965,111.725352 C28.1191542,111.725352 24.6968303,108.303028 24.6968303,104.080986 C24.6968303,99.8589437 28.1191542,96.4366197 32.3411965,96.4366197 L51.0616613,96.4366197 L75.2625486,54.5184437 L68.0603796,42.0451901 C65.9493585,38.390007 67.2030345,33.714007 70.8582176,31.6029859 C74.5145768,29.4919648 79.1905768,30.7456408 81.3015979,34.4008239 L84.0888514,39.2297113 L86.877281,34.4008239 C88.9883021,30.7456408 93.6643021,29.4919648 97.3194852,31.6029859 C100.975844,33.714007 102.22952,38.390007 100.118499,42.0451901 L92.9163303,54.5184437 L84.0888514,69.8071761 L68.715443,96.4366197 L91.4380275,96.4366197 Z" id="app_store" fill="#FFFFFF"></path>
        </g>
    </g>
</svg>