<?xml version="1.0" encoding="UTF-8"?>
<svg width="167px" height="167px" viewBox="0 0 167 167" version="1.1" xmlns="http://www.w3.org/2000/svg" xmlns:xlink="http://www.w3.org/1999/xlink">
    <!-- Generator: Sketch 48.2 (47327) - http://www.bohemiancoding.com/sketch -->
    <title>icon_podcasts</title>
    <desc>Created with Sketch.</desc>
    <defs>
        <linearGradient x1="50%" y1="0%" x2="50%" y2="100%" id="linearGradient-1">
            <stop stop-color="#DC89F9" offset="0%"></stop>
            <stop stop-color="#9A49CC" offset="100%"></stop>
        </linearGradient>
        <rect id="path-2" x="0" y="0" width="167" height="167" rx="36"></rect>
    </defs>
    <g id="icon_podcasts" stroke="none" stroke-width="1" fill="none" fill-rule="evenodd">
        <g>
            <mask id="mask-3" fill="white">
                <use xlink:href="#path-2"></use>
            </mask>
            <use id="bg" fill="url(#linearGradient-1)" xlink:href="#path-2"></use>
            <path d="M84.2776961,109.941667 C101.562013,109.941667 116.204167,95.2995125 116.204167,78.0151961 C116.204167,59.3777434 101.756488,44.5333333 84.2776961,44.5333333 C65.4379875,44.5333333 50.7958333,59.1754875 50.7958333,78.0151961 C50.7958333,95.4939884 65.6402434,109.941667 84.2776961,109.941667 Z M61.9291667,110.43642 C50.9530378,103.412624 43.8375,91.389058 43.8375,78.0151961 C43.8375,55.3325061 61.5950061,37.575 84.2776961,37.575 C105.404994,37.575 123.1625,55.3325061 123.1625,78.0151961 C123.1625,91.5546018 115.869717,103.710077 105.070833,110.69494 L105.070833,102.017388 C98.8999427,107.32426 91.7096649,109.957262 83.5,109.916396 C75.6729839,109.877434 68.4827061,107.172847 61.9291667,101.802635 L61.9291667,110.43642 Z" id="Combined-Shape" fill="#FFFFFF" fill-rule="nonzero" mask="url(#mask-3)"></path>
            <path d="M84.6460784,128.729167 C111.938062,128.729167 134.991667,105.675562 134.991667,78.3835784 C134.991667,49.1171825 112.24494,25.7458333 84.6460784,25.7458333 C55.0619378,25.7458333 32.0083333,48.7994378 32.0083333,78.3835784 C32.0083333,105.98244 55.3796825,128.729167 84.6460784,128.729167 Z M62.6138871,131.660091 C40.4043598,123.16792 25.05,102.232626 25.05,78.3835784 C25.05,44.9564564 51.2189564,18.7875 84.6460784,18.7875 C115.781044,18.7875 141.95,44.9564564 141.95,78.3835784 C141.95,102.638243 126.068915,123.879199 104.330648,132.082542 L105.070833,124.232096 C98.6395183,127.240717 91.4492405,128.725243 83.5,128.685673 C76.3357074,128.685673 69.1454296,127.062896 61.9291667,123.817342 L62.6138917,131.660092 Z" id="Combined-Shape" fill="#FFFFFF" fill-rule="nonzero" mask="url(#mask-3)"></path>
            <path d="M83.5263154,148.212465 C73.7996881,148.191169 67.5490909,136.35575 68.2442974,105.766661 C68.532008,93.107394 76.5739918,91.8531409 83.5263206,91.85 C90.4786389,91.8531409 98.5206227,93.107394 98.8083333,105.766661 C99.5035399,136.35575 93.2529427,148.191169 83.5263154,148.212465 Z M83.5,86.2833333 C75.8140372,86.2833333 69.5833333,80.0526294 69.5833333,72.3666667 C69.5833333,64.6807039 75.8140372,58.45 83.5,58.45 C91.1859628,58.45 97.4166667,64.6807039 97.4166667,72.3666667 C97.4166667,80.0526294 91.1859628,86.2833333 83.5,86.2833333 Z" id="Combined-Shape" fill="#FFFFFF" mask="url(#mask-3)"></path>
        </g>
    </g>
</svg>