<?xml version="1.0" encoding="UTF-8"?>
<svg width="58px" height="58px" viewBox="0 0 58 58" version="1.1" xmlns="http://www.w3.org/2000/svg" xmlns:xlink="http://www.w3.org/1999/xlink">
    <!-- Generator: Sketch 48.2 (47327) - http://www.bohemiancoding.com/sketch -->
    <title>icon_sm-notifications</title>
    <desc>Created with Sketch.</desc>
    <defs></defs>
    <g id="settings" stroke="none" stroke-width="1" fill="none" fill-rule="evenodd">
        <path d="M13,0 L45,-1.77635684e-15 C52.1797017,-3.09524665e-15 58,5.82029825 58,13 L58,45 C58,52.1797017 52.1797017,58 45,58 L13,58 C5.82029825,58 2.29133111e-15,52.1797017 -1.77635684e-15,45 L-1.77635684e-15,13 C-2.65561672e-15,5.82029825 5.82029825,-4.57467025e-16 13,-1.77635684e-15 Z M31.2485003,16 L19,16 C16.2385763,16 14,18.2385763 14,21 L14,39 C14,41.7614237 16.2385763,44 19,44 L37,44 C39.7614237,44 42,41.7614237 42,39 L42,26.6778335 C42.6854208,26.65624 43.3541476,26.5684554 44,26.4206594 L44,39 C44,42.8659932 40.8659932,46 37,46 L19,46 C15.1340068,46 12,42.8659932 12,39 L12,21 C12,17.1340068 15.1340068,14 19,14 L31.4915592,14 C31.3485077,14.6461634 31.2654412,15.3148771 31.2485005,16 L31.2485003,16 Z M41.6658306,23.8696954 C45.8671589,23.8696954 49.2730085,20.4638459 49.2730085,16.2625175 C49.2730085,12.0611892 45.8671589,8.65533961 41.6658306,8.65533961 C37.4645022,8.65533961 34.0586527,12.0611892 34.0586527,16.2625175 C34.0586527,20.4638459 37.4645022,23.8696954 41.6658306,23.8696954 Z" id="icon_sm-notifications" fill="#FF3B30"></path>
    </g>
</svg>