<?xml version="1.0" encoding="UTF-8"?>
<svg width="167px" height="167px" viewBox="0 0 167 167" version="1.1" xmlns="http://www.w3.org/2000/svg" xmlns:xlink="http://www.w3.org/1999/xlink">
    <!-- Generator: Sketch 48.2 (47327) - http://www.bohemiancoding.com/sketch -->
    <title>icon_news</title>
    <desc>Created with Sketch.</desc>
    <defs>
        <linearGradient x1="50%" y1="0%" x2="50%" y2="100%" id="linearGradient-1">
            <stop stop-color="#FF5A76" offset="0%"></stop>
            <stop stop-color="#FF416C" offset="100%"></stop>
        </linearGradient>
        <path d="M36.3115132,136.236842 L30.7631579,136.236842 C33.5373355,136.236842 36.3115132,133.44559 36.3115132,130.654339 L36.3115132,32.9605263 L141.730263,32.9605263 L141.730263,131.236842 C141.730263,133.998266 139.491687,136.236842 136.730263,136.236842 L36.3115132,136.236842 Z" id="path-2"></path>
        <filter x="-10.8%" y="-7.7%" width="114.4%" height="115.5%" filterUnits="objectBoundingBox" id="filter-3">
            <feOffset dx="-4" dy="0" in="SourceAlpha" result="shadowOffsetOuter1"></feOffset>
            <feGaussianBlur stdDeviation="2" in="shadowOffsetOuter1" result="shadowBlurOuter1"></feGaussianBlur>
            <feColorMatrix values="0 0 0 0 0   0 0 0 0 0   0 0 0 0 0  0 0 0 0.2 0" type="matrix" in="shadowBlurOuter1"></feColorMatrix>
        </filter>
    </defs>
    <g id="icon_news" stroke="none" stroke-width="1" fill="none" fill-rule="evenodd">
        <g>
            <rect id="bg" fill="url(#linearGradient-1)" x="0" y="0" width="167" height="167" rx="36"></rect>
            <path d="M25.2697368,43.9473684 L45.0460526,43.9473684 L45.0460526,136.236842 L29.2697368,136.236842 C27.0605978,136.236842 25.2697368,134.445981 25.2697368,132.236842 L25.2697368,43.9473684 Z" id="paper2" fill="#FFFFFF"></path>
            <g id="paper">
                <use fill="black" fill-opacity="1" filter="url(#filter-3)" xlink:href="#path-2"></use>
                <use fill="#FFFFFF" fill-rule="evenodd" xlink:href="#path-2"></use>
            </g>
            <path d="M48.8914474,97.7828947 L141.730263,97.7828947 L141.730263,101.078947 L48.8914474,101.078947 C47.9812676,101.078947 47.2434211,100.341101 47.2434211,99.4309211 L47.2434211,99.4309211 C47.2434211,98.5207413 47.9812676,97.7828947 48.8914474,97.7828947 Z" id="Rectangle" fill="#C8C7CC"></path>
            <path d="M48.8914474,108.769737 L141.730263,108.769737 L141.730263,112.065789 L48.8914474,112.065789 C47.9812676,112.065789 47.2434211,111.327943 47.2434211,110.417763 L47.2434211,110.417763 C47.2434211,109.507583 47.9812676,108.769737 48.8914474,108.769737 Z" id="Rectangle-Copy" fill="#C8C7CC"></path>
            <path d="M48.8914474,119.756579 L141.730263,119.756579 L141.730263,123.052632 L48.8914474,123.052632 C47.9812676,123.052632 47.2434211,122.314785 47.2434211,121.404605 L47.2434211,121.404605 C47.2434211,120.494425 47.9812676,119.756579 48.8914474,119.756579 Z" id="Rectangle-Copy-2" fill="#C8C7CC"></path>
            <path d="M87.0872081,71.537916 C87.4962837,71.9469915 87.7774078,72.4840185 87.8653993,73.0838157 L87.8947368,73.0935948 L87.8947368,82.546425 L87.8702117,82.5709502 C87.8863863,82.6917631 87.8947368,82.8150529 87.8947368,82.9402929 C87.8947368,84.4629837 86.6603521,85.6973684 85.1376614,85.6973684 C85.0124213,85.6973684 84.8891316,85.6890179 84.7683186,85.6728432 L84.7437934,85.6973684 L75.2909633,85.6973684 L75.2811841,85.6680309 C74.6813869,85.5800394 74.14436,85.2989152 73.7352844,84.8898397 L73.7154916,84.9096326 L46.9324727,58.1266137 L46.9520366,58.1065918 C46.5430851,57.6975449 46.2620495,57.1606064 46.1740744,56.5609212 L46.1447368,56.551142 L46.1447368,47.0983118 L46.169262,47.0737866 C46.1530874,46.9529737 46.1447368,46.829684 46.1447368,46.7044439 C46.1447368,45.1817532 47.3791216,43.9473684 48.9018123,43.9473684 C49.0270524,43.9473684 49.1503421,43.9557189 49.2711551,43.9718936 L49.2956802,43.9473684 L58.7485104,43.9473684 L58.7582896,43.976706 C59.2824402,44.0536 59.7586554,44.2779828 60.1434363,44.6063555 L60.1690352,44.5801573 L87.107001,71.5181231 L87.0872081,71.537916 Z M87.8647302,56.8485987 C87.6649646,58.2103077 86.4919551,59.2557018 85.0747807,59.2557018 C84.3012265,59.2557018 83.6004197,58.9442327 83.0909311,58.4398651 L83.0605263,58.45 L73.3921053,48.7815789 L73.4022402,48.7511741 C72.8978726,48.2416855 72.5864035,47.5408788 72.5864035,46.7673246 C72.5864035,45.3501502 73.6317976,44.1771406 74.9935066,43.9773751 L75.0035088,43.9473684 L84.6719298,43.9473684 L84.6970143,43.9724529 C84.8205827,43.9559094 84.9466843,43.9473684 85.0747807,43.9473684 C86.6321995,43.9473684 87.8947368,45.2099058 87.8947368,46.7673246 C87.8947368,46.895421 87.8861959,47.0215226 87.8696523,47.1450909 L87.8947368,47.1701754 L87.8947368,56.8385965 L87.8647302,56.8485987 Z M46.1747435,72.7961381 C46.3745091,71.4344291 47.5475186,70.3890351 48.964693,70.3890351 C49.7382472,70.3890351 50.439054,70.7005042 50.9485426,71.2048718 L50.9789474,71.1947368 L60.6473684,80.8631579 L60.6372335,80.8935627 C61.1416011,81.4030513 61.4530702,82.103858 61.4530702,82.8774123 C61.4530702,84.2945867 60.4076761,85.4675962 59.0459671,85.6673618 L59.0359649,85.6973684 L49.3675439,85.6973684 L49.3424593,85.6722839 C49.218891,85.6888274 49.0927894,85.6973684 48.964693,85.6973684 C47.4072742,85.6973684 46.1447368,84.4348311 46.1447368,82.8774123 C46.1447368,82.7493158 46.1532778,82.6232142 46.1698214,82.4996459 L46.1447368,82.4745614 L46.1447368,72.8061404 L46.1747435,72.7961381 Z" id="logo" fill="#FF5B75"></path>
        </g>
    </g>
</svg>