<?xml version="1.0" encoding="UTF-8"?>
<svg width="167px" height="167px" viewBox="0 0 167 167" version="1.1" xmlns="http://www.w3.org/2000/svg" xmlns:xlink="http://www.w3.org/1999/xlink">
    <!-- Generator: Sketch 48.2 (47327) - http://www.bohemiancoding.com/sketch -->
    <title>icon_home</title>
    <desc>Created with Sketch.</desc>
    <defs></defs>
    <g id="icon_home" stroke="none" stroke-width="1" fill="none" fill-rule="evenodd">
        <g>
            <rect id="bg" fill="#FFFFFF" x="0" y="0" width="167" height="167" rx="36"></rect>
            <path d="M116.546432,45.8109701 L116.546432,38.4269604 C116.546432,36.7701061 117.889577,35.4269604 119.546432,35.4269604 L127.546432,35.4269604 C129.203286,35.4269604 130.546432,36.7701061 130.546432,38.4269604 L130.546432,56.7931326 L144.829059,67.9969992 C145.69814,68.6787412 145.850008,69.9359315 145.168266,70.8050125 C144.789134,71.2883274 144.208931,71.5706094 143.594656,71.5706094 L131.836585,71.5706094 L131.836585,123.784863 C131.836585,129.307711 127.359432,133.784863 121.836585,133.784863 L44.53744,133.784863 C39.0145925,133.784863 34.53744,129.307711 34.53744,123.784863 L34.53744,71.5706094 L23,71.5706094 C21.8954305,71.5706094 21,70.6751789 21,69.5706094 C21,68.9563341 21.282282,68.3761308 21.7655969,67.9969992 L82.6801263,20.2131949 C83.0424993,19.928935 83.5521565,19.928935 83.9145294,20.2131949 L116.546432,45.8109701 Z" id="Combined-Shape" fill="#F98F17"></path>
            <path d="M81.5172805,32.6958333 C82.0079357,32.2627721 82.6524477,32 83.3583333,32 C84.064219,32 84.708731,32.2627721 85.1993861,32.6958333 L85.2370812,32.6958333 L121.629167,61.225 L121.711944,61.3353694 C122.87019,61.6721811 123.716667,62.7414046 123.716667,64.0083333 L123.716667,122.458333 C123.716667,123.995526 122.470526,125.241667 120.933333,125.241667 L45.7833333,125.241667 C44.2461408,125.241667 43,123.995526 43,122.458333 L43,64.0083333 L43.00613,63.9976059 C43.0020648,63.9360622 43,63.8739719 43,63.8113994 C43,62.5780321 43.8022235,61.5320342 44.913342,61.1667342 L81.4795855,32.6958333 L81.5172805,32.6958333 Z" id="house-3" fill="#FFAB1F"></path>
            <path d="M82.4688935,42.5504353 C82.8570238,42.2078645 83.3668616,42 83.9252488,42 C84.4836359,42 84.9934737,42.2078645 85.381604,42.5504353 L85.4114224,42.5504353 L114.199192,65.1182836 L114.264672,65.2055907 C115.180897,65.4720239 115.850498,66.3178275 115.850498,67.3200249 L115.850498,113.556592 C115.850498,114.77258 114.864744,115.758333 113.648756,115.758333 L54.2017413,115.758333 C52.9857532,115.758333 52,114.77258 52,113.556592 L52,67.3200249 L52.0048491,67.311539 C52.0016334,67.2628552 52,67.213739 52,67.1642413 C52,66.1885926 52.6345947,65.3611614 53.5135392,65.0721927 L82.4390751,42.5504353 L82.4688935,42.5504353 Z" id="house-3" fill="#FFBE41"></path>
            <path d="M62,73.9177083 L62,104.534375 C62,106.621875 62.6958333,107.317708 64.7833333,107.317708 L101.6625,107.317708 C103.75,107.317708 105.141667,105.926042 105.141667,103.838542 L105.141667,73.9177083 C105.141667,72.5260417 104.445833,71.3663194 103.054167,70.4385417 L84.9625,56.521875 C83.5708333,55.8260417 82.875,55.8260417 81.4833333,56.521875 L64.0875,70.4385417 C62.6958333,71.3663194 62,72.5260417 62,73.9177083 Z" id="house-4" fill="#FFD260"></path>
            <path d="M71,78.3342758 L71,95.9928443 C71,97.1968376 71.4013311,97.5981687 72.6053244,97.5981687 L93.8758727,97.5981687 C95.079866,97.5981687 95.8825282,96.7955065 95.8825282,95.5915132 L95.8825282,78.3342758 C95.8825282,77.5316136 95.4811971,76.8627285 94.6785349,76.3276203 L84.2439263,68.3009983 C83.4412641,67.8996672 83.039933,67.8996672 82.2372708,68.3009983 L72.2039933,76.3276203 C71.4013311,76.8627285 71,77.5316136 71,78.3342758 Z" id="house-5" fill="#FFE780"></path>
        </g>
    </g>
</svg>