<?xml version="1.0" encoding="UTF-8"?>
<svg width="102px" height="26px" viewBox="0 0 102 26" version="1.1" xmlns="http://www.w3.org/2000/svg" xmlns:xlink="http://www.w3.org/1999/xlink">
    <!-- Generator: Sketch 48.2 (47327) - http://www.bohemiancoding.com/sketch -->
    <title>text_Cancel_wh</title>
    <desc>Created with Sketch.</desc>
    <defs></defs>
    <g id="search" stroke="none" stroke-width="1" fill="none" fill-rule="evenodd" opacity="0.495527627">
        <g transform="translate(-1239.000000, -23.000000)" fill="#FFFFFF" id="text_Cancel_wh">
            <path d="M1249.5752,48.5664062 C1243.06738,48.5664062 1239,43.7519531 1239,36.0322266 C1239,28.2958984 1243.05078,23.4814453 1249.55859,23.4814453 C1254.60547,23.4814453 1258.54004,26.6523438 1259.25391,31.2675781 L1256.21582,31.2675781 C1255.41895,28.1796875 1252.8623,26.2373047 1249.55859,26.2373047 C1244.95996,26.2373047 1242.07129,30.0224609 1242.07129,36.0322266 C1242.07129,42.0419922 1244.95996,45.8105469 1249.5752,45.8105469 C1252.91211,45.8105469 1255.45215,44.1005859 1256.21582,41.328125 L1259.25391,41.328125 C1258.45703,45.7275391 1254.67188,48.5664062 1249.5752,48.5664062 Z M1268.62406,45.8105469 C1271.56254,45.8105469 1273.73734,43.8847656 1273.73734,41.328125 L1273.73734,39.6845703 L1268.92289,40 C1266.20023,40.1826172 1265.00492,41.1289062 1265.00492,42.921875 C1265.00492,44.7480469 1266.54887,45.8105469 1268.62406,45.8105469 Z M1268.09281,48.3173828 C1264.62309,48.3173828 1262.04984,46.2587891 1262.04984,42.9882812 C1262.04984,39.7841797 1264.40727,37.9414062 1268.57426,37.6923828 L1273.73734,37.3769531 L1273.73734,35.75 C1273.73734,33.5419922 1272.35941,32.3300781 1269.68656,32.3300781 C1267.54496,32.3300781 1266.05082,33.1435547 1265.65238,34.5546875 L1262.76371,34.5546875 C1263.14555,31.6826172 1265.96781,29.7900391 1269.78617,29.7900391 C1274.15238,29.7900391 1276.59281,32.03125 1276.59281,35.75 L1276.59281,48.0019531 L1273.87016,48.0019531 L1273.87016,45.3623047 L1273.60453,45.3623047 C1272.44242,47.2714844 1270.48344,48.3173828 1268.09281,48.3173828 Z M1281.08211,48.0019531 L1281.08211,30.1054688 L1283.80477,30.1054688 L1283.80477,32.9277344 L1284.07039,32.9277344 C1284.96687,30.9521484 1286.71004,29.7900391 1289.4493,29.7900391 C1293.46687,29.7900391 1295.70809,32.1640625 1295.70809,36.4140625 L1295.70809,48.0019531 L1292.85262,48.0019531 L1292.85262,37.1113281 C1292.85262,33.890625 1291.49129,32.3632812 1288.63582,32.3632812 C1285.78035,32.3632812 1283.93758,34.2724609 1283.93758,37.4101562 L1283.93758,48.0019531 L1281.08211,48.0019531 Z M1314.93957,35.5839844 L1312.0509,35.5839844 C1311.58605,33.8076172 1310.00891,32.3632812 1307.43566,32.3632812 C1304.21496,32.3632812 1302.18957,34.9365234 1302.18957,38.9873047 C1302.18957,43.1210938 1304.24816,45.7441406 1307.43566,45.7441406 C1309.84289,45.7441406 1311.51965,44.6318359 1312.0509,42.6064453 L1314.93957,42.6064453 C1314.42492,45.8935547 1311.75207,48.3173828 1307.45227,48.3173828 C1302.43859,48.3173828 1299.23449,44.6816406 1299.23449,38.9873047 C1299.23449,33.4091797 1302.42199,29.7900391 1307.43566,29.7900391 C1311.78527,29.7900391 1314.44152,32.3964844 1314.93957,35.5839844 Z M1325.50504,32.3134766 C1322.64957,32.3134766 1320.65738,34.4052734 1320.44156,37.5761719 L1330.30289,37.5761719 C1330.23648,34.4052734 1328.34391,32.3134766 1325.50504,32.3134766 Z M1330.21988,43.3701172 L1333.07535,43.3701172 C1332.21207,46.4414062 1329.45621,48.3173828 1325.53824,48.3173828 C1320.57437,48.3173828 1317.46988,44.7314453 1317.46988,39.0703125 C1317.46988,33.4423828 1320.62418,29.7900391 1325.53824,29.7900391 C1330.3693,29.7900391 1333.30777,33.2265625 1333.30777,38.7880859 L1333.30777,39.8837891 L1320.44156,39.8837891 L1320.44156,40.0166016 C1320.59098,43.5527344 1322.56656,45.7939453 1325.60465,45.7939453 C1327.91227,45.7939453 1329.47281,44.9472656 1330.21988,43.3701172 Z M1337.16621,48.0019531 L1337.16621,23 L1340.02168,23 L1340.02168,48.0019531 L1337.16621,48.0019531 Z"></path>
        </g>
    </g>
</svg>