<?xml version="1.0" encoding="UTF-8"?>
<svg width="2708px" height="24px" viewBox="0 0 2708 24" version="1.1" xmlns="http://www.w3.org/2000/svg" xmlns:xlink="http://www.w3.org/1999/xlink">
    <!-- Generator: Sketch 48.2 (47327) - http://www.bohemiancoding.com/sketch -->
    <title>top</title>
    <desc>Created with Sketch.</desc>
    <defs></defs>
    <g id="screen" stroke="none" stroke-width="1" fill="none" fill-rule="evenodd" transform="translate(-13.000000, -8.000000)">
        <g id="top" transform="translate(0.000000, 6.000000)">
            <g id="battery" transform="translate(2565.000000, 0.000000)">
                <g id="battery_icon" transform="translate(103.000000, 3.000000)">
                    <path d="M4.5,2 C3.11928813,2 2,3.11928813 2,4.5 L2,18.5 C2,19.8807119 3.11928813,21 4.5,21 L43.5,21 C44.8807119,21 46,19.8807119 46,18.5 L46,4.5 C46,3.11928813 44.8807119,2 43.5,2 L4.5,2 Z M4.5,0 L43.5,0 C45.9852814,0 48,2.01471863 48,4.5 L48,18.5 C48,20.9852814 45.9852814,23 43.5,23 L4.5,23 C2.01471863,23 0,20.9852814 0,18.5 L0,4.5 C0,2.01471863 2.01471863,0 4.5,0 Z" id="outside" fill="#979797" fill-rule="nonzero"></path>
                    <rect id="inside" fill="#FFFFFF" x="4" y="4" width="40" height="15" rx="1.5"></rect>
                    <path d="M50,7.5 C52.0012125,8.21547824 53.0018187,9.54881157 53.0018187,11.5 C53.0018187,13.4511884 52.0012125,14.7845218 50,15.5 L50,7.5 Z" id="top" fill="#969696"></path>
                </g>
                <text id="100%" font-family="SFProText-Medium, SF Pro Text" font-size="24" font-weight="400" letter-spacing="-0.370000005" fill="#D3D3D3">
                    <tspan x="36.464375" y="23">100%</tspan>
                </text>
            </g>
            <path d="M2594.26516,21.7938537 L2594.26516,15.3138537 L2597.46089,18.7092683 L2594.26516,21.7938537 L2594.26516,21.7938537 L2594.26516,21.7938537 L2594.26516,21.7938537 Z M2597.60759,9.00507317 L2594.26516,12.2854634 L2594.26516,6.07063415 L2597.60759,9.00507317 L2597.60759,9.00507317 L2597.60759,9.00507317 L2597.60759,9.00507317 Z M2595.06805,13.8571707 L2600.02767,9.00507317 L2592.62776,2 L2592.45296,2 L2592.45296,11.7428293 L2587.43009,6.60536585 L2586,8.06292683 L2592.04361,13.8571707 L2586,19.6505366 L2587.43009,21.1080976 L2592.45296,15.9706341 L2592.45296,25.7125854 L2592.77271,25.7125854 L2600.0997,18.6899512 L2595.06805,13.8571707 L2595.06805,13.8571707 Z" id="Bluetooth-Icon" fill="#D8D8D8"></path>
            <path d="M2553.51893,14.0691755 L2574.7587,4.20843118 L2565.03058,25.8523794 L2565.03058,14.0691755 L2553.51893,14.0691755 Z M2559.56436,12.9841576 L2566.03435,13.0099937 L2566.03435,19.1173869 L2571.9598,7.07743844 L2559.56436,12.9841576 Z" id="location-services" fill="#D8D8D8"></path>
            <g id="orientation_lock" transform="translate(2519.000000, 4.000000)" fill="#D8D8D8">
                <path d="M17.0381159,16.7980537 C17.1310233,16.7924371 17.2097051,16.7757369 17.2791814,16.7511409 C17.2024901,16.776218 17.1217169,16.7922736 17.0381159,16.7980537 Z M16.9681248,16.800465 C16.9929853,16.800465 17.0170047,16.7996999 17.0402315,16.7982204 C17.014993,16.7996524 16.9916538,16.800465 16.9681248,16.800465 Z M19.9506248,9 L23,9 L19,13.0253049 L15,9 L17.9381062,9 C17.4460082,5.05368842 14.0796177,2 10,2 C5.581722,2 2,5.581722 2,10 C2,14.3883589 5.48264783,18.194442 10,18.194442 C12.1139176,18.194442 13.6144093,17.6499021 14.7260143,16.727794 C15.0322711,16.4737453 16.3467906,14.800465 16.9681248,14.800465 C17.5204095,14.800465 17.9681248,15.2481803 17.9681248,15.800465 C17.9681248,16.1553935 17.7832159,16.4671343 17.504476,16.6446096 C17.4168538,16.7550006 17.2328208,16.991994 17.2669602,16.9485371 C16.8708433,17.452763 16.4964498,17.8577188 16.0029234,18.267113 C14.5334251,19.4861039 12.5815838,20.194442 10,20.194442 C4.33647866,20.194442 0,15.4552323 0,10 C0,4.4771525 4.4771525,0 10,0 C15.1853481,0 19.4489003,3.94667731 19.9506248,9 Z" id="Combined-Shape" fill-rule="nonzero"></path>
                <path d="M7.98651052,9 L12.1131592,9 L12.1131592,6.21619787 C11.8365331,5.24959917 11.217742,4.8029323 10.1461591,4.8029323 C9.06662789,4.8029323 8.37533849,5.26280869 7.98651052,6.24109504 L7.98651052,9 Z M13.1131592,9.00633173 C13.6121672,9.06253289 14,9.48597484 14,10 L14,14 C14,14.5522847 13.5522847,15 13,15 L7,15 C6.44771525,15 6,14.5522847 6,14 L6,10 C6,9.45221876 6.44044339,9.00730858 6.98651052,9.00008912 L6.98651052,6.14859843 L7.01758119,5.97508968 C7.54557028,4.54813242 8.61942131,3.8029323 10.1461591,3.8029323 C11.6880131,3.8029323 12.710643,4.56800458 13.096401,6.02023416 L13.1131592,6.14859843 L13.1131592,9.00633173 Z" id="Combined-Shape"></path>
            </g>
            <path d="M2496.25108,23 C2491.14185,23 2487,18.9122139 2487,13.8696742 C2487,9.57665143 2490.00208,5.97564928 2494.04733,5 C2492.90973,6.39508534 2492.22887,8.16829569 2492.22887,10.0984527 C2492.22887,14.5928902 2495.92052,18.2363518 2500.4744,18.2363518 C2502.13437,18.2363518 2503.67977,17.752236 2504.97356,16.9192563 C2503.70182,20.4622439 2500.27673,23 2496.25108,23 Z" id="sleep-path" fill="#D8D8D8"></path>
            <text id="12:00-PM" font-family="SFProText-Medium, SF Pro Text" font-size="24" font-weight="400" letter-spacing="0.8347826" fill="#D3D3D3">
                <tspan x="1304.66926" y="23"> 12:00 PM</tspan>
            </text>
            <g id="wifi" transform="translate(73.000000, 4.000000)" fill="#D8D8D8">
                <path d="M14.2969189,4.08231536 C18.9517428,4.08231536 22.5753058,5.55819293 25.6095543,8.52252573 L28.4125798,5.66543433 C24.8042816,2.16573649 19.8122436,0 14.2969189,0 C8.6886375,0 3.62142748,2.23935374 0,5.84351895 L2.62699885,8.52252573 C5.67360328,5.45332717 9.54912231,4.08231536 14.2969189,4.08231536 Z" id="wifi-path"></path>
                <path d="M14.0025633,6.84850966 C17.6445495,6.84850966 20.7812289,8.65570893 23.4656444,10.6424053 L20.6377098,13.5197782 C18.5418444,12.0595144 16.783419,11.2645938 14.0025633,11.2645938 C11.1281531,11.2645938 9.53059214,11.9689614 7.39772272,13.5197782 L4.54315567,10.6424053 C7.26075683,8.56268003 10.2672538,6.84850966 14.0025633,6.84850966 Z" id="wifi-path"></path>
                <path d="M9.64096854,15.7883416 C10.793588,14.682897 12.3494928,13.8678364 14.10144,13.8678364 C15.7604624,13.8678364 17.427515,14.7846735 18.5619115,15.7883416 L18.5619115,15.7883416 L13.9949103,20.1550778 L9.64096854,15.7883416 L9.64096854,15.7883416 Z" id="wifi-path"></path>
            </g>
            <text id="iPad" font-family="SFProText-Medium, SF Pro Text" font-size="24" font-weight="400" letter-spacing="-0.370000005" fill="#D3D3D3">
                <tspan x="12" y="23">iPa</tspan>
                <tspan x="45.8235937" y="23">d</tspan>
            </text>
        </g>
    </g>
</svg>